%TF.GenerationSoftware,Altium Limited,Altium Designer,20.1.14 (287)*%
G04 Layer_Color=8421504*
%FSLAX25Y25*%
%MOIN*%
%TF.SameCoordinates,EAB65FBB-9CC0-4E70-8F82-B449C0BBF2B7*%
%TF.FilePolarity,Positive*%
%TF.FileFunction,Paste,Top*%
%TF.Part,Single*%
G01*
G75*
%TA.AperFunction,SMDPad,CuDef*%
%ADD10R,0.05512X0.04134*%
%ADD11C,0.03200*%
%ADD12R,0.02992X0.05000*%
%ADD13R,0.04724X0.04331*%
G04:AMPARAMS|DCode=14|XSize=21.65mil|YSize=19.68mil|CornerRadius=2.46mil|HoleSize=0mil|Usage=FLASHONLY|Rotation=0.000|XOffset=0mil|YOffset=0mil|HoleType=Round|Shape=RoundedRectangle|*
%AMROUNDEDRECTD14*
21,1,0.02165,0.01476,0,0,0.0*
21,1,0.01673,0.01968,0,0,0.0*
1,1,0.00492,0.00837,-0.00738*
1,1,0.00492,-0.00837,-0.00738*
1,1,0.00492,-0.00837,0.00738*
1,1,0.00492,0.00837,0.00738*
%
%ADD14ROUNDEDRECTD14*%
D10*
X145500Y6020D02*
D03*
Y13500D02*
D03*
D11*
X100000Y294500D02*
D03*
X52500Y36500D02*
D03*
X94500Y294500D02*
D03*
X100000Y21000D02*
D03*
X137500D02*
D03*
X130500Y51000D02*
D03*
X118000Y40000D02*
D03*
D12*
X74500Y94000D02*
D03*
X79500D02*
D03*
X84500D02*
D03*
X89500D02*
D03*
Y64000D02*
D03*
X84500D02*
D03*
X79500D02*
D03*
X74500D02*
D03*
D13*
X101000Y60000D02*
D03*
Y68268D02*
D03*
X136500Y60000D02*
D03*
Y68268D02*
D03*
X112000Y60000D02*
D03*
Y68268D02*
D03*
X124000Y60000D02*
D03*
Y68268D02*
D03*
D14*
X67000Y262500D02*
D03*
Y266043D02*
D03*
X74000Y262500D02*
D03*
Y266043D02*
D03*
%TF.MD5,a4f49a42fd0aef71f46c8bbd72c17a47*%
M02*
