%TF.GenerationSoftware,Altium Limited,Altium Designer,20.1.14 (287)*%
G04 Layer_Color=0*
%FSLAX25Y25*%
%MOIN*%
%TF.SameCoordinates,66620FBD-E1AE-4FB5-826F-034038840454*%
%TF.FilePolarity,Positive*%
%TF.FileFunction,Plated,1,4,PTH,Drill*%
%TF.Part,Single*%
G01*
G75*
%TA.AperFunction,ComponentDrill*%
%ADD92C,0.03500*%
%ADD93C,0.03500*%
%ADD94C,0.04213*%
%ADD95C,0.04016*%
%ADD96C,0.03898*%
%ADD97C,0.02800*%
%ADD98C,0.04213*%
%ADD99C,0.04331*%
%ADD100C,0.03543*%
%TA.AperFunction,ViaDrill,NotFilled*%
%ADD101C,0.01968*%
%ADD102C,0.12600*%
D92*
X130000Y250000D02*
D03*
X120000D02*
D03*
X110000D02*
D03*
X60000Y190000D02*
D03*
Y170000D02*
D03*
X140000Y190000D02*
D03*
Y180000D02*
D03*
Y170000D02*
D03*
Y200000D02*
D03*
Y230000D02*
D03*
X120000Y170000D02*
D03*
X130000D02*
D03*
X140000Y210000D02*
D03*
Y220000D02*
D03*
X90000Y170000D02*
D03*
X80000D02*
D03*
X70000D02*
D03*
X60000Y210000D02*
D03*
X130000Y240000D02*
D03*
X120000D02*
D03*
X110000D02*
D03*
X100000D02*
D03*
X90000D02*
D03*
X80000D02*
D03*
X110000Y230000D02*
D03*
X100000D02*
D03*
X90000D02*
D03*
X80000D02*
D03*
X70000D02*
D03*
X60000Y220000D02*
D03*
X70000Y190000D02*
D03*
X80000Y220000D02*
D03*
X70000D02*
D03*
X140000Y250000D02*
D03*
X90000Y190000D02*
D03*
X80000Y180000D02*
D03*
X120000Y230000D02*
D03*
X130000D02*
D03*
X140000Y240000D02*
D03*
X90000Y180000D02*
D03*
X70000Y210000D02*
D03*
X130000Y220000D02*
D03*
X120000D02*
D03*
X110000D02*
D03*
X100000D02*
D03*
X90000D02*
D03*
X130000Y210000D02*
D03*
X120000D02*
D03*
X110000D02*
D03*
X100000D02*
D03*
X90000D02*
D03*
X80000D02*
D03*
X120000Y200000D02*
D03*
X110000D02*
D03*
X100000D02*
D03*
X90000D02*
D03*
X80000D02*
D03*
X70000D02*
D03*
X100000Y190000D02*
D03*
X70000Y180000D02*
D03*
X130000D02*
D03*
X120000D02*
D03*
X110000D02*
D03*
X100000D02*
D03*
X70000Y240000D02*
D03*
X130000Y200000D02*
D03*
X60000Y230000D02*
D03*
X110000Y190000D02*
D03*
X130000D02*
D03*
X60000Y240000D02*
D03*
Y250000D02*
D03*
D93*
Y180000D02*
D03*
X97500Y103500D02*
D03*
Y111500D02*
D03*
X110000Y170000D02*
D03*
X100000D02*
D03*
Y250000D02*
D03*
X90000D02*
D03*
X80000D02*
D03*
X70000D02*
D03*
X80000Y190000D02*
D03*
X60000Y200000D02*
D03*
X120000Y190000D02*
D03*
D94*
X48012Y161000D02*
D03*
Y149189D02*
D03*
X36201Y161000D02*
D03*
Y149189D02*
D03*
X151681Y47035D02*
D03*
Y58846D02*
D03*
Y70657D02*
D03*
Y82468D02*
D03*
X163492Y47035D02*
D03*
Y58846D02*
D03*
Y70657D02*
D03*
Y82468D02*
D03*
X151681Y227095D02*
D03*
Y238906D02*
D03*
X163492Y227095D02*
D03*
Y238906D02*
D03*
X151681Y174594D02*
D03*
Y186406D02*
D03*
X163492Y174594D02*
D03*
Y186406D02*
D03*
X151681Y121595D02*
D03*
Y133405D02*
D03*
X163492Y121595D02*
D03*
Y133405D02*
D03*
X48012Y116905D02*
D03*
Y105095D02*
D03*
X36201Y116905D02*
D03*
Y105095D02*
D03*
X48012Y207906D02*
D03*
Y196095D02*
D03*
X36201Y207906D02*
D03*
Y196095D02*
D03*
X48012Y253405D02*
D03*
Y241595D02*
D03*
X36201Y253405D02*
D03*
Y241595D02*
D03*
X36508Y72311D02*
D03*
Y60500D02*
D03*
Y48689D02*
D03*
X48319D02*
D03*
Y60500D02*
D03*
Y72311D02*
D03*
D95*
X105000Y275000D02*
D03*
X95000D02*
D03*
X85000D02*
D03*
X75000D02*
D03*
X65000D02*
D03*
X55000D02*
D03*
X45000D02*
D03*
X35000D02*
D03*
X105000Y285000D02*
D03*
X95000D02*
D03*
X85000D02*
D03*
X75000D02*
D03*
X65000D02*
D03*
X55000D02*
D03*
X45000D02*
D03*
X35000D02*
D03*
D96*
X33142Y4205D02*
D03*
Y29795D02*
D03*
X50858D02*
D03*
Y4205D02*
D03*
D97*
X112000Y16000D02*
D03*
Y21000D02*
D03*
X117000Y16000D02*
D03*
Y21000D02*
D03*
X122000Y16000D02*
D03*
Y21000D02*
D03*
X127000Y16000D02*
D03*
Y21000D02*
D03*
X132000Y16000D02*
D03*
Y21000D02*
D03*
D98*
X71095Y48012D02*
D03*
X82906D02*
D03*
X71095Y36201D02*
D03*
X82906D02*
D03*
D99*
X157500Y284500D02*
D03*
X142500D02*
D03*
X127500D02*
D03*
D100*
X165000Y26500D02*
D03*
Y16500D02*
D03*
Y6500D02*
D03*
D101*
X83000Y262500D02*
D03*
X73265Y84000D02*
D03*
X103000Y122000D02*
D03*
X102000Y131000D02*
D03*
X90500Y117500D02*
D03*
X142290Y118710D02*
D03*
X131500Y97000D02*
D03*
X76000Y125000D02*
D03*
X119500Y122500D02*
D03*
X111000Y73768D02*
D03*
X90500Y125500D02*
D03*
Y104000D02*
D03*
X138000Y124000D02*
D03*
X112500Y112500D02*
D03*
X109000Y108000D02*
D03*
X111000Y79500D02*
D03*
X136097Y136904D02*
D03*
X105500Y103500D02*
D03*
X97000Y132500D02*
D03*
X77122Y105055D02*
D03*
X133500Y92000D02*
D03*
X115977Y117500D02*
D03*
X73500Y100500D02*
D03*
X72000Y115516D02*
D03*
X87000Y58000D02*
D03*
X101000Y50000D02*
D03*
X93000Y46821D02*
D03*
X144500Y34000D02*
D03*
Y20000D02*
D03*
X136500Y50000D02*
D03*
X118000Y67000D02*
D03*
X130000D02*
D03*
X130500Y45000D02*
D03*
X124000Y50000D02*
D03*
X112000D02*
D03*
X118000Y45000D02*
D03*
X56500Y143000D02*
D03*
Y135500D02*
D03*
Y128500D02*
D03*
D102*
X185000Y285000D02*
D03*
X15000D02*
D03*
X185000Y15000D02*
D03*
X15000D02*
D03*
%TF.MD5,242860ebf05a7c5a1d134325df604db4*%
M02*
