%TF.GenerationSoftware,Altium Limited,Altium Designer,20.1.14 (287)*%
G04 Layer_Color=2752767*
%FSLAX25Y25*%
%MOIN*%
%TF.SameCoordinates,EAB65FBB-9CC0-4E70-8F82-B449C0BBF2B7*%
%TF.FilePolarity,Positive*%
%TF.FileFunction,Drawing*%
%TF.Part,Single*%
G01*
G75*
%TA.AperFunction,NonConductor*%
%ADD78C,0.00500*%
%ADD80C,0.00400*%
%ADD104C,0.00667*%
D78*
X103000Y283000D02*
Y287000D01*
X107000D01*
Y283000D01*
X103000D01*
X93000D02*
Y287000D01*
X97000D01*
Y283000D01*
X93000D01*
X83000D02*
Y287000D01*
X87000D01*
Y283000D01*
X83000D01*
X73000D02*
Y287000D01*
X77000D01*
Y283000D01*
X73000D01*
X63000D02*
Y287000D01*
X67000D01*
Y283000D01*
X63000D01*
X53000D02*
Y287000D01*
X57000D01*
Y283000D01*
X53000D01*
X43000D02*
Y287000D01*
X47000D01*
Y283000D01*
X43000D01*
X33000D02*
Y287000D01*
X37000D01*
Y283000D01*
X33000D01*
X103000Y273000D02*
Y277000D01*
X107000D01*
Y273000D01*
X103000D01*
X93000D02*
Y277000D01*
X97000D01*
Y273000D01*
X93000D01*
X83000D02*
Y277000D01*
X87000D01*
Y273000D01*
X83000D01*
X73000D02*
Y277000D01*
X77000D01*
Y273000D01*
X73000D01*
X63000D02*
Y277000D01*
X67000D01*
Y273000D01*
X63000D01*
X53000D02*
Y277000D01*
X57000D01*
Y273000D01*
X53000D01*
X43000D02*
Y277000D01*
X47000D01*
Y273000D01*
X43000D01*
X33000D02*
Y277000D01*
X37000D01*
Y273000D01*
X33000D01*
X19193Y153094D02*
X17193Y157095D01*
X21193D01*
X19193Y153094D01*
X48012Y159000D02*
X49012Y160000D01*
X50012D01*
X49012Y161000D01*
X50012Y162000D01*
X49012D01*
X48012Y163000D01*
X47012Y162000D01*
X46012D01*
X47012Y161000D01*
X46012Y160000D01*
X47012D01*
X48012Y159000D01*
Y147189D02*
X49012Y148189D01*
X50012D01*
X49012Y149189D01*
X50012Y150189D01*
X49012D01*
X48012Y151189D01*
X47012Y150189D01*
X46012D01*
X47012Y149189D01*
X46012Y148189D01*
X47012D01*
X48012Y147189D01*
X36201Y159000D02*
X37201Y160000D01*
X38201D01*
X37201Y161000D01*
X38201Y162000D01*
X37201D01*
X36201Y163000D01*
X35201Y162000D01*
X34201D01*
X35201Y161000D01*
X34201Y160000D01*
X35201D01*
X36201Y159000D01*
Y147189D02*
X37201Y148189D01*
X38201D01*
X37201Y149189D01*
X38201Y150189D01*
X37201D01*
X36201Y151189D01*
X35201Y150189D01*
X34201D01*
X35201Y149189D01*
X34201Y148189D01*
X35201D01*
X36201Y147189D01*
X180500Y72004D02*
X178500Y76004D01*
X182500D01*
X180500Y72004D01*
Y53500D02*
X178500Y57500D01*
X182500D01*
X180500Y53500D01*
X151681Y45035D02*
X152681Y46035D01*
X153681D01*
X152681Y47035D01*
X153681Y48035D01*
X152681D01*
X151681Y49035D01*
X150681Y48035D01*
X149681D01*
X150681Y47035D01*
X149681Y46035D01*
X150681D01*
X151681Y45035D01*
Y56846D02*
X152681Y57846D01*
X153681D01*
X152681Y58846D01*
X153681Y59847D01*
X152681D01*
X151681Y60847D01*
X150681Y59847D01*
X149681D01*
X150681Y58846D01*
X149681Y57846D01*
X150681D01*
X151681Y56846D01*
Y68657D02*
X152681Y69657D01*
X153681D01*
X152681Y70657D01*
X153681Y71658D01*
X152681D01*
X151681Y72658D01*
X150681Y71658D01*
X149681D01*
X150681Y70657D01*
X149681Y69657D01*
X150681D01*
X151681Y68657D01*
Y80468D02*
X152681Y81468D01*
X153681D01*
X152681Y82468D01*
X153681Y83469D01*
X152681D01*
X151681Y84469D01*
X150681Y83469D01*
X149681D01*
X150681Y82468D01*
X149681Y81468D01*
X150681D01*
X151681Y80468D01*
X163492Y45035D02*
X164492Y46035D01*
X165492D01*
X164492Y47035D01*
X165492Y48035D01*
X164492D01*
X163492Y49035D01*
X162492Y48035D01*
X161492D01*
X162492Y47035D01*
X161492Y46035D01*
X162492D01*
X163492Y45035D01*
Y56846D02*
X164492Y57846D01*
X165492D01*
X164492Y58846D01*
X165492Y59847D01*
X164492D01*
X163492Y60847D01*
X162492Y59847D01*
X161492D01*
X162492Y58846D01*
X161492Y57846D01*
X162492D01*
X163492Y56846D01*
Y68657D02*
X164492Y69657D01*
X165492D01*
X164492Y70657D01*
X165492Y71658D01*
X164492D01*
X163492Y72658D01*
X162492Y71658D01*
X161492D01*
X162492Y70657D01*
X161492Y69657D01*
X162492D01*
X163492Y68657D01*
Y80468D02*
X164492Y81468D01*
X165492D01*
X164492Y82468D01*
X165492Y83469D01*
X164492D01*
X163492Y84469D01*
X162492Y83469D01*
X161492D01*
X162492Y82468D01*
X161492Y81468D01*
X162492D01*
X163492Y80468D01*
X31142Y2205D02*
X32142Y4205D01*
X31142Y6205D01*
X33142Y5205D01*
X35142Y6205D01*
X34142Y4205D01*
X35142Y2205D01*
X33142Y3205D01*
X31142Y2205D01*
Y27795D02*
X32142Y29795D01*
X31142Y31795D01*
X33142Y30795D01*
X35142Y31795D01*
X34142Y29795D01*
X35142Y27795D01*
X33142Y28795D01*
X31142Y27795D01*
X48858D02*
X49858Y29795D01*
X48858Y31795D01*
X50858Y30795D01*
X52858Y31795D01*
X51858Y29795D01*
X52858Y27795D01*
X50858Y28795D01*
X48858Y27795D01*
Y2205D02*
X49858Y4205D01*
X48858Y6205D01*
X50858Y5205D01*
X52858Y6205D01*
X51858Y4205D01*
X52858Y2205D01*
X50858Y3205D01*
X48858Y2205D01*
X180500Y231000D02*
X178500Y235000D01*
X182500D01*
X180500Y231000D01*
X151681Y225095D02*
X152681Y226095D01*
X153681D01*
X152681Y227095D01*
X153681Y228095D01*
X152681D01*
X151681Y229095D01*
X150681Y228095D01*
X149681D01*
X150681Y227095D01*
X149681Y226095D01*
X150681D01*
X151681Y225095D01*
Y236906D02*
X152681Y237906D01*
X153681D01*
X152681Y238906D01*
X153681Y239906D01*
X152681D01*
X151681Y240905D01*
X150681Y239906D01*
X149681D01*
X150681Y238906D01*
X149681Y237906D01*
X150681D01*
X151681Y236906D01*
X163492Y225095D02*
X164492Y226095D01*
X165492D01*
X164492Y227095D01*
X165492Y228095D01*
X164492D01*
X163492Y229095D01*
X162492Y228095D01*
X161492D01*
X162492Y227095D01*
X161492Y226095D01*
X162492D01*
X163492Y225095D01*
Y236906D02*
X164492Y237906D01*
X165492D01*
X164492Y238906D01*
X165492Y239906D01*
X164492D01*
X163492Y240905D01*
X162492Y239906D01*
X161492D01*
X162492Y238906D01*
X161492Y237906D01*
X162492D01*
X163492Y236906D01*
X180500Y178500D02*
X178500Y182500D01*
X182500D01*
X180500Y178500D01*
X151681Y172594D02*
X152681Y173594D01*
X153681D01*
X152681Y174594D01*
X153681Y175594D01*
X152681D01*
X151681Y176594D01*
X150681Y175594D01*
X149681D01*
X150681Y174594D01*
X149681Y173594D01*
X150681D01*
X151681Y172594D01*
Y184406D02*
X152681Y185406D01*
X153681D01*
X152681Y186406D01*
X153681Y187406D01*
X152681D01*
X151681Y188406D01*
X150681Y187406D01*
X149681D01*
X150681Y186406D01*
X149681Y185406D01*
X150681D01*
X151681Y184406D01*
X163492Y172594D02*
X164492Y173594D01*
X165492D01*
X164492Y174594D01*
X165492Y175594D01*
X164492D01*
X163492Y176594D01*
X162492Y175594D01*
X161492D01*
X162492Y174594D01*
X161492Y173594D01*
X162492D01*
X163492Y172594D01*
Y184406D02*
X164492Y185406D01*
X165492D01*
X164492Y186406D01*
X165492Y187406D01*
X164492D01*
X163492Y188406D01*
X162492Y187406D01*
X161492D01*
X162492Y186406D01*
X161492Y185406D01*
X162492D01*
X163492Y184406D01*
X180500Y125500D02*
X178500Y129500D01*
X182500D01*
X180500Y125500D01*
X151681Y119595D02*
X152681Y120595D01*
X153681D01*
X152681Y121595D01*
X153681Y122594D01*
X152681D01*
X151681Y123594D01*
X150681Y122594D01*
X149681D01*
X150681Y121595D01*
X149681Y120595D01*
X150681D01*
X151681Y119595D01*
Y131405D02*
X152681Y132405D01*
X153681D01*
X152681Y133405D01*
X153681Y134406D01*
X152681D01*
X151681Y135406D01*
X150681Y134406D01*
X149681D01*
X150681Y133405D01*
X149681Y132405D01*
X150681D01*
X151681Y131405D01*
X163492Y119595D02*
X164492Y120595D01*
X165492D01*
X164492Y121595D01*
X165492Y122594D01*
X164492D01*
X163492Y123594D01*
X162492Y122594D01*
X161492D01*
X162492Y121595D01*
X161492Y120595D01*
X162492D01*
X163492Y119595D01*
Y131405D02*
X164492Y132405D01*
X165492D01*
X164492Y133405D01*
X165492Y134406D01*
X164492D01*
X163492Y135406D01*
X162492Y134406D01*
X161492D01*
X162492Y133405D01*
X161492Y132405D01*
X162492D01*
X163492Y131405D01*
X19193Y109000D02*
X17193Y113000D01*
X21193D01*
X19193Y109000D01*
X48012Y114906D02*
X49012Y115905D01*
X50012D01*
X49012Y116905D01*
X50012Y117905D01*
X49012D01*
X48012Y118905D01*
X47012Y117905D01*
X46012D01*
X47012Y116905D01*
X46012Y115905D01*
X47012D01*
X48012Y114906D01*
Y103094D02*
X49012Y104095D01*
X50012D01*
X49012Y105095D01*
X50012Y106095D01*
X49012D01*
X48012Y107095D01*
X47012Y106095D01*
X46012D01*
X47012Y105095D01*
X46012Y104095D01*
X47012D01*
X48012Y103094D01*
X36201Y114906D02*
X37201Y115905D01*
X38201D01*
X37201Y116905D01*
X38201Y117905D01*
X37201D01*
X36201Y118905D01*
X35201Y117905D01*
X34201D01*
X35201Y116905D01*
X34201Y115905D01*
X35201D01*
X36201Y114906D01*
Y103094D02*
X37201Y104095D01*
X38201D01*
X37201Y105095D01*
X38201Y106095D01*
X37201D01*
X36201Y107095D01*
X35201Y106095D01*
X34201D01*
X35201Y105095D01*
X34201Y104095D01*
X35201D01*
X36201Y103094D01*
X19193Y200000D02*
X17193Y204000D01*
X21193D01*
X19193Y200000D01*
X48012Y205906D02*
X49012Y206906D01*
X50012D01*
X49012Y207906D01*
X50012Y208906D01*
X49012D01*
X48012Y209906D01*
X47012Y208906D01*
X46012D01*
X47012Y207906D01*
X46012Y206906D01*
X47012D01*
X48012Y205906D01*
Y194095D02*
X49012Y195095D01*
X50012D01*
X49012Y196095D01*
X50012Y197095D01*
X49012D01*
X48012Y198094D01*
X47012Y197095D01*
X46012D01*
X47012Y196095D01*
X46012Y195095D01*
X47012D01*
X48012Y194095D01*
X36201Y205906D02*
X37201Y206906D01*
X38201D01*
X37201Y207906D01*
X38201Y208906D01*
X37201D01*
X36201Y209906D01*
X35201Y208906D01*
X34201D01*
X35201Y207906D01*
X34201Y206906D01*
X35201D01*
X36201Y205906D01*
Y194095D02*
X37201Y195095D01*
X38201D01*
X37201Y196095D01*
X38201Y197095D01*
X37201D01*
X36201Y198094D01*
X35201Y197095D01*
X34201D01*
X35201Y196095D01*
X34201Y195095D01*
X35201D01*
X36201Y194095D01*
X111000Y15000D02*
Y14000D01*
X113000D01*
Y15000D01*
X114000D01*
Y17000D01*
X113000D01*
Y18000D01*
X111000D01*
Y17000D01*
X110000D01*
Y15000D01*
X111000D01*
Y20000D02*
Y19000D01*
X113000D01*
Y20000D01*
X114000D01*
Y22000D01*
X113000D01*
Y23000D01*
X111000D01*
Y22000D01*
X110000D01*
Y20000D01*
X111000D01*
X116000Y15000D02*
Y14000D01*
X118000D01*
Y15000D01*
X119000D01*
Y17000D01*
X118000D01*
Y18000D01*
X116000D01*
Y17000D01*
X115000D01*
Y15000D01*
X116000D01*
Y20000D02*
Y19000D01*
X118000D01*
Y20000D01*
X119000D01*
Y22000D01*
X118000D01*
Y23000D01*
X116000D01*
Y22000D01*
X115000D01*
Y20000D01*
X116000D01*
X121000Y15000D02*
Y14000D01*
X123000D01*
Y15000D01*
X124000D01*
Y17000D01*
X123000D01*
Y18000D01*
X121000D01*
Y17000D01*
X120000D01*
Y15000D01*
X121000D01*
Y20000D02*
Y19000D01*
X123000D01*
Y20000D01*
X124000D01*
Y22000D01*
X123000D01*
Y23000D01*
X121000D01*
Y22000D01*
X120000D01*
Y20000D01*
X121000D01*
X126000Y15000D02*
Y14000D01*
X128000D01*
Y15000D01*
X129000D01*
Y17000D01*
X128000D01*
Y18000D01*
X126000D01*
Y17000D01*
X125000D01*
Y15000D01*
X126000D01*
Y20000D02*
Y19000D01*
X128000D01*
Y20000D01*
X129000D01*
Y22000D01*
X128000D01*
Y23000D01*
X126000D01*
Y22000D01*
X125000D01*
Y20000D01*
X126000D01*
X131000Y15000D02*
Y14000D01*
X133000D01*
Y15000D01*
X134000D01*
Y17000D01*
X133000D01*
Y18000D01*
X131000D01*
Y17000D01*
X130000D01*
Y15000D01*
X131000D01*
Y20000D02*
Y19000D01*
X133000D01*
Y20000D01*
X134000D01*
Y22000D01*
X133000D01*
Y23000D01*
X131000D01*
Y22000D01*
X130000D01*
Y20000D01*
X131000D01*
X19193Y245500D02*
X17193Y249500D01*
X21193D01*
X19193Y245500D01*
X48012Y251406D02*
X49012Y252406D01*
X50012D01*
X49012Y253405D01*
X50012Y254405D01*
X49012D01*
X48012Y255405D01*
X47012Y254405D01*
X46012D01*
X47012Y253405D01*
X46012Y252406D01*
X47012D01*
X48012Y251406D01*
Y239595D02*
X49012Y240595D01*
X50012D01*
X49012Y241595D01*
X50012Y242595D01*
X49012D01*
X48012Y243595D01*
X47012Y242595D01*
X46012D01*
X47012Y241595D01*
X46012Y240595D01*
X47012D01*
X48012Y239595D01*
X36201Y251406D02*
X37201Y252406D01*
X38201D01*
X37201Y253405D01*
X38201Y254405D01*
X37201D01*
X36201Y255405D01*
X35201Y254405D01*
X34201D01*
X35201Y253405D01*
X34201Y252406D01*
X35201D01*
X36201Y251406D01*
Y239595D02*
X37201Y240595D01*
X38201D01*
X37201Y241595D01*
X38201Y242595D01*
X37201D01*
X36201Y243595D01*
X35201Y242595D01*
X34201D01*
X35201Y241595D01*
X34201Y240595D01*
X35201D01*
X36201Y239595D01*
X77000Y17193D02*
X75000Y21193D01*
X79000D01*
X77000Y17193D01*
X71095Y46012D02*
X72095Y47012D01*
X73094D01*
X72095Y48012D01*
X73094Y49012D01*
X72095D01*
X71095Y50012D01*
X70095Y49012D01*
X69095D01*
X70095Y48012D01*
X69095Y47012D01*
X70095D01*
X71095Y46012D01*
X82906D02*
X83906Y47012D01*
X84905D01*
X83906Y48012D01*
X84905Y49012D01*
X83906D01*
X82906Y50012D01*
X81906Y49012D01*
X80905D01*
X81906Y48012D01*
X80905Y47012D01*
X81906D01*
X82906Y46012D01*
X71095Y34201D02*
X72095Y35201D01*
X73094D01*
X72095Y36201D01*
X73094Y37201D01*
X72095D01*
X71095Y38201D01*
X70095Y37201D01*
X69095D01*
X70095Y36201D01*
X69095Y35201D01*
X70095D01*
X71095Y34201D01*
X82906D02*
X83906Y35201D01*
X84905D01*
X83906Y36201D01*
X84905Y37201D01*
X83906D01*
X82906Y38201D01*
X81906Y37201D01*
X80905D01*
X81906Y36201D01*
X80905Y35201D01*
X81906D01*
X82906Y34201D01*
X155500Y282500D02*
X156500D01*
X157500Y283500D01*
X158500Y282500D01*
X159500D01*
Y283500D01*
X158500Y284500D01*
X159500Y285500D01*
Y286500D01*
X158500D01*
X157500Y285500D01*
X156500Y286500D01*
X155500D01*
Y285500D01*
X156500Y284500D01*
X155500Y283500D01*
Y282500D01*
X140500D02*
X141500D01*
X142500Y283500D01*
X143500Y282500D01*
X144500D01*
Y283500D01*
X143500Y284500D01*
X144500Y285500D01*
Y286500D01*
X143500D01*
X142500Y285500D01*
X141500Y286500D01*
X140500D01*
Y285500D01*
X141500Y284500D01*
X140500Y283500D01*
Y282500D01*
X125500D02*
X126500D01*
X127500Y283500D01*
X128500Y282500D01*
X129500D01*
Y283500D01*
X128500Y284500D01*
X129500Y285500D01*
Y286500D01*
X128500D01*
X127500Y285500D01*
X126500Y286500D01*
X125500D01*
Y285500D01*
X126500Y284500D01*
X125500Y283500D01*
Y282500D01*
X36508Y70311D02*
X37508Y71311D01*
X38508D01*
X37508Y72311D01*
X38508Y73311D01*
X37508D01*
X36508Y74311D01*
X35508Y73311D01*
X34508D01*
X35508Y72311D01*
X34508Y71311D01*
X35508D01*
X36508Y70311D01*
Y58500D02*
X37508Y59500D01*
X38508D01*
X37508Y60500D01*
X38508Y61500D01*
X37508D01*
X36508Y62500D01*
X35508Y61500D01*
X34508D01*
X35508Y60500D01*
X34508Y59500D01*
X35508D01*
X36508Y58500D01*
Y46689D02*
X37508Y47689D01*
X38508D01*
X37508Y48689D01*
X38508Y49689D01*
X37508D01*
X36508Y50689D01*
X35508Y49689D01*
X34508D01*
X35508Y48689D01*
X34508Y47689D01*
X35508D01*
X36508Y46689D01*
X48319D02*
X49319Y47689D01*
X50319D01*
X49319Y48689D01*
X50319Y49689D01*
X49319D01*
X48319Y50689D01*
X47319Y49689D01*
X46319D01*
X47319Y48689D01*
X46319Y47689D01*
X47319D01*
X48319Y46689D01*
Y58500D02*
X49319Y59500D01*
X50319D01*
X49319Y60500D01*
X50319Y61500D01*
X49319D01*
X48319Y62500D01*
X47319Y61500D01*
X46319D01*
X47319Y60500D01*
X46319Y59500D01*
X47319D01*
X48319Y58500D01*
Y70311D02*
X49319Y71311D01*
X50319D01*
X49319Y72311D01*
X50319Y73311D01*
X49319D01*
X48319Y74311D01*
X47319Y73311D01*
X46319D01*
X47319Y72311D01*
X46319Y71311D01*
X47319D01*
X48319Y70311D01*
X17500Y60500D02*
X19500Y62500D01*
X21500Y60500D01*
X19500Y58500D01*
X17500Y60500D01*
X163000Y24500D02*
Y28500D01*
X167000D01*
Y24500D01*
X163000D01*
X163800Y25300D02*
Y27700D01*
X166200D01*
Y25300D01*
X163800D01*
X163000Y14500D02*
Y18500D01*
X167000D01*
Y14500D01*
X163000D01*
X163800Y15300D02*
Y17700D01*
X166200D01*
Y15300D01*
X163800D01*
X163000Y4500D02*
Y8500D01*
X167000D01*
Y4500D01*
X163000D01*
X163800Y5300D02*
Y7700D01*
X166200D01*
Y5300D01*
X163800D01*
X185000Y283000D02*
X183000Y287000D01*
X187000D01*
X185000Y283000D01*
Y283800D02*
X183800Y286200D01*
X186200D01*
X185000Y283800D01*
X15000Y283000D02*
X13000Y287000D01*
X17000D01*
X15000Y283000D01*
Y283800D02*
X13800Y286200D01*
X16200D01*
X15000Y283800D01*
X185000Y13000D02*
X183000Y17000D01*
X187000D01*
X185000Y13000D01*
Y13800D02*
X183800Y16200D01*
X186200D01*
X185000Y13800D01*
X15000Y13000D02*
X13000Y17000D01*
X17000D01*
X15000Y13000D01*
Y13800D02*
X13800Y16200D01*
X16200D01*
X15000Y13800D01*
D80*
X84200Y262500D02*
G03*
X84200Y262500I-1200J0D01*
G01*
X74465Y84000D02*
G03*
X74465Y84000I-1200J0D01*
G01*
X104200Y122000D02*
G03*
X104200Y122000I-1200J0D01*
G01*
X103200Y131000D02*
G03*
X103200Y131000I-1200J0D01*
G01*
X91700Y117500D02*
G03*
X91700Y117500I-1200J0D01*
G01*
X143490Y118710D02*
G03*
X143490Y118710I-1200J0D01*
G01*
X132700Y97000D02*
G03*
X132700Y97000I-1200J0D01*
G01*
X77200Y125000D02*
G03*
X77200Y125000I-1200J0D01*
G01*
X120700Y122500D02*
G03*
X120700Y122500I-1200J0D01*
G01*
X112200Y73768D02*
G03*
X112200Y73768I-1200J0D01*
G01*
X91700Y125500D02*
G03*
X91700Y125500I-1200J0D01*
G01*
Y104000D02*
G03*
X91700Y104000I-1200J0D01*
G01*
X139200Y124000D02*
G03*
X139200Y124000I-1200J0D01*
G01*
X113700Y112500D02*
G03*
X113700Y112500I-1200J0D01*
G01*
X110200Y108000D02*
G03*
X110200Y108000I-1200J0D01*
G01*
X112200Y79500D02*
G03*
X112200Y79500I-1200J0D01*
G01*
X137296Y136904D02*
G03*
X137296Y136904I-1200J0D01*
G01*
X106700Y103500D02*
G03*
X106700Y103500I-1200J0D01*
G01*
X98200Y132500D02*
G03*
X98200Y132500I-1200J0D01*
G01*
X78322Y105055D02*
G03*
X78322Y105055I-1200J0D01*
G01*
X134700Y92000D02*
G03*
X134700Y92000I-1200J0D01*
G01*
X117177Y117500D02*
G03*
X117177Y117500I-1200J0D01*
G01*
X74700Y100500D02*
G03*
X74700Y100500I-1200J0D01*
G01*
X73200Y115516D02*
G03*
X73200Y115516I-1200J0D01*
G01*
X88200Y58000D02*
G03*
X88200Y58000I-1200J0D01*
G01*
X102200Y50000D02*
G03*
X102200Y50000I-1200J0D01*
G01*
X94200Y46821D02*
G03*
X94200Y46821I-1200J0D01*
G01*
X145700Y34000D02*
G03*
X145700Y34000I-1200J0D01*
G01*
Y20000D02*
G03*
X145700Y20000I-1200J0D01*
G01*
X137700Y50000D02*
G03*
X137700Y50000I-1200J0D01*
G01*
X119200Y67000D02*
G03*
X119200Y67000I-1200J0D01*
G01*
X131200D02*
G03*
X131200Y67000I-1200J0D01*
G01*
X131700Y45000D02*
G03*
X131700Y45000I-1200J0D01*
G01*
X125200Y50000D02*
G03*
X125200Y50000I-1200J0D01*
G01*
X113200D02*
G03*
X113200Y50000I-1200J0D01*
G01*
X119200Y45000D02*
G03*
X119200Y45000I-1200J0D01*
G01*
X57700Y143000D02*
G03*
X57700Y143000I-1200J0D01*
G01*
Y135500D02*
G03*
X57700Y135500I-1200J0D01*
G01*
Y128500D02*
G03*
X57700Y128500I-1200J0D01*
G01*
D104*
X132000Y250000D02*
G03*
X132000Y250000I-2000J0D01*
G01*
X122000D02*
G03*
X122000Y250000I-2000J0D01*
G01*
X112000D02*
G03*
X112000Y250000I-2000J0D01*
G01*
X62000Y190000D02*
G03*
X62000Y190000I-2000J0D01*
G01*
Y170000D02*
G03*
X62000Y170000I-2000J0D01*
G01*
Y180000D02*
G03*
X62000Y180000I-2000J0D01*
G01*
X99500Y103500D02*
G03*
X99500Y103500I-2000J0D01*
G01*
Y111500D02*
G03*
X99500Y111500I-2000J0D01*
G01*
X142000Y190000D02*
G03*
X142000Y190000I-2000J0D01*
G01*
Y180000D02*
G03*
X142000Y180000I-2000J0D01*
G01*
Y170000D02*
G03*
X142000Y170000I-2000J0D01*
G01*
Y200000D02*
G03*
X142000Y200000I-2000J0D01*
G01*
Y230000D02*
G03*
X142000Y230000I-2000J0D01*
G01*
X122000Y170000D02*
G03*
X122000Y170000I-2000J0D01*
G01*
X132000D02*
G03*
X132000Y170000I-2000J0D01*
G01*
X142000Y210000D02*
G03*
X142000Y210000I-2000J0D01*
G01*
Y220000D02*
G03*
X142000Y220000I-2000J0D01*
G01*
X112000Y170000D02*
G03*
X112000Y170000I-2000J0D01*
G01*
X102000D02*
G03*
X102000Y170000I-2000J0D01*
G01*
X92000D02*
G03*
X92000Y170000I-2000J0D01*
G01*
X82000D02*
G03*
X82000Y170000I-2000J0D01*
G01*
X72000D02*
G03*
X72000Y170000I-2000J0D01*
G01*
X62000Y210000D02*
G03*
X62000Y210000I-2000J0D01*
G01*
X102000Y250000D02*
G03*
X102000Y250000I-2000J0D01*
G01*
X92000D02*
G03*
X92000Y250000I-2000J0D01*
G01*
X82000D02*
G03*
X82000Y250000I-2000J0D01*
G01*
X132000Y240000D02*
G03*
X132000Y240000I-2000J0D01*
G01*
X122000D02*
G03*
X122000Y240000I-2000J0D01*
G01*
X112000D02*
G03*
X112000Y240000I-2000J0D01*
G01*
X102000D02*
G03*
X102000Y240000I-2000J0D01*
G01*
X92000D02*
G03*
X92000Y240000I-2000J0D01*
G01*
X82000D02*
G03*
X82000Y240000I-2000J0D01*
G01*
X112000Y230000D02*
G03*
X112000Y230000I-2000J0D01*
G01*
X102000D02*
G03*
X102000Y230000I-2000J0D01*
G01*
X92000D02*
G03*
X92000Y230000I-2000J0D01*
G01*
X82000D02*
G03*
X82000Y230000I-2000J0D01*
G01*
X72000D02*
G03*
X72000Y230000I-2000J0D01*
G01*
X62000Y220000D02*
G03*
X62000Y220000I-2000J0D01*
G01*
X72000Y190000D02*
G03*
X72000Y190000I-2000J0D01*
G01*
X82000Y220000D02*
G03*
X82000Y220000I-2000J0D01*
G01*
X72000D02*
G03*
X72000Y220000I-2000J0D01*
G01*
X142000Y250000D02*
G03*
X142000Y250000I-2000J0D01*
G01*
X92000Y190000D02*
G03*
X92000Y190000I-2000J0D01*
G01*
X82000Y180000D02*
G03*
X82000Y180000I-2000J0D01*
G01*
X122000Y230000D02*
G03*
X122000Y230000I-2000J0D01*
G01*
X132000D02*
G03*
X132000Y230000I-2000J0D01*
G01*
X142000Y240000D02*
G03*
X142000Y240000I-2000J0D01*
G01*
X92000Y180000D02*
G03*
X92000Y180000I-2000J0D01*
G01*
X72000Y210000D02*
G03*
X72000Y210000I-2000J0D01*
G01*
X132000Y220000D02*
G03*
X132000Y220000I-2000J0D01*
G01*
X122000D02*
G03*
X122000Y220000I-2000J0D01*
G01*
X112000D02*
G03*
X112000Y220000I-2000J0D01*
G01*
X102000D02*
G03*
X102000Y220000I-2000J0D01*
G01*
X92000D02*
G03*
X92000Y220000I-2000J0D01*
G01*
X132000Y210000D02*
G03*
X132000Y210000I-2000J0D01*
G01*
X122000D02*
G03*
X122000Y210000I-2000J0D01*
G01*
X112000D02*
G03*
X112000Y210000I-2000J0D01*
G01*
X102000D02*
G03*
X102000Y210000I-2000J0D01*
G01*
X92000D02*
G03*
X92000Y210000I-2000J0D01*
G01*
X82000D02*
G03*
X82000Y210000I-2000J0D01*
G01*
X122000Y200000D02*
G03*
X122000Y200000I-2000J0D01*
G01*
X112000D02*
G03*
X112000Y200000I-2000J0D01*
G01*
X102000D02*
G03*
X102000Y200000I-2000J0D01*
G01*
X92000D02*
G03*
X92000Y200000I-2000J0D01*
G01*
X82000D02*
G03*
X82000Y200000I-2000J0D01*
G01*
X72000D02*
G03*
X72000Y200000I-2000J0D01*
G01*
Y250000D02*
G03*
X72000Y250000I-2000J0D01*
G01*
X102000Y190000D02*
G03*
X102000Y190000I-2000J0D01*
G01*
X72000Y180000D02*
G03*
X72000Y180000I-2000J0D01*
G01*
X132000D02*
G03*
X132000Y180000I-2000J0D01*
G01*
X122000D02*
G03*
X122000Y180000I-2000J0D01*
G01*
X112000D02*
G03*
X112000Y180000I-2000J0D01*
G01*
X102000D02*
G03*
X102000Y180000I-2000J0D01*
G01*
X72000Y240000D02*
G03*
X72000Y240000I-2000J0D01*
G01*
X82000Y190000D02*
G03*
X82000Y190000I-2000J0D01*
G01*
X62000Y200000D02*
G03*
X62000Y200000I-2000J0D01*
G01*
X132000D02*
G03*
X132000Y200000I-2000J0D01*
G01*
X62000Y230000D02*
G03*
X62000Y230000I-2000J0D01*
G01*
X112000Y190000D02*
G03*
X112000Y190000I-2000J0D01*
G01*
X132000D02*
G03*
X132000Y190000I-2000J0D01*
G01*
X122000D02*
G03*
X122000Y190000I-2000J0D01*
G01*
X62000Y240000D02*
G03*
X62000Y240000I-2000J0D01*
G01*
Y250000D02*
G03*
X62000Y250000I-2000J0D01*
G01*
X85000Y262500D02*
G03*
X85000Y262500I-2000J0D01*
G01*
X75265Y84000D02*
G03*
X75265Y84000I-2000J0D01*
G01*
X105000Y122000D02*
G03*
X105000Y122000I-2000J0D01*
G01*
X104000Y131000D02*
G03*
X104000Y131000I-2000J0D01*
G01*
X92500Y117500D02*
G03*
X92500Y117500I-2000J0D01*
G01*
X144290Y118710D02*
G03*
X144290Y118710I-2000J0D01*
G01*
X133500Y97000D02*
G03*
X133500Y97000I-2000J0D01*
G01*
X78000Y125000D02*
G03*
X78000Y125000I-2000J0D01*
G01*
X121500Y122500D02*
G03*
X121500Y122500I-2000J0D01*
G01*
X113000Y73768D02*
G03*
X113000Y73768I-2000J0D01*
G01*
X92500Y125500D02*
G03*
X92500Y125500I-2000J0D01*
G01*
Y104000D02*
G03*
X92500Y104000I-2000J0D01*
G01*
X140000Y124000D02*
G03*
X140000Y124000I-2000J0D01*
G01*
X114500Y112500D02*
G03*
X114500Y112500I-2000J0D01*
G01*
X111000Y108000D02*
G03*
X111000Y108000I-2000J0D01*
G01*
X113000Y79500D02*
G03*
X113000Y79500I-2000J0D01*
G01*
X138096Y136904D02*
G03*
X138096Y136904I-2000J0D01*
G01*
X107500Y103500D02*
G03*
X107500Y103500I-2000J0D01*
G01*
X99000Y132500D02*
G03*
X99000Y132500I-2000J0D01*
G01*
X79122Y105055D02*
G03*
X79122Y105055I-2000J0D01*
G01*
X135500Y92000D02*
G03*
X135500Y92000I-2000J0D01*
G01*
X117977Y117500D02*
G03*
X117977Y117500I-2000J0D01*
G01*
X75500Y100500D02*
G03*
X75500Y100500I-2000J0D01*
G01*
X74000Y115516D02*
G03*
X74000Y115516I-2000J0D01*
G01*
X89000Y58000D02*
G03*
X89000Y58000I-2000J0D01*
G01*
X103000Y50000D02*
G03*
X103000Y50000I-2000J0D01*
G01*
X95000Y46821D02*
G03*
X95000Y46821I-2000J0D01*
G01*
X146500Y34000D02*
G03*
X146500Y34000I-2000J0D01*
G01*
Y20000D02*
G03*
X146500Y20000I-2000J0D01*
G01*
X138500Y50000D02*
G03*
X138500Y50000I-2000J0D01*
G01*
X120000Y67000D02*
G03*
X120000Y67000I-2000J0D01*
G01*
X132000D02*
G03*
X132000Y67000I-2000J0D01*
G01*
X132500Y45000D02*
G03*
X132500Y45000I-2000J0D01*
G01*
X126000Y50000D02*
G03*
X126000Y50000I-2000J0D01*
G01*
X114000D02*
G03*
X114000Y50000I-2000J0D01*
G01*
X120000Y45000D02*
G03*
X120000Y45000I-2000J0D01*
G01*
X58500Y143000D02*
G03*
X58500Y143000I-2000J0D01*
G01*
Y135500D02*
G03*
X58500Y135500I-2000J0D01*
G01*
Y128500D02*
G03*
X58500Y128500I-2000J0D01*
G01*
%TF.MD5,97f50583ea2c76caf906210c680e4273*%
M02*
