%TF.GenerationSoftware,Altium Limited,Altium Designer,20.1.14 (287)*%
G04 Layer_Color=255*
%FSLAX25Y25*%
%MOIN*%
%TF.SameCoordinates,EAB65FBB-9CC0-4E70-8F82-B449C0BBF2B7*%
%TF.FilePolarity,Positive*%
%TF.FileFunction,Pads,Bot*%
%TF.Part,Single*%
G01*
G75*
%TA.AperFunction,SMDPad,CuDef*%
%ADD10R,0.05512X0.04134*%
%TA.AperFunction,ComponentPad*%
%ADD16C,0.06102*%
%ADD17R,0.06102X0.06102*%
%ADD18C,0.06000*%
%ADD19C,0.12008*%
%ADD20C,0.06319*%
%ADD21R,0.06319X0.06319*%
%ADD22C,0.06378*%
%ADD23C,0.05898*%
%ADD24R,0.04000X0.04000*%
%ADD25C,0.04000*%
%ADD26R,0.06319X0.06319*%
%ADD27R,0.06496X0.06496*%
%ADD28C,0.06496*%
%ADD29C,0.06417*%
%ADD30R,0.05906X0.05906*%
%ADD31C,0.05906*%
%TA.AperFunction,SMDPad,CuDef*%
%ADD34R,0.03937X0.06299*%
%ADD35R,0.01181X0.06496*%
%ADD36R,0.06496X0.01181*%
%ADD37R,0.05118X0.08268*%
%ADD38R,0.02362X0.05906*%
%ADD39R,0.04134X0.05512*%
%ADD40R,0.08500X0.10799*%
D10*
X63000Y40520D02*
D03*
Y48000D02*
D03*
X136500Y33760D02*
D03*
Y41240D02*
D03*
X112000Y33500D02*
D03*
Y40980D02*
D03*
X101000Y33500D02*
D03*
Y40980D02*
D03*
X124000Y33500D02*
D03*
Y40980D02*
D03*
X104500Y21000D02*
D03*
Y13520D02*
D03*
X93000Y33410D02*
D03*
Y40890D02*
D03*
X152500Y114091D02*
D03*
Y106610D02*
D03*
X115500Y157890D02*
D03*
Y150409D02*
D03*
D16*
X105000Y285000D02*
D03*
X95000D02*
D03*
X85000D02*
D03*
X75000D02*
D03*
X65000D02*
D03*
X55000D02*
D03*
X45000D02*
D03*
X35000D02*
D03*
X105000Y275000D02*
D03*
X95000D02*
D03*
X85000D02*
D03*
X75000D02*
D03*
X65000D02*
D03*
X55000D02*
D03*
X45000D02*
D03*
D17*
X35000D02*
D03*
D18*
X130000Y250000D02*
D03*
X120000D02*
D03*
X110000D02*
D03*
X60000Y190000D02*
D03*
Y170000D02*
D03*
Y180000D02*
D03*
X97500Y103500D02*
D03*
Y111500D02*
D03*
X140000Y190000D02*
D03*
Y180000D02*
D03*
Y170000D02*
D03*
Y200000D02*
D03*
Y230000D02*
D03*
X120000Y170000D02*
D03*
X130000D02*
D03*
X140000Y210000D02*
D03*
Y220000D02*
D03*
X110000Y170000D02*
D03*
X100000D02*
D03*
X90000D02*
D03*
X80000D02*
D03*
X70000D02*
D03*
X60000Y210000D02*
D03*
X100000Y250000D02*
D03*
X90000D02*
D03*
X80000D02*
D03*
X130000Y240000D02*
D03*
X120000D02*
D03*
X110000D02*
D03*
X100000D02*
D03*
X90000D02*
D03*
X80000D02*
D03*
X110000Y230000D02*
D03*
X100000D02*
D03*
X90000D02*
D03*
X80000D02*
D03*
X70000D02*
D03*
X60000Y220000D02*
D03*
X70000Y190000D02*
D03*
X80000Y220000D02*
D03*
X70000D02*
D03*
X140000Y250000D02*
D03*
X90000Y190000D02*
D03*
X80000Y180000D02*
D03*
X120000Y230000D02*
D03*
X130000D02*
D03*
X140000Y240000D02*
D03*
X90000Y180000D02*
D03*
X70000Y210000D02*
D03*
X130000Y220000D02*
D03*
X120000D02*
D03*
X110000D02*
D03*
X100000D02*
D03*
X90000D02*
D03*
X130000Y210000D02*
D03*
X120000D02*
D03*
X110000D02*
D03*
X100000D02*
D03*
X90000D02*
D03*
X80000D02*
D03*
X120000Y200000D02*
D03*
X110000D02*
D03*
X100000D02*
D03*
X90000D02*
D03*
X80000D02*
D03*
X70000D02*
D03*
Y250000D02*
D03*
X100000Y190000D02*
D03*
X70000Y180000D02*
D03*
X130000D02*
D03*
X120000D02*
D03*
X110000D02*
D03*
X100000D02*
D03*
X70000Y240000D02*
D03*
X80000Y190000D02*
D03*
X60000Y200000D02*
D03*
X130000D02*
D03*
X60000Y230000D02*
D03*
X110000Y190000D02*
D03*
X130000D02*
D03*
X120000D02*
D03*
X60000Y240000D02*
D03*
Y250000D02*
D03*
D19*
X19193Y155095D02*
D03*
X180500Y74004D02*
D03*
Y55500D02*
D03*
Y233000D02*
D03*
Y180500D02*
D03*
Y127500D02*
D03*
X19193Y111000D02*
D03*
Y202000D02*
D03*
Y247500D02*
D03*
X77000Y19193D02*
D03*
D20*
X48012Y161000D02*
D03*
Y149189D02*
D03*
X36201Y161000D02*
D03*
X151681Y227095D02*
D03*
Y238906D02*
D03*
X163492Y227095D02*
D03*
X151681Y174594D02*
D03*
Y186406D02*
D03*
X163492Y174594D02*
D03*
X151681Y121595D02*
D03*
Y133405D02*
D03*
X163492Y121595D02*
D03*
X48012Y116905D02*
D03*
Y105095D02*
D03*
X36201Y116905D02*
D03*
X48012Y207906D02*
D03*
Y196095D02*
D03*
X36201Y207906D02*
D03*
X48012Y253405D02*
D03*
Y241595D02*
D03*
X36201Y253405D02*
D03*
X71095Y48012D02*
D03*
X82906D02*
D03*
X71095Y36201D02*
D03*
D21*
X36201Y149189D02*
D03*
X163492Y238906D02*
D03*
Y186406D02*
D03*
Y133405D02*
D03*
X36201Y105095D02*
D03*
Y196095D02*
D03*
Y241595D02*
D03*
D22*
X151681Y47035D02*
D03*
Y58846D02*
D03*
Y70657D02*
D03*
Y82468D02*
D03*
X163492Y47035D02*
D03*
Y58846D02*
D03*
Y70657D02*
D03*
Y82468D02*
D03*
D23*
X33142Y4205D02*
D03*
Y29795D02*
D03*
X50858D02*
D03*
Y4205D02*
D03*
D24*
X112000Y16000D02*
D03*
D25*
Y21000D02*
D03*
X117000Y16000D02*
D03*
Y21000D02*
D03*
X122000Y16000D02*
D03*
Y21000D02*
D03*
X127000Y16000D02*
D03*
Y21000D02*
D03*
X132000Y16000D02*
D03*
Y21000D02*
D03*
D26*
X82906Y36201D02*
D03*
D27*
X157500Y284500D02*
D03*
D28*
X142500D02*
D03*
X127500D02*
D03*
D29*
X36508Y72311D02*
D03*
Y60500D02*
D03*
Y48689D02*
D03*
X48319D02*
D03*
Y60500D02*
D03*
Y72311D02*
D03*
D30*
X165000Y26500D02*
D03*
D31*
Y16500D02*
D03*
Y6500D02*
D03*
D34*
X103000Y262500D02*
D03*
X91189D02*
D03*
D35*
X91736Y139338D02*
D03*
X93705D02*
D03*
X95673D02*
D03*
X97642D02*
D03*
X99610D02*
D03*
X101579D02*
D03*
X103547D02*
D03*
X105516D02*
D03*
X107484D02*
D03*
X109453D02*
D03*
X111421D02*
D03*
X113390D02*
D03*
X115358D02*
D03*
X117327D02*
D03*
X119295D02*
D03*
X121264D02*
D03*
Y93662D02*
D03*
X119295D02*
D03*
X117327D02*
D03*
X115358D02*
D03*
X113390D02*
D03*
X111421D02*
D03*
X109453D02*
D03*
X107484D02*
D03*
X105516D02*
D03*
X103547D02*
D03*
X101579D02*
D03*
X99610D02*
D03*
X97642D02*
D03*
X95673D02*
D03*
X93705D02*
D03*
X91736D02*
D03*
D36*
X129338Y131264D02*
D03*
Y129295D02*
D03*
Y127327D02*
D03*
Y125358D02*
D03*
Y123390D02*
D03*
Y121421D02*
D03*
Y119453D02*
D03*
Y117484D02*
D03*
Y115516D02*
D03*
Y113547D02*
D03*
Y111579D02*
D03*
Y109610D02*
D03*
Y107642D02*
D03*
Y105673D02*
D03*
Y103705D02*
D03*
Y101736D02*
D03*
X83662D02*
D03*
Y103705D02*
D03*
Y105673D02*
D03*
Y107642D02*
D03*
Y109610D02*
D03*
Y111579D02*
D03*
Y113547D02*
D03*
Y115516D02*
D03*
Y117484D02*
D03*
Y119453D02*
D03*
Y121421D02*
D03*
Y123390D02*
D03*
Y125358D02*
D03*
Y127327D02*
D03*
Y129295D02*
D03*
Y131264D02*
D03*
D37*
X100000Y75555D02*
D03*
X80000D02*
D03*
Y57445D02*
D03*
X100000D02*
D03*
D38*
X116500Y56012D02*
D03*
X121500D02*
D03*
X126500D02*
D03*
X131500D02*
D03*
Y76878D02*
D03*
X126500D02*
D03*
X121500D02*
D03*
X116500D02*
D03*
D39*
X147520Y26500D02*
D03*
X155000D02*
D03*
X63000Y143500D02*
D03*
X70480D02*
D03*
X63000Y135500D02*
D03*
X70480D02*
D03*
X63000Y127500D02*
D03*
X70480D02*
D03*
X80000Y84000D02*
D03*
X87480D02*
D03*
X126091Y84000D02*
D03*
X118610D02*
D03*
X118890Y7500D02*
D03*
X111409D02*
D03*
X68910Y93500D02*
D03*
X76390D02*
D03*
X62090Y115000D02*
D03*
X54610D02*
D03*
X54610Y107000D02*
D03*
X62091D02*
D03*
D40*
X128701Y262500D02*
D03*
X111299D02*
D03*
%TF.MD5,2b1fb984fdd09dd09e4850cb3e24d446*%
M02*
