%TF.GenerationSoftware,Altium Limited,Altium Designer,20.1.14 (287)*%
G04 Layer_Color=8388736*
%FSLAX25Y25*%
%MOIN*%
%TF.SameCoordinates,EAB65FBB-9CC0-4E70-8F82-B449C0BBF2B7*%
%TF.FilePolarity,Negative*%
%TF.FileFunction,Soldermask,Top*%
%TF.Part,Single*%
G01*
G75*
%TA.AperFunction,NonConductor*%
%ADD51R,0.25000X0.10000*%
%TA.AperFunction,SMDPad,CuDef*%
%ADD53R,0.06312X0.04934*%
%TA.AperFunction,ComponentPad*%
%ADD58C,0.06902*%
%ADD59R,0.06902X0.06902*%
%ADD60C,0.06800*%
%ADD61C,0.12808*%
%ADD62C,0.07119*%
%ADD63R,0.07119X0.07119*%
%ADD64C,0.07178*%
%ADD65C,0.06698*%
%ADD66R,0.04600X0.04600*%
%ADD67C,0.04600*%
%ADD68R,0.07119X0.07119*%
%ADD69R,0.07296X0.07296*%
%ADD70C,0.07296*%
%ADD71C,0.07217*%
%ADD72C,0.00800*%
%ADD73R,0.06706X0.06706*%
%ADD74C,0.06706*%
%TA.AperFunction,ViaPad*%
%ADD75C,0.04737*%
%ADD76C,0.24800*%
%TA.AperFunction,SMDPad,CuDef*%
%ADD83C,0.04000*%
%ADD84R,0.03792X0.05800*%
%ADD85R,0.05524X0.05131*%
G04:AMPARAMS|DCode=86|XSize=29.65mil|YSize=27.69mil|CornerRadius=6.46mil|HoleSize=0mil|Usage=FLASHONLY|Rotation=0.000|XOffset=0mil|YOffset=0mil|HoleType=Round|Shape=RoundedRectangle|*
%AMROUNDEDRECTD86*
21,1,0.02965,0.01476,0,0,0.0*
21,1,0.01673,0.02769,0,0,0.0*
1,1,0.01292,0.00837,-0.00738*
1,1,0.01292,-0.00837,-0.00738*
1,1,0.01292,-0.00837,0.00738*
1,1,0.01292,0.00837,0.00738*
%
%ADD86ROUNDEDRECTD86*%
D51*
X122000Y18500D02*
D03*
D53*
X145500Y6020D02*
D03*
Y13500D02*
D03*
D58*
X105000Y285000D02*
D03*
X95000D02*
D03*
X85000D02*
D03*
X75000D02*
D03*
X65000D02*
D03*
X55000D02*
D03*
X45000D02*
D03*
X35000D02*
D03*
X105000Y275000D02*
D03*
X95000D02*
D03*
X85000D02*
D03*
X75000D02*
D03*
X65000D02*
D03*
X55000D02*
D03*
X45000D02*
D03*
D59*
X35000D02*
D03*
D60*
X130000Y250000D02*
D03*
X120000D02*
D03*
X110000D02*
D03*
X60000Y190000D02*
D03*
Y170000D02*
D03*
Y180000D02*
D03*
X97500Y103500D02*
D03*
Y111500D02*
D03*
X140000Y190000D02*
D03*
Y180000D02*
D03*
Y170000D02*
D03*
Y200000D02*
D03*
Y230000D02*
D03*
X120000Y170000D02*
D03*
X130000D02*
D03*
X140000Y210000D02*
D03*
Y220000D02*
D03*
X110000Y170000D02*
D03*
X100000D02*
D03*
X90000D02*
D03*
X80000D02*
D03*
X70000D02*
D03*
X60000Y210000D02*
D03*
X100000Y250000D02*
D03*
X90000D02*
D03*
X80000D02*
D03*
X130000Y240000D02*
D03*
X120000D02*
D03*
X110000D02*
D03*
X100000D02*
D03*
X90000D02*
D03*
X80000D02*
D03*
X110000Y230000D02*
D03*
X100000D02*
D03*
X90000D02*
D03*
X80000D02*
D03*
X70000D02*
D03*
X60000Y220000D02*
D03*
X70000Y190000D02*
D03*
X80000Y220000D02*
D03*
X70000D02*
D03*
X140000Y250000D02*
D03*
X90000Y190000D02*
D03*
X80000Y180000D02*
D03*
X120000Y230000D02*
D03*
X130000D02*
D03*
X140000Y240000D02*
D03*
X90000Y180000D02*
D03*
X70000Y210000D02*
D03*
X130000Y220000D02*
D03*
X120000D02*
D03*
X110000D02*
D03*
X100000D02*
D03*
X90000D02*
D03*
X130000Y210000D02*
D03*
X120000D02*
D03*
X110000D02*
D03*
X100000D02*
D03*
X90000D02*
D03*
X80000D02*
D03*
X120000Y200000D02*
D03*
X110000D02*
D03*
X100000D02*
D03*
X90000D02*
D03*
X80000D02*
D03*
X70000D02*
D03*
Y250000D02*
D03*
X100000Y190000D02*
D03*
X70000Y180000D02*
D03*
X130000D02*
D03*
X120000D02*
D03*
X110000D02*
D03*
X100000D02*
D03*
X70000Y240000D02*
D03*
X80000Y190000D02*
D03*
X60000Y200000D02*
D03*
X130000D02*
D03*
X60000Y230000D02*
D03*
X110000Y190000D02*
D03*
X130000D02*
D03*
X120000D02*
D03*
X60000Y240000D02*
D03*
Y250000D02*
D03*
D61*
X19193Y155095D02*
D03*
X180500Y74004D02*
D03*
Y55500D02*
D03*
Y233000D02*
D03*
Y180500D02*
D03*
Y127500D02*
D03*
X19193Y111000D02*
D03*
Y202000D02*
D03*
Y247500D02*
D03*
X77000Y19193D02*
D03*
D62*
X48012Y161000D02*
D03*
Y149189D02*
D03*
X36201Y161000D02*
D03*
X151681Y227095D02*
D03*
Y238906D02*
D03*
X163492Y227095D02*
D03*
X151681Y174594D02*
D03*
Y186406D02*
D03*
X163492Y174594D02*
D03*
X151681Y121595D02*
D03*
Y133405D02*
D03*
X163492Y121595D02*
D03*
X48012Y116905D02*
D03*
Y105095D02*
D03*
X36201Y116905D02*
D03*
X48012Y207906D02*
D03*
Y196095D02*
D03*
X36201Y207906D02*
D03*
X48012Y253405D02*
D03*
Y241595D02*
D03*
X36201Y253405D02*
D03*
X71095Y48012D02*
D03*
X82906D02*
D03*
X71095Y36201D02*
D03*
D63*
X36201Y149189D02*
D03*
X163492Y238906D02*
D03*
Y186406D02*
D03*
Y133405D02*
D03*
X36201Y105095D02*
D03*
Y196095D02*
D03*
Y241595D02*
D03*
D64*
X151681Y47035D02*
D03*
Y58846D02*
D03*
Y70657D02*
D03*
Y82468D02*
D03*
X163492Y47035D02*
D03*
Y58846D02*
D03*
Y70657D02*
D03*
Y82468D02*
D03*
D65*
X33142Y4205D02*
D03*
Y29795D02*
D03*
X50858D02*
D03*
Y4205D02*
D03*
D66*
X112000Y16000D02*
D03*
D67*
Y21000D02*
D03*
X117000Y16000D02*
D03*
Y21000D02*
D03*
X122000Y16000D02*
D03*
Y21000D02*
D03*
X127000Y16000D02*
D03*
Y21000D02*
D03*
X132000Y16000D02*
D03*
Y21000D02*
D03*
D68*
X82906Y36201D02*
D03*
D69*
X157500Y284500D02*
D03*
D70*
X142500D02*
D03*
X127500D02*
D03*
D71*
X36508Y72311D02*
D03*
Y60500D02*
D03*
Y48689D02*
D03*
X48319D02*
D03*
Y60500D02*
D03*
Y72311D02*
D03*
D72*
X19500Y60500D02*
D03*
D73*
X165000Y26500D02*
D03*
D74*
Y16500D02*
D03*
Y6500D02*
D03*
D75*
X83000Y262500D02*
D03*
X73265Y84000D02*
D03*
X103000Y122000D02*
D03*
X102000Y131000D02*
D03*
X90500Y117500D02*
D03*
X142290Y118710D02*
D03*
X131500Y97000D02*
D03*
X76000Y125000D02*
D03*
X119500Y122500D02*
D03*
X111000Y73768D02*
D03*
X90500Y125500D02*
D03*
Y104000D02*
D03*
X138000Y124000D02*
D03*
X112500Y112500D02*
D03*
X109000Y108000D02*
D03*
X111000Y79500D02*
D03*
X136097Y136904D02*
D03*
X105500Y103500D02*
D03*
X97000Y132500D02*
D03*
X77122Y105055D02*
D03*
X133500Y92000D02*
D03*
X115977Y117500D02*
D03*
X73500Y100500D02*
D03*
X72000Y115516D02*
D03*
X87000Y58000D02*
D03*
X101000Y50000D02*
D03*
X93000Y46821D02*
D03*
X144500Y34000D02*
D03*
Y20000D02*
D03*
X136500Y50000D02*
D03*
X118000Y67000D02*
D03*
X130000D02*
D03*
X130500Y45000D02*
D03*
X124000Y50000D02*
D03*
X112000D02*
D03*
X118000Y45000D02*
D03*
X56500Y143000D02*
D03*
Y135500D02*
D03*
Y128500D02*
D03*
D76*
X185000Y285000D02*
D03*
X15000D02*
D03*
X185000Y15000D02*
D03*
X15000D02*
D03*
D83*
X100000Y294500D02*
D03*
X52500Y36500D02*
D03*
X94500Y294500D02*
D03*
X100000Y21000D02*
D03*
X137500D02*
D03*
X130500Y51000D02*
D03*
X118000Y40000D02*
D03*
D84*
X74500Y94000D02*
D03*
X79500D02*
D03*
X84500D02*
D03*
X89500D02*
D03*
Y64000D02*
D03*
X84500D02*
D03*
X79500D02*
D03*
X74500D02*
D03*
D85*
X101000Y60000D02*
D03*
Y68268D02*
D03*
X136500Y60000D02*
D03*
Y68268D02*
D03*
X112000Y60000D02*
D03*
Y68268D02*
D03*
X124000Y60000D02*
D03*
Y68268D02*
D03*
D86*
X67000Y262500D02*
D03*
Y266043D02*
D03*
X74000Y262500D02*
D03*
Y266043D02*
D03*
%TF.MD5,b6dd3c575cb1ae0cf5019d7d5be655c9*%
M02*
