%TF.GenerationSoftware,Altium Limited,Altium Designer,20.1.14 (287)*%
G04 Layer_Color=32896*
%FSLAX25Y25*%
%MOIN*%
%TF.SameCoordinates,EAB65FBB-9CC0-4E70-8F82-B449C0BBF2B7*%
%TF.FilePolarity,Positive*%
%TF.FileFunction,Legend,Bot*%
%TF.Part,Single*%
G01*
G75*
%TA.AperFunction,NonConductor*%
%ADD43C,0.01575*%
%ADD44C,0.00787*%
%ADD45C,0.00197*%
%ADD46C,0.00984*%
%ADD47C,0.00394*%
%ADD48C,0.00600*%
%ADD49C,0.01000*%
%ADD50C,0.00800*%
D43*
X91287Y145187D02*
G03*
X91287Y145187I-787J0D01*
G01*
D44*
X108110Y54689D02*
G03*
X108110Y54689I-394J0D01*
G01*
X111496Y270256D02*
Y289744D01*
X28504Y270256D02*
Y289744D01*
X111496D01*
X28504Y270256D02*
X111496D01*
X94732Y259351D02*
X99457D01*
X94732Y265650D02*
X99457D01*
X65362Y44063D02*
Y44457D01*
X60638Y44063D02*
Y44457D01*
X86618Y132839D02*
Y136382D01*
Y96618D02*
Y100161D01*
Y136382D02*
X90161D01*
X122839D02*
X126382D01*
Y132839D02*
Y136382D01*
Y96618D02*
Y100161D01*
X122839Y96618D02*
X126382D01*
X86618D02*
X90161D01*
X114354Y72646D02*
X133646D01*
Y60244D02*
Y72646D01*
X114354Y60244D02*
X133646D01*
X114354D02*
Y72646D01*
X138862Y37303D02*
Y37697D01*
X134138Y37303D02*
Y37697D01*
X114362Y37043D02*
Y37437D01*
X109638Y37043D02*
Y37437D01*
X103362Y37043D02*
Y37437D01*
X98638Y37043D02*
Y37437D01*
X126362Y37043D02*
Y37437D01*
X121638Y37043D02*
Y37437D01*
X151063Y24138D02*
X151457D01*
X151063Y28862D02*
X151457D01*
X102138Y17063D02*
Y17457D01*
X106862Y17063D02*
Y17457D01*
X66543Y141138D02*
X66937D01*
X66543Y145862D02*
X66937D01*
X66543Y133138D02*
X66937D01*
X66543Y137862D02*
X66937D01*
X66543Y125138D02*
X66937D01*
X66543Y129862D02*
X66937D01*
X83543Y81638D02*
X83937D01*
X83543Y86362D02*
X83937D01*
X129055Y269474D02*
Y270374D01*
X110945Y269474D02*
Y270374D01*
X129055Y254626D02*
Y255526D01*
X110945Y254626D02*
Y255526D01*
Y270374D02*
X129055D01*
X110945Y254626D02*
X129055D01*
X122153Y86362D02*
X122547D01*
X122153Y81638D02*
X122547D01*
X114953Y9862D02*
X115346D01*
X114953Y5138D02*
X115346D01*
X95362Y36953D02*
Y37347D01*
X90638Y36953D02*
Y37347D01*
X72453Y91138D02*
X72847D01*
X72453Y95862D02*
X72847D01*
X58153Y117362D02*
X58547D01*
X58153Y112638D02*
X58547D01*
X58154Y104638D02*
X58547D01*
X58154Y109362D02*
X58547D01*
X150138Y110153D02*
Y110547D01*
X154862Y110153D02*
Y110547D01*
X113138Y153953D02*
Y154346D01*
X117862Y153953D02*
Y154346D01*
D45*
X114057Y79445D02*
G03*
X114057Y79445I-557J0D01*
G01*
D46*
X108526Y254935D02*
G03*
X108526Y254935I-492J0D01*
G01*
D47*
X69331Y56657D02*
Y76342D01*
X110669Y56657D02*
Y76342D01*
X123032Y90313D02*
Y89282D01*
X123782Y89844D01*
Y89563D01*
X123875Y89375D01*
X123969Y89282D01*
X124250Y89188D01*
X124438D01*
X124719Y89282D01*
X124906Y89469D01*
X125000Y89750D01*
Y90031D01*
X124906Y90313D01*
X124813Y90406D01*
X124625Y90500D01*
X123032Y88560D02*
Y87529D01*
X123782Y88091D01*
Y87810D01*
X123875Y87623D01*
X123969Y87529D01*
X124250Y87435D01*
X124438D01*
X124719Y87529D01*
X124906Y87717D01*
X125000Y87998D01*
Y88279D01*
X124906Y88560D01*
X124813Y88654D01*
X124625Y88748D01*
X120794Y146265D02*
X120700Y146077D01*
X120419Y145796D01*
X122387D01*
X120700Y143697D02*
X120512Y143791D01*
X120419Y144072D01*
Y144259D01*
X120512Y144540D01*
X120794Y144728D01*
X121262Y144822D01*
X121731D01*
X122106Y144728D01*
X122293Y144540D01*
X122387Y144259D01*
Y144166D01*
X122293Y143884D01*
X122106Y143697D01*
X121825Y143603D01*
X121731D01*
X121450Y143697D01*
X121262Y143884D01*
X121168Y144166D01*
Y144259D01*
X121262Y144540D01*
X121450Y144728D01*
X121731Y144822D01*
X134307Y133400D02*
X134213Y133213D01*
X133932Y132931D01*
X135900D01*
X133932Y130645D02*
X135900Y131582D01*
X133932Y131957D02*
Y130645D01*
X133732Y102513D02*
Y101482D01*
X134482Y102044D01*
Y101763D01*
X134575Y101575D01*
X134669Y101482D01*
X134950Y101388D01*
X135138D01*
X135419Y101482D01*
X135606Y101669D01*
X135700Y101950D01*
Y102231D01*
X135606Y102513D01*
X135513Y102606D01*
X135325Y102700D01*
X134201Y100854D02*
X134107D01*
X133919Y100760D01*
X133826Y100666D01*
X133732Y100479D01*
Y100104D01*
X133826Y99917D01*
X133919Y99823D01*
X134107Y99729D01*
X134294D01*
X134482Y99823D01*
X134763Y100010D01*
X135700Y100947D01*
Y99635D01*
X90732Y88263D02*
X92044Y89200D01*
Y87794D01*
X90732Y88263D02*
X92700D01*
X90732Y86979D02*
X90826Y87260D01*
X91013Y87354D01*
X91201D01*
X91388Y87260D01*
X91482Y87073D01*
X91575Y86698D01*
X91669Y86417D01*
X91856Y86229D01*
X92044Y86135D01*
X92325D01*
X92513Y86229D01*
X92606Y86323D01*
X92700Y86604D01*
Y86979D01*
X92606Y87260D01*
X92513Y87354D01*
X92325Y87448D01*
X92044D01*
X91856Y87354D01*
X91669Y87166D01*
X91575Y86885D01*
X91482Y86510D01*
X91388Y86323D01*
X91201Y86229D01*
X91013D01*
X90826Y86323D01*
X90732Y86604D01*
Y86979D01*
X77332Y101963D02*
X78644Y102900D01*
Y101494D01*
X77332Y101963D02*
X79300D01*
X77988Y99929D02*
X78269Y100023D01*
X78456Y100210D01*
X78550Y100491D01*
Y100585D01*
X78456Y100866D01*
X78269Y101054D01*
X77988Y101147D01*
X77894D01*
X77613Y101054D01*
X77426Y100866D01*
X77332Y100585D01*
Y100491D01*
X77426Y100210D01*
X77613Y100023D01*
X77988Y99929D01*
X78456D01*
X78925Y100023D01*
X79206Y100210D01*
X79300Y100491D01*
Y100679D01*
X79206Y100960D01*
X79019Y101054D01*
X77613Y131875D02*
X77426Y131969D01*
X77332Y132250D01*
Y132438D01*
X77426Y132719D01*
X77707Y132906D01*
X78175Y133000D01*
X78644D01*
X79019Y132906D01*
X79206Y132719D01*
X79300Y132438D01*
Y132344D01*
X79206Y132063D01*
X79019Y131875D01*
X78738Y131782D01*
X78644D01*
X78363Y131875D01*
X78175Y132063D01*
X78082Y132344D01*
Y132438D01*
X78175Y132719D01*
X78363Y132906D01*
X78644Y133000D01*
X77332Y130413D02*
X78644Y131351D01*
Y129945D01*
X77332Y130413D02*
X79300D01*
D48*
X85492Y295833D02*
X86158Y296499D01*
X87491D01*
X88157Y295833D01*
Y295166D01*
X87491Y294500D01*
X86158D01*
X85492Y293834D01*
Y293167D01*
X86158Y292501D01*
X87491D01*
X88157Y293167D01*
X83492Y295833D02*
Y295166D01*
X84159D01*
X82826D01*
X83492D01*
Y293167D01*
X82826Y292501D01*
X80160Y295166D02*
X78827D01*
X78161Y294500D01*
Y292501D01*
X80160D01*
X80826Y293167D01*
X80160Y293834D01*
X78161D01*
X76828Y292501D02*
Y295166D01*
X74828D01*
X74162Y294500D01*
Y292501D01*
X70163Y296499D02*
Y292501D01*
X72163D01*
X72829Y293167D01*
Y294500D01*
X72163Y295166D01*
X70163D01*
X68164D02*
X66831D01*
X66164Y294500D01*
Y292501D01*
X68164D01*
X68830Y293167D01*
X68164Y293834D01*
X66164D01*
X64832Y295166D02*
Y292501D01*
Y293834D01*
X64165Y294500D01*
X63499Y295166D01*
X62832D01*
X58167Y296499D02*
Y292501D01*
X60166D01*
X60833Y293167D01*
Y294500D01*
X60166Y295166D01*
X58167D01*
X52836Y296499D02*
Y292501D01*
Y294500D01*
X50170D01*
Y296499D01*
Y292501D01*
X46837D02*
X48170D01*
X48837Y293167D01*
Y294500D01*
X48170Y295166D01*
X46837D01*
X46171Y294500D01*
Y293834D01*
X48837D01*
X44172Y295166D02*
X42839D01*
X42172Y294500D01*
Y292501D01*
X44172D01*
X44838Y293167D01*
X44172Y293834D01*
X42172D01*
X38174Y296499D02*
Y292501D01*
X40173D01*
X40839Y293167D01*
Y294500D01*
X40173Y295166D01*
X38174D01*
X34841Y292501D02*
X36174D01*
X36841Y293167D01*
Y294500D01*
X36174Y295166D01*
X34841D01*
X34175Y294500D01*
Y293834D01*
X36841D01*
X32842Y295166D02*
Y292501D01*
Y293834D01*
X32175Y294500D01*
X31509Y295166D01*
X30843D01*
D49*
X82689Y265499D02*
X86688D01*
Y262500D01*
X84688D01*
X86688D01*
Y259501D01*
X80690D02*
X78690D01*
X79690D01*
Y265499D01*
X80690Y264499D01*
X68200Y54260D02*
Y60258D01*
X65201D01*
X64201Y59258D01*
Y57259D01*
X65201Y56259D01*
X68200D01*
X66201D02*
X64201Y54260D01*
X62202D02*
X60203D01*
X61202D01*
Y60258D01*
X62202Y59258D01*
X132999Y144499D02*
Y139501D01*
X131999Y138501D01*
X130000D01*
X129000Y139501D01*
Y144499D01*
X127001Y138501D02*
X125001D01*
X126001D01*
Y144499D01*
X127001Y143499D01*
X142499Y264999D02*
Y259001D01*
X139500D01*
X138500Y260001D01*
Y263999D01*
X139500Y264999D01*
X142499D01*
X136501Y259001D02*
X134501D01*
X135501D01*
Y264999D01*
X136501Y263999D01*
X58998Y139001D02*
Y144999D01*
X55999D01*
X55000Y143999D01*
Y142000D01*
X55999Y141000D01*
X58998D01*
X56999D02*
X55000Y139001D01*
X49002Y144999D02*
X53000D01*
Y142000D01*
X51001Y143000D01*
X50001D01*
X49002Y142000D01*
Y140001D01*
X50001Y139001D01*
X52001D01*
X53000Y140001D01*
X58998Y131501D02*
Y137499D01*
X55999D01*
X55000Y136499D01*
Y134500D01*
X55999Y133500D01*
X58998D01*
X56999D02*
X55000Y131501D01*
X50001D02*
Y137499D01*
X53000Y134500D01*
X49002D01*
X58998Y124001D02*
Y129999D01*
X55999D01*
X55000Y128999D01*
Y127000D01*
X55999Y126000D01*
X58998D01*
X56999D02*
X55000Y124001D01*
X53000Y128999D02*
X52001Y129999D01*
X50001D01*
X49002Y128999D01*
Y128000D01*
X50001Y127000D01*
X51001D01*
X50001D01*
X49002Y126000D01*
Y125001D01*
X50001Y124001D01*
X52001D01*
X53000Y125001D01*
X75498Y81001D02*
Y86999D01*
X72499D01*
X71500Y85999D01*
Y84000D01*
X72499Y83000D01*
X75498D01*
X73499D02*
X71500Y81001D01*
X65502D02*
X69500D01*
X65502Y85000D01*
Y85999D01*
X66501Y86999D01*
X68501D01*
X69500Y85999D01*
X111006Y86045D02*
X112005Y87045D01*
X114005D01*
X115004Y86045D01*
Y82046D01*
X114005Y81047D01*
X112005D01*
X111006Y82046D01*
X109006Y86045D02*
X108007Y87045D01*
X106007D01*
X105008Y86045D01*
Y85045D01*
X106007Y84046D01*
X105008Y83046D01*
Y82046D01*
X106007Y81047D01*
X108007D01*
X109006Y82046D01*
Y83046D01*
X108007Y84046D01*
X109006Y85045D01*
Y86045D01*
X108007Y84046D02*
X106007D01*
X129000Y9499D02*
X129999Y10499D01*
X131999D01*
X132998Y9499D01*
Y5501D01*
X131999Y4501D01*
X129999D01*
X129000Y5501D01*
X127000Y10499D02*
X123002D01*
Y9499D01*
X127000Y5501D01*
Y4501D01*
X60649Y93999D02*
X61649Y94999D01*
X63648D01*
X64648Y93999D01*
Y90001D01*
X63648Y89001D01*
X61649D01*
X60649Y90001D01*
X54651Y94999D02*
X58650D01*
Y92000D01*
X56651Y93000D01*
X55651D01*
X54651Y92000D01*
Y90001D01*
X55651Y89001D01*
X57650D01*
X58650Y90001D01*
X72000Y116999D02*
X72999Y117999D01*
X74999D01*
X75998Y116999D01*
Y113001D01*
X74999Y112001D01*
X72999D01*
X72000Y113001D01*
X67001Y112001D02*
Y117999D01*
X70000Y115000D01*
X66002D01*
X72000Y108999D02*
X72999Y109999D01*
X74999D01*
X75998Y108999D01*
Y105001D01*
X74999Y104001D01*
X72999D01*
X72000Y105001D01*
X70000Y108999D02*
X69001Y109999D01*
X67001D01*
X66002Y108999D01*
Y108000D01*
X67001Y107000D01*
X68001D01*
X67001D01*
X66002Y106000D01*
Y105001D01*
X67001Y104001D01*
X69001D01*
X70000Y105001D01*
X163000Y111999D02*
X163999Y112999D01*
X165999D01*
X166998Y111999D01*
Y108001D01*
X165999Y107001D01*
X163999D01*
X163000Y108001D01*
X157002Y107001D02*
X161000D01*
X157002Y111000D01*
Y111999D01*
X158001Y112999D01*
X160001D01*
X161000Y111999D01*
X124000Y155999D02*
X125000Y156999D01*
X126999D01*
X127999Y155999D01*
Y152001D01*
X126999Y151001D01*
X125000D01*
X124000Y152001D01*
X122001Y151001D02*
X120001D01*
X121001D01*
Y156999D01*
X122001Y155999D01*
X67999Y75999D02*
Y74999D01*
X65999Y73000D01*
X64000Y74999D01*
Y75999D01*
X65999Y73000D02*
Y70001D01*
X62001D02*
X60001D01*
X61001D01*
Y75999D01*
X62001Y74999D01*
X144998Y71999D02*
Y67001D01*
X143999Y66001D01*
X141999D01*
X141000Y67001D01*
Y71999D01*
X135002Y66001D02*
X139000D01*
X135002Y70000D01*
Y70999D01*
X136001Y71999D01*
X138001D01*
X139000Y70999D01*
X155998Y15501D02*
Y21499D01*
X152999D01*
X152000Y20499D01*
Y18500D01*
X152999Y17500D01*
X155998D01*
X153999D02*
X152000Y15501D01*
X150000Y21499D02*
X146002D01*
Y20499D01*
X150000Y16501D01*
Y15501D01*
X99498Y14501D02*
Y20499D01*
X96499D01*
X95500Y19499D01*
Y17500D01*
X96499Y16500D01*
X99498D01*
X97499D02*
X95500Y14501D01*
X89502Y20499D02*
X91501Y19499D01*
X93500Y17500D01*
Y15501D01*
X92501Y14501D01*
X90501D01*
X89502Y15501D01*
Y16500D01*
X90501Y17500D01*
X93500D01*
D50*
X140832Y25741D02*
Y29739D01*
X138833D01*
X138166Y29073D01*
Y27740D01*
X138833Y27074D01*
X140832D01*
X139499D02*
X138166Y25741D01*
X136833D02*
X135500D01*
X136167D01*
Y29739D01*
X136833Y29073D01*
X133501Y25741D02*
X132168D01*
X132834D01*
Y29739D01*
X133501Y29073D01*
X116998Y25481D02*
Y29480D01*
X114999D01*
X114333Y28813D01*
Y27480D01*
X114999Y26814D01*
X116998D01*
X115665D02*
X114333Y25481D01*
X113000D02*
X111667D01*
X112333D01*
Y29480D01*
X113000Y28813D01*
X109667D02*
X109001Y29480D01*
X107668D01*
X107002Y28813D01*
Y26147D01*
X107668Y25481D01*
X109001D01*
X109667Y26147D01*
Y28813D01*
X104332Y25501D02*
Y29499D01*
X102333D01*
X101666Y28833D01*
Y27500D01*
X102333Y26834D01*
X104332D01*
X102999D02*
X101666Y25501D01*
X100333Y26167D02*
X99667Y25501D01*
X98334D01*
X97668Y26167D01*
Y28833D01*
X98334Y29499D01*
X99667D01*
X100333Y28833D01*
Y28166D01*
X99667Y27500D01*
X97668D01*
X127357Y25908D02*
Y29907D01*
X125357D01*
X124691Y29240D01*
Y27907D01*
X125357Y27241D01*
X127357D01*
X126024D02*
X124691Y25908D01*
X123358Y29240D02*
X122692Y29907D01*
X121359D01*
X120692Y29240D01*
Y28574D01*
X121359Y27907D01*
X120692Y27241D01*
Y26575D01*
X121359Y25908D01*
X122692D01*
X123358Y26575D01*
Y27241D01*
X122692Y27907D01*
X123358Y28574D01*
Y29240D01*
X122692Y27907D02*
X121359D01*
X93166Y28833D02*
X93833Y29499D01*
X95166D01*
X95832Y28833D01*
Y26167D01*
X95166Y25501D01*
X93833D01*
X93166Y26167D01*
X89168Y29499D02*
X90501Y28833D01*
X91834Y27500D01*
Y26167D01*
X91167Y25501D01*
X89834D01*
X89168Y26167D01*
Y26834D01*
X89834Y27500D01*
X91834D01*
%TF.MD5,b4f9d8356c7957a6660ac7f6b8f9899f*%
M02*
