%TF.GenerationSoftware,Altium Limited,Altium Designer,20.1.14 (287)*%
G04 Layer_Color=16711935*
%FSLAX25Y25*%
%MOIN*%
%TF.SameCoordinates,EAB65FBB-9CC0-4E70-8F82-B449C0BBF2B7*%
%TF.FilePolarity,Positive*%
%TF.FileFunction,Other,Mechanical_13*%
%TF.Part,Single*%
G01*
G75*
%TA.AperFunction,NonConductor*%
%ADD43C,0.01575*%
%ADD44C,0.00787*%
%ADD45C,0.00197*%
%ADD47C,0.00394*%
%ADD49C,0.01000*%
%ADD78C,0.00500*%
%ADD79C,0.00591*%
%ADD87R,0.02436X0.15551*%
D43*
X91287Y145200D02*
G03*
X91287Y145200I-787J0D01*
G01*
D44*
X41600Y35598D02*
Y85402D01*
X1390Y35598D02*
X41600D01*
X1390D02*
Y85402D01*
X41600D01*
D45*
X104151Y132100D02*
X106775D01*
X107300Y131575D01*
Y130526D01*
X106775Y130001D01*
X104151D01*
X107300Y128951D02*
Y127902D01*
Y128427D01*
X104151D01*
X104676Y128951D01*
D47*
X28504Y270256D02*
Y289744D01*
X111496Y270256D02*
Y289744D01*
X28504D02*
X111496D01*
X28504Y270256D02*
X111496D01*
X90795Y259351D02*
Y265650D01*
X103394Y259351D02*
Y265650D01*
X90795D02*
X103394D01*
X90795Y259351D02*
X103394D01*
X142842Y5429D02*
X148158D01*
X142842Y14091D02*
X148158D01*
X142842Y5429D02*
Y14091D01*
X148158Y5429D02*
Y14091D01*
X60343Y39929D02*
X65658D01*
X60343Y48591D02*
X65658D01*
Y39929D02*
Y48591D01*
X60343Y39929D02*
Y48591D01*
X69776Y66795D02*
X94224D01*
Y91205D01*
X69776Y66795D02*
Y91205D01*
X94224D01*
X133843Y33169D02*
X139157D01*
X133843Y41831D02*
X139157D01*
Y33169D02*
Y41831D01*
X133843Y33169D02*
Y41831D01*
X109343Y32909D02*
X114657D01*
X109343Y41571D02*
X114657D01*
Y32909D02*
Y41571D01*
X109343Y32909D02*
Y41571D01*
X98343Y32909D02*
X103657D01*
X98343Y41571D02*
X103657D01*
Y32909D02*
Y41571D01*
X98343Y32909D02*
Y41571D01*
X121343Y32909D02*
X126657D01*
X121343Y41571D02*
X126657D01*
Y32909D02*
Y41571D01*
X121343Y32909D02*
Y41571D01*
X146929Y23843D02*
Y29158D01*
X155591Y23843D02*
Y29158D01*
X146929Y23843D02*
X155591D01*
X146929Y29158D02*
X155591D01*
X101842Y21590D02*
X107158D01*
X101842Y12929D02*
X107158D01*
X101842D02*
Y21590D01*
X107158Y12929D02*
Y21590D01*
X62410Y140842D02*
Y146158D01*
X71071Y140842D02*
Y146158D01*
X62410Y140842D02*
X71071D01*
X62410Y146158D02*
X71071D01*
X62410Y132843D02*
Y138157D01*
X71071Y132843D02*
Y138157D01*
X62410Y132843D02*
X71071D01*
X62410Y138157D02*
X71071D01*
X62410Y124843D02*
Y130157D01*
X71071Y124843D02*
Y130157D01*
X62410Y124843D02*
X71071D01*
X62410Y130157D02*
X71071D01*
X79409Y81343D02*
Y86658D01*
X88071Y81343D02*
Y86658D01*
X79409Y81343D02*
X88071D01*
X79409Y86658D02*
X88071D01*
X98343Y60000D02*
Y68268D01*
X103657Y60000D02*
Y68268D01*
X98343Y60000D02*
X103657D01*
X98343Y68268D02*
X103657D01*
X133843Y60000D02*
Y68268D01*
X139157Y60000D02*
Y68268D01*
X133843Y60000D02*
X139157D01*
X133843Y68268D02*
X139157D01*
X109343Y60000D02*
Y68268D01*
X114657Y60000D02*
Y68268D01*
X109343Y60000D02*
X114657D01*
X109343Y68268D02*
X114657D01*
X110945Y270276D02*
X129055D01*
X110945Y254724D02*
X129055D01*
Y270276D01*
X110945Y254724D02*
Y270276D01*
X121343Y60000D02*
Y68268D01*
X126657Y60000D02*
Y68268D01*
X121343Y60000D02*
X126657D01*
X121343Y68268D02*
X126657D01*
X126681Y81343D02*
Y86658D01*
X118020Y81343D02*
Y86658D01*
X126681D01*
X118020Y81343D02*
X126681D01*
X119480Y4843D02*
Y10158D01*
X110819Y4843D02*
Y10158D01*
X119480D01*
X110819Y4843D02*
X119480D01*
X90342Y32819D02*
X95657D01*
X90342Y41480D02*
X95657D01*
Y32819D02*
Y41480D01*
X90342Y32819D02*
Y41480D01*
X68319Y90842D02*
Y96157D01*
X76980Y90842D02*
Y96157D01*
X68319Y90842D02*
X76980D01*
X68319Y96157D02*
X76980D01*
X62681Y112343D02*
Y117657D01*
X54020Y112343D02*
Y117657D01*
X62681D01*
X54020Y112343D02*
X62681D01*
X54020Y104342D02*
Y109658D01*
X62681Y104342D02*
Y109658D01*
X54020Y104342D02*
X62681D01*
X54020Y109658D02*
X62681D01*
X149843Y114681D02*
X155157D01*
X149843Y106020D02*
X155157D01*
X149843D02*
Y114681D01*
X155157Y106020D02*
Y114681D01*
X112843Y158480D02*
X118157D01*
X112843Y149819D02*
X118157D01*
X112843D02*
Y158480D01*
X118157Y149819D02*
Y158480D01*
X65917Y262205D02*
Y266339D01*
X68083Y262205D02*
Y266339D01*
X65917Y262205D02*
X68083D01*
X65917Y266339D02*
X68083D01*
X72917Y262205D02*
Y266339D01*
X75083Y262205D02*
Y266339D01*
X72917Y262205D02*
X75083D01*
X72917Y266339D02*
X75083D01*
D49*
X157700Y33945D02*
X198610D01*
Y95559D01*
X157700D02*
X198610D01*
X157700Y33945D02*
Y95559D01*
D78*
X119626Y269933D02*
X164587D01*
X119626D02*
Y298673D01*
X164587D01*
Y269933D02*
Y298673D01*
D79*
X86618Y96618D02*
Y136382D01*
Y96618D02*
X126382D01*
Y136382D01*
X86618D02*
X126382D01*
D87*
X112163Y262500D02*
D03*
%TF.MD5,519e42764b96f1d62d0100b9d5e01a5d*%
M02*
