%TF.GenerationSoftware,Altium Limited,Altium Designer,20.1.14 (287)*%
G04 Layer_Color=255*
%FSLAX25Y25*%
%MOIN*%
%TF.SameCoordinates,66620FBD-E1AE-4FB5-826F-034038840454*%
%TF.FilePolarity,Positive*%
%TF.FileFunction,Pads,Top*%
%TF.Part,Single*%
G01*
G75*
%TA.AperFunction,SMDPad,CuDef*%
%ADD10R,0.05512X0.04134*%
%ADD11C,0.03200*%
%ADD12R,0.02992X0.05000*%
%ADD13R,0.04724X0.04331*%
G04:AMPARAMS|DCode=14|XSize=21.65mil|YSize=19.68mil|CornerRadius=2.46mil|HoleSize=0mil|Usage=FLASHONLY|Rotation=0.000|XOffset=0mil|YOffset=0mil|HoleType=Round|Shape=RoundedRectangle|*
%AMROUNDEDRECTD14*
21,1,0.02165,0.01476,0,0,0.0*
21,1,0.01673,0.01968,0,0,0.0*
1,1,0.00492,0.00837,-0.00738*
1,1,0.00492,-0.00837,-0.00738*
1,1,0.00492,-0.00837,0.00738*
1,1,0.00492,0.00837,0.00738*
%
%ADD14ROUNDEDRECTD14*%
%TA.AperFunction,ComponentPad*%
%ADD16C,0.06000*%
%ADD17C,0.12008*%
%ADD18C,0.06319*%
%ADD19R,0.06319X0.06319*%
%ADD20R,0.06102X0.06102*%
%ADD21C,0.06102*%
%ADD22C,0.06378*%
%ADD23C,0.05898*%
%ADD24R,0.04000X0.04000*%
%ADD25C,0.04000*%
%ADD26R,0.06319X0.06319*%
%ADD27R,0.06496X0.06496*%
%ADD28C,0.06496*%
%ADD29C,0.06417*%
%ADD30R,0.05906X0.05906*%
%ADD31C,0.05906*%
D10*
X145500Y6020D02*
D03*
Y13500D02*
D03*
D11*
X100000Y294500D02*
D03*
X52500Y36500D02*
D03*
X94500Y294500D02*
D03*
X100000Y21000D02*
D03*
X137500D02*
D03*
X130500Y51000D02*
D03*
X118000Y40000D02*
D03*
D12*
X74500Y94000D02*
D03*
X79500D02*
D03*
X84500D02*
D03*
X89500D02*
D03*
Y64000D02*
D03*
X84500D02*
D03*
X79500D02*
D03*
X74500D02*
D03*
D13*
X101000Y60000D02*
D03*
Y68268D02*
D03*
X136500Y60000D02*
D03*
Y68268D02*
D03*
X112000Y60000D02*
D03*
Y68268D02*
D03*
X124000Y60000D02*
D03*
Y68268D02*
D03*
D14*
X74000Y262500D02*
D03*
Y266043D02*
D03*
X66000Y262500D02*
D03*
Y266043D02*
D03*
D16*
X130000Y250000D02*
D03*
X120000D02*
D03*
X110000D02*
D03*
X60000Y190000D02*
D03*
Y170000D02*
D03*
Y180000D02*
D03*
X97500Y103500D02*
D03*
Y111500D02*
D03*
X140000Y190000D02*
D03*
Y180000D02*
D03*
Y170000D02*
D03*
Y200000D02*
D03*
Y230000D02*
D03*
X120000Y170000D02*
D03*
X130000D02*
D03*
X140000Y210000D02*
D03*
Y220000D02*
D03*
X110000Y170000D02*
D03*
X100000D02*
D03*
X90000D02*
D03*
X80000D02*
D03*
X70000D02*
D03*
X60000Y210000D02*
D03*
X100000Y250000D02*
D03*
X90000D02*
D03*
X80000D02*
D03*
X130000Y240000D02*
D03*
X120000D02*
D03*
X110000D02*
D03*
X100000D02*
D03*
X90000D02*
D03*
X80000D02*
D03*
X110000Y230000D02*
D03*
X100000D02*
D03*
X90000D02*
D03*
X80000D02*
D03*
X70000D02*
D03*
X60000Y220000D02*
D03*
X70000Y190000D02*
D03*
X80000Y220000D02*
D03*
X70000D02*
D03*
X140000Y250000D02*
D03*
X90000Y190000D02*
D03*
X80000Y180000D02*
D03*
X120000Y230000D02*
D03*
X130000D02*
D03*
X140000Y240000D02*
D03*
X90000Y180000D02*
D03*
X70000Y210000D02*
D03*
X130000Y220000D02*
D03*
X120000D02*
D03*
X110000D02*
D03*
X100000D02*
D03*
X90000D02*
D03*
X130000Y210000D02*
D03*
X120000D02*
D03*
X110000D02*
D03*
X100000D02*
D03*
X90000D02*
D03*
X80000D02*
D03*
X120000Y200000D02*
D03*
X110000D02*
D03*
X100000D02*
D03*
X90000D02*
D03*
X80000D02*
D03*
X70000D02*
D03*
Y250000D02*
D03*
X100000Y190000D02*
D03*
X70000Y180000D02*
D03*
X130000D02*
D03*
X120000D02*
D03*
X110000D02*
D03*
X100000D02*
D03*
X70000Y240000D02*
D03*
X80000Y190000D02*
D03*
X60000Y200000D02*
D03*
X130000D02*
D03*
X60000Y230000D02*
D03*
X110000Y190000D02*
D03*
X130000D02*
D03*
X120000D02*
D03*
X60000Y240000D02*
D03*
Y250000D02*
D03*
D17*
X19193Y155095D02*
D03*
X180500Y74004D02*
D03*
Y55500D02*
D03*
Y233000D02*
D03*
Y180500D02*
D03*
Y127500D02*
D03*
X19193Y111000D02*
D03*
Y202000D02*
D03*
Y247500D02*
D03*
X77000Y19193D02*
D03*
D18*
X48012Y161000D02*
D03*
Y149189D02*
D03*
X36201Y161000D02*
D03*
X151681Y227095D02*
D03*
Y238906D02*
D03*
X163492Y227095D02*
D03*
X151681Y174594D02*
D03*
Y186406D02*
D03*
X163492Y174594D02*
D03*
X151681Y121595D02*
D03*
Y133405D02*
D03*
X163492Y121595D02*
D03*
X48012Y116905D02*
D03*
Y105095D02*
D03*
X36201Y116905D02*
D03*
X48012Y207906D02*
D03*
Y196095D02*
D03*
X36201Y207906D02*
D03*
X48012Y253405D02*
D03*
Y241595D02*
D03*
X36201Y253405D02*
D03*
X71095Y48012D02*
D03*
X82906D02*
D03*
X71095Y36201D02*
D03*
D19*
X36201Y149189D02*
D03*
X163492Y238906D02*
D03*
Y186406D02*
D03*
Y133405D02*
D03*
X36201Y105095D02*
D03*
Y196095D02*
D03*
Y241595D02*
D03*
D20*
X105000Y275000D02*
D03*
D21*
X95000D02*
D03*
X85000D02*
D03*
X75000D02*
D03*
X65000D02*
D03*
X55000D02*
D03*
X45000D02*
D03*
X35000D02*
D03*
X105000Y285000D02*
D03*
X95000D02*
D03*
X85000D02*
D03*
X75000D02*
D03*
X65000D02*
D03*
X55000D02*
D03*
X45000D02*
D03*
X35000D02*
D03*
D22*
X151681Y47035D02*
D03*
Y58846D02*
D03*
Y70657D02*
D03*
Y82468D02*
D03*
X163492Y47035D02*
D03*
Y58846D02*
D03*
Y70657D02*
D03*
Y82468D02*
D03*
D23*
X33142Y4205D02*
D03*
Y29795D02*
D03*
X50858D02*
D03*
Y4205D02*
D03*
D24*
X112000Y16000D02*
D03*
D25*
Y21000D02*
D03*
X117000Y16000D02*
D03*
Y21000D02*
D03*
X122000Y16000D02*
D03*
Y21000D02*
D03*
X127000Y16000D02*
D03*
Y21000D02*
D03*
X132000Y16000D02*
D03*
Y21000D02*
D03*
D26*
X82906Y36201D02*
D03*
D27*
X157500Y284500D02*
D03*
D28*
X142500D02*
D03*
X127500D02*
D03*
D29*
X36508Y72311D02*
D03*
Y60500D02*
D03*
Y48689D02*
D03*
X48319D02*
D03*
Y60500D02*
D03*
Y72311D02*
D03*
D30*
X165000Y26500D02*
D03*
D31*
Y16500D02*
D03*
Y6500D02*
D03*
%TF.MD5,3e51ceef21ae52b5b64f61b18a825364*%
M02*
