%TF.GenerationSoftware,Altium Limited,Altium Designer,20.1.14 (287)*%
G04 Layer_Color=128*
%FSLAX25Y25*%
%MOIN*%
%TF.SameCoordinates,66620FBD-E1AE-4FB5-826F-034038840454*%
%TF.FilePolarity,Positive*%
%TF.FileFunction,Drillmap*%
%TF.Part,Single*%
G01*
G75*
%TA.AperFunction,NonConductor*%
%ADD77C,0.00500*%
D77*
X128250Y250000D02*
X131750D01*
X130000Y248250D02*
Y251750D01*
X118250Y250000D02*
X121750D01*
X120000Y248250D02*
Y251750D01*
X108250Y250000D02*
X111750D01*
X110000Y248250D02*
Y251750D01*
X58250Y190000D02*
X61750D01*
X60000Y188250D02*
Y191750D01*
X58250Y170000D02*
X61750D01*
X60000Y168250D02*
Y171750D01*
X58250Y180000D02*
X61750D01*
X60000Y178250D02*
Y181750D01*
X13189Y155095D02*
X25197D01*
X19193Y149091D02*
Y161098D01*
X45906Y161000D02*
X50118D01*
X48012Y158894D02*
Y163106D01*
X45906Y149189D02*
X50118D01*
X48012Y147083D02*
Y151295D01*
X34095Y161000D02*
X38307D01*
X36201Y158894D02*
Y163106D01*
X34095Y149189D02*
X38307D01*
X36201Y147083D02*
Y151295D01*
X95750Y103500D02*
X99250D01*
X97500Y101750D02*
Y105250D01*
X102992Y275000D02*
X107008D01*
X105000Y272992D02*
Y277008D01*
X92992Y275000D02*
X97008D01*
X95000Y272992D02*
Y277008D01*
X82992Y275000D02*
X87008D01*
X85000Y272992D02*
Y277008D01*
X72992Y275000D02*
X77008D01*
X75000Y272992D02*
Y277008D01*
X62992Y275000D02*
X67008D01*
X65000Y272992D02*
Y277008D01*
X52992Y275000D02*
X57008D01*
X55000Y272992D02*
Y277008D01*
X42992Y275000D02*
X47008D01*
X45000Y272992D02*
Y277008D01*
X32992Y275000D02*
X37008D01*
X35000Y272992D02*
Y277008D01*
X102992Y285000D02*
X107008D01*
X105000Y282992D02*
Y287008D01*
X92992Y285000D02*
X97008D01*
X95000Y282992D02*
Y287008D01*
X82992Y285000D02*
X87008D01*
X85000Y282992D02*
Y287008D01*
X72992Y285000D02*
X77008D01*
X75000Y282992D02*
Y287008D01*
X62992Y285000D02*
X67008D01*
X65000Y282992D02*
Y287008D01*
X52992Y285000D02*
X57008D01*
X55000Y282992D02*
Y287008D01*
X42992Y285000D02*
X47008D01*
X45000Y282992D02*
Y287008D01*
X32992Y285000D02*
X37008D01*
X35000Y282992D02*
Y287008D01*
X174496Y74004D02*
X186504D01*
X180500Y68000D02*
Y80008D01*
X174496Y55500D02*
X186504D01*
X180500Y49496D02*
Y61504D01*
X149575Y47035D02*
X153787D01*
X151681Y44929D02*
Y49142D01*
X149575Y58846D02*
X153787D01*
X151681Y56740D02*
Y60953D01*
X149575Y70657D02*
X153787D01*
X151681Y68551D02*
Y72764D01*
X149575Y82468D02*
X153787D01*
X151681Y80362D02*
Y84575D01*
X161386Y47035D02*
X165598D01*
X163492Y44929D02*
Y49142D01*
X161386Y58846D02*
X165598D01*
X163492Y56740D02*
Y60953D01*
X161386Y70657D02*
X165598D01*
X163492Y68551D02*
Y72764D01*
X161386Y82468D02*
X165598D01*
X163492Y80362D02*
Y84575D01*
X95750Y111500D02*
X99250D01*
X97500Y109750D02*
Y113250D01*
X31193Y4205D02*
X35091D01*
X33142Y2256D02*
Y6154D01*
X31193Y29795D02*
X35091D01*
X33142Y27847D02*
Y31744D01*
X48909Y29795D02*
X52807D01*
X50858Y27847D02*
Y31744D01*
X48909Y4205D02*
X52807D01*
X50858Y2256D02*
Y6154D01*
X174496Y233000D02*
X186504D01*
X180500Y226996D02*
Y239004D01*
X149575Y227095D02*
X153787D01*
X151681Y224988D02*
Y229201D01*
X149575Y238906D02*
X153787D01*
X151681Y236799D02*
Y241012D01*
X161386Y227095D02*
X165598D01*
X163492Y224988D02*
Y229201D01*
X161386Y238906D02*
X165598D01*
X163492Y236799D02*
Y241012D01*
X174496Y180500D02*
X186504D01*
X180500Y174496D02*
Y186504D01*
X149575Y174594D02*
X153787D01*
X151681Y172488D02*
Y176701D01*
X149575Y186406D02*
X153787D01*
X151681Y184299D02*
Y188512D01*
X161386Y174594D02*
X165598D01*
X163492Y172488D02*
Y176701D01*
X161386Y186406D02*
X165598D01*
X163492Y184299D02*
Y188512D01*
X174496Y127500D02*
X186504D01*
X180500Y121496D02*
Y133504D01*
X149575Y121595D02*
X153787D01*
X151681Y119488D02*
Y123701D01*
X149575Y133405D02*
X153787D01*
X151681Y131299D02*
Y135512D01*
X161386Y121595D02*
X165598D01*
X163492Y119488D02*
Y123701D01*
X161386Y133405D02*
X165598D01*
X163492Y131299D02*
Y135512D01*
X13189Y111000D02*
X25197D01*
X19193Y104996D02*
Y117004D01*
X45906Y116905D02*
X50118D01*
X48012Y114799D02*
Y119012D01*
X45906Y105095D02*
X50118D01*
X48012Y102988D02*
Y107201D01*
X34095Y116905D02*
X38307D01*
X36201Y114799D02*
Y119012D01*
X34095Y105095D02*
X38307D01*
X36201Y102988D02*
Y107201D01*
X13189Y202000D02*
X25197D01*
X19193Y195996D02*
Y208004D01*
X45906Y207906D02*
X50118D01*
X48012Y205799D02*
Y210012D01*
X45906Y196095D02*
X50118D01*
X48012Y193988D02*
Y198201D01*
X34095Y207906D02*
X38307D01*
X36201Y205799D02*
Y210012D01*
X34095Y196095D02*
X38307D01*
X36201Y193988D02*
Y198201D01*
X110600Y16000D02*
X113400D01*
X112000Y14600D02*
Y17400D01*
X110600Y21000D02*
X113400D01*
X112000Y19600D02*
Y22400D01*
X115600Y16000D02*
X118400D01*
X117000Y14600D02*
Y17400D01*
X115600Y21000D02*
X118400D01*
X117000Y19600D02*
Y22400D01*
X120600Y16000D02*
X123400D01*
X122000Y14600D02*
Y17400D01*
X120600Y21000D02*
X123400D01*
X122000Y19600D02*
Y22400D01*
X125600Y16000D02*
X128400D01*
X127000Y14600D02*
Y17400D01*
X125600Y21000D02*
X128400D01*
X127000Y19600D02*
Y22400D01*
X130600Y16000D02*
X133400D01*
X132000Y14600D02*
Y17400D01*
X130600Y21000D02*
X133400D01*
X132000Y19600D02*
Y22400D01*
X13189Y247500D02*
X25197D01*
X19193Y241496D02*
Y253504D01*
X45906Y253405D02*
X50118D01*
X48012Y251299D02*
Y255512D01*
X45906Y241595D02*
X50118D01*
X48012Y239488D02*
Y243701D01*
X34095Y253405D02*
X38307D01*
X36201Y251299D02*
Y255512D01*
X34095Y241595D02*
X38307D01*
X36201Y239488D02*
Y243701D01*
X138250Y190000D02*
X141750D01*
X140000Y188250D02*
Y191750D01*
X138250Y180000D02*
X141750D01*
X140000Y178250D02*
Y181750D01*
X138250Y170000D02*
X141750D01*
X140000Y168250D02*
Y171750D01*
X138250Y200000D02*
X141750D01*
X140000Y198250D02*
Y201750D01*
X138250Y230000D02*
X141750D01*
X140000Y228250D02*
Y231750D01*
X118250Y170000D02*
X121750D01*
X120000Y168250D02*
Y171750D01*
X128250Y170000D02*
X131750D01*
X130000Y168250D02*
Y171750D01*
X138250Y210000D02*
X141750D01*
X140000Y208250D02*
Y211750D01*
X138250Y220000D02*
X141750D01*
X140000Y218250D02*
Y221750D01*
X108250Y170000D02*
X111750D01*
X110000Y168250D02*
Y171750D01*
X98250Y170000D02*
X101750D01*
X100000Y168250D02*
Y171750D01*
X88250Y170000D02*
X91750D01*
X90000Y168250D02*
Y171750D01*
X78250Y170000D02*
X81750D01*
X80000Y168250D02*
Y171750D01*
X68250Y170000D02*
X71750D01*
X70000Y168250D02*
Y171750D01*
X70996Y19193D02*
X83004D01*
X77000Y13189D02*
Y25197D01*
X68988Y48012D02*
X73201D01*
X71095Y45906D02*
Y50118D01*
X80799Y48012D02*
X85012D01*
X82906Y45906D02*
Y50118D01*
X68988Y36201D02*
X73201D01*
X71095Y34095D02*
Y38307D01*
X80799Y36201D02*
X85012D01*
X82906Y34095D02*
Y38307D01*
X155335Y284500D02*
X159665D01*
X157500Y282335D02*
Y286665D01*
X140335Y284500D02*
X144665D01*
X142500Y282335D02*
Y286665D01*
X125335Y284500D02*
X129665D01*
X127500Y282335D02*
Y286665D01*
X58250Y210000D02*
X61750D01*
X60000Y208250D02*
Y211750D01*
X98250Y250000D02*
X101750D01*
X100000Y248250D02*
Y251750D01*
X88250Y250000D02*
X91750D01*
X90000Y248250D02*
Y251750D01*
X78250Y250000D02*
X81750D01*
X80000Y248250D02*
Y251750D01*
X34402Y72311D02*
X38614D01*
X36508Y70205D02*
Y74417D01*
X34402Y60500D02*
X38614D01*
X36508Y58394D02*
Y62606D01*
X34402Y48689D02*
X38614D01*
X36508Y46583D02*
Y50795D01*
X46213Y48689D02*
X50425D01*
X48319Y46583D02*
Y50795D01*
X46213Y60500D02*
X50425D01*
X48319Y58394D02*
Y62606D01*
X46213Y72311D02*
X50425D01*
X48319Y70205D02*
Y74417D01*
X13595Y60500D02*
X25405D01*
X19500Y54594D02*
Y66405D01*
X128250Y240000D02*
X131750D01*
X130000Y238250D02*
Y241750D01*
X118250Y240000D02*
X121750D01*
X120000Y238250D02*
Y241750D01*
X108250Y240000D02*
X111750D01*
X110000Y238250D02*
Y241750D01*
X98250Y240000D02*
X101750D01*
X100000Y238250D02*
Y241750D01*
X88250Y240000D02*
X91750D01*
X90000Y238250D02*
Y241750D01*
X78250Y240000D02*
X81750D01*
X80000Y238250D02*
Y241750D01*
X108250Y230000D02*
X111750D01*
X110000Y228250D02*
Y231750D01*
X98250Y230000D02*
X101750D01*
X100000Y228250D02*
Y231750D01*
X88250Y230000D02*
X91750D01*
X90000Y228250D02*
Y231750D01*
X78250Y230000D02*
X81750D01*
X80000Y228250D02*
Y231750D01*
X68250Y230000D02*
X71750D01*
X70000Y228250D02*
Y231750D01*
X58250Y220000D02*
X61750D01*
X60000Y218250D02*
Y221750D01*
X68250Y190000D02*
X71750D01*
X70000Y188250D02*
Y191750D01*
X78250Y220000D02*
X81750D01*
X80000Y218250D02*
Y221750D01*
X68250Y220000D02*
X71750D01*
X70000Y218250D02*
Y221750D01*
X138250Y250000D02*
X141750D01*
X140000Y248250D02*
Y251750D01*
X88250Y190000D02*
X91750D01*
X90000Y188250D02*
Y191750D01*
X78250Y180000D02*
X81750D01*
X80000Y178250D02*
Y181750D01*
X118250Y230000D02*
X121750D01*
X120000Y228250D02*
Y231750D01*
X128250Y230000D02*
X131750D01*
X130000Y228250D02*
Y231750D01*
X138250Y240000D02*
X141750D01*
X140000Y238250D02*
Y241750D01*
X88250Y180000D02*
X91750D01*
X90000Y178250D02*
Y181750D01*
X68250Y210000D02*
X71750D01*
X70000Y208250D02*
Y211750D01*
X128250Y220000D02*
X131750D01*
X130000Y218250D02*
Y221750D01*
X118250Y220000D02*
X121750D01*
X120000Y218250D02*
Y221750D01*
X108250Y220000D02*
X111750D01*
X110000Y218250D02*
Y221750D01*
X98250Y220000D02*
X101750D01*
X100000Y218250D02*
Y221750D01*
X88250Y220000D02*
X91750D01*
X90000Y218250D02*
Y221750D01*
X128250Y210000D02*
X131750D01*
X130000Y208250D02*
Y211750D01*
X118250Y210000D02*
X121750D01*
X120000Y208250D02*
Y211750D01*
X108250Y210000D02*
X111750D01*
X110000Y208250D02*
Y211750D01*
X98250Y210000D02*
X101750D01*
X100000Y208250D02*
Y211750D01*
X88250Y210000D02*
X91750D01*
X90000Y208250D02*
Y211750D01*
X78250Y210000D02*
X81750D01*
X80000Y208250D02*
Y211750D01*
X118250Y200000D02*
X121750D01*
X120000Y198250D02*
Y201750D01*
X108250Y200000D02*
X111750D01*
X110000Y198250D02*
Y201750D01*
X98250Y200000D02*
X101750D01*
X100000Y198250D02*
Y201750D01*
X88250Y200000D02*
X91750D01*
X90000Y198250D02*
Y201750D01*
X78250Y200000D02*
X81750D01*
X80000Y198250D02*
Y201750D01*
X68250Y200000D02*
X71750D01*
X70000Y198250D02*
Y201750D01*
X68250Y250000D02*
X71750D01*
X70000Y248250D02*
Y251750D01*
X98250Y190000D02*
X101750D01*
X100000Y188250D02*
Y191750D01*
X68250Y180000D02*
X71750D01*
X70000Y178250D02*
Y181750D01*
X128250Y180000D02*
X131750D01*
X130000Y178250D02*
Y181750D01*
X118250Y180000D02*
X121750D01*
X120000Y178250D02*
Y181750D01*
X108250Y180000D02*
X111750D01*
X110000Y178250D02*
Y181750D01*
X98250Y180000D02*
X101750D01*
X100000Y178250D02*
Y181750D01*
X68250Y240000D02*
X71750D01*
X70000Y238250D02*
Y241750D01*
X78250Y190000D02*
X81750D01*
X80000Y188250D02*
Y191750D01*
X58250Y200000D02*
X61750D01*
X60000Y198250D02*
Y201750D01*
X128250Y200000D02*
X131750D01*
X130000Y198250D02*
Y201750D01*
X58250Y230000D02*
X61750D01*
X60000Y228250D02*
Y231750D01*
X108250Y190000D02*
X111750D01*
X110000Y188250D02*
Y191750D01*
X128250Y190000D02*
X131750D01*
X130000Y188250D02*
Y191750D01*
X118250Y190000D02*
X121750D01*
X120000Y188250D02*
Y191750D01*
X163228Y26500D02*
X166772D01*
X165000Y24728D02*
Y28272D01*
X163228Y16500D02*
X166772D01*
X165000Y14728D02*
Y18272D01*
X163228Y6500D02*
X166772D01*
X165000Y4728D02*
Y8272D01*
X58250Y240000D02*
X61750D01*
X60000Y238250D02*
Y241750D01*
X58250Y250000D02*
X61750D01*
X60000Y248250D02*
Y251750D01*
X82016Y262500D02*
X83984D01*
X83000Y261516D02*
Y263484D01*
X72280Y84000D02*
X74249D01*
X73265Y83016D02*
Y84984D01*
X102016Y122000D02*
X103984D01*
X103000Y121016D02*
Y122984D01*
X101016Y131000D02*
X102984D01*
X102000Y130016D02*
Y131984D01*
X89516Y117500D02*
X91484D01*
X90500Y116516D02*
Y118484D01*
X141305Y118710D02*
X143274D01*
X142290Y117726D02*
Y119695D01*
X130516Y97000D02*
X132484D01*
X131500Y96016D02*
Y97984D01*
X75016Y125000D02*
X76984D01*
X76000Y124016D02*
Y125984D01*
X118516Y122500D02*
X120484D01*
X119500Y121516D02*
Y123484D01*
X110016Y73768D02*
X111984D01*
X111000Y72783D02*
Y74752D01*
X89516Y125500D02*
X91484D01*
X90500Y124516D02*
Y126484D01*
X89516Y104000D02*
X91484D01*
X90500Y103016D02*
Y104984D01*
X137016Y124000D02*
X138984D01*
X138000Y123016D02*
Y124984D01*
X111516Y112500D02*
X113484D01*
X112500Y111516D02*
Y113484D01*
X108016Y108000D02*
X109984D01*
X109000Y107016D02*
Y108984D01*
X110016Y79500D02*
X111984D01*
X111000Y78516D02*
Y80484D01*
X135112Y136904D02*
X137081D01*
X136097Y135919D02*
Y137888D01*
X104516Y103500D02*
X106484D01*
X105500Y102516D02*
Y104484D01*
X96016Y132500D02*
X97984D01*
X97000Y131516D02*
Y133484D01*
X76138Y105055D02*
X78106D01*
X77122Y104070D02*
Y106039D01*
X132516Y92000D02*
X134484D01*
X133500Y91016D02*
Y92984D01*
X114992Y117500D02*
X116961D01*
X115977Y116516D02*
Y118484D01*
X178700Y285000D02*
X191300D01*
X185000Y278700D02*
Y291300D01*
X8700Y285000D02*
X21300D01*
X15000Y278700D02*
Y291300D01*
X178700Y15000D02*
X191300D01*
X185000Y8700D02*
Y21300D01*
X8700Y15000D02*
X21300D01*
X15000Y8700D02*
Y21300D01*
X72516Y100500D02*
X74484D01*
X73500Y99516D02*
Y101484D01*
X71016Y115516D02*
X72984D01*
X72000Y114532D02*
Y116500D01*
X86016Y58000D02*
X87984D01*
X87000Y57016D02*
Y58984D01*
X100016Y50000D02*
X101984D01*
X101000Y49016D02*
Y50984D01*
X92016Y46821D02*
X93984D01*
X93000Y45837D02*
Y47805D01*
X143516Y34000D02*
X145484D01*
X144500Y33016D02*
Y34984D01*
X143516Y20000D02*
X145484D01*
X144500Y19016D02*
Y20984D01*
X135516Y50000D02*
X137484D01*
X136500Y49016D02*
Y50984D01*
X117016Y67000D02*
X118984D01*
X118000Y66016D02*
Y67984D01*
X129016Y67000D02*
X130984D01*
X130000Y66016D02*
Y67984D01*
X129516Y45000D02*
X131484D01*
X130500Y44016D02*
Y45984D01*
X123016Y50000D02*
X124984D01*
X124000Y49016D02*
Y50984D01*
X111016Y50000D02*
X112984D01*
X112000Y49016D02*
Y50984D01*
X117016Y45000D02*
X118984D01*
X118000Y44016D02*
Y45984D01*
X55516Y143000D02*
X57484D01*
X56500Y142016D02*
Y143984D01*
X55516Y135500D02*
X57484D01*
X56500Y134516D02*
Y136484D01*
X55516Y128500D02*
X57484D01*
X56500Y127516D02*
Y129484D01*
%TF.MD5,d0fce6660fbc039ad6d2927e6ad94c9a*%
M02*
