%TF.GenerationSoftware,Altium Limited,Altium Designer,20.1.14 (287)*%
G04 Layer_Physical_Order=3*
G04 Layer_Color=16440176*
%FSLAX25Y25*%
%MOIN*%
%TF.SameCoordinates,EAB65FBB-9CC0-4E70-8F82-B449C0BBF2B7*%
%TF.FilePolarity,Positive*%
%TF.FileFunction,Copper,L3,Inr,Signal*%
%TF.Part,Single*%
G01*
G75*
%TA.AperFunction,ComponentPad*%
%ADD16C,0.06102*%
%ADD17R,0.06102X0.06102*%
%ADD18C,0.06000*%
%ADD19C,0.12008*%
%ADD20C,0.06319*%
%ADD21R,0.06319X0.06319*%
%ADD22C,0.06378*%
%ADD23C,0.05898*%
%ADD24R,0.04000X0.04000*%
%ADD25C,0.04000*%
%ADD26R,0.06319X0.06319*%
%ADD27R,0.06496X0.06496*%
%ADD28C,0.06496*%
%ADD29C,0.06417*%
%ADD30R,0.05906X0.05906*%
%ADD31C,0.05906*%
%TA.AperFunction,ViaPad*%
%ADD32C,0.03937*%
%ADD33C,0.24000*%
G36*
X180555Y297000D02*
X179177Y296429D01*
X177461Y295377D01*
X175930Y294070D01*
X174623Y292540D01*
X173571Y290823D01*
X172801Y288964D01*
X172331Y287007D01*
X172173Y285000D01*
X172331Y282993D01*
X172801Y281036D01*
X173571Y279177D01*
X174623Y277461D01*
X175930Y275930D01*
X177461Y274623D01*
X179177Y273571D01*
X181036Y272801D01*
X182993Y272331D01*
X185000Y272173D01*
X187007Y272331D01*
X188964Y272801D01*
X190823Y273571D01*
X192540Y274623D01*
X194070Y275930D01*
X195377Y277461D01*
X196429Y279177D01*
X197000Y280555D01*
X197500Y280456D01*
X197500Y19544D01*
X197000Y19444D01*
X196429Y20823D01*
X195377Y22539D01*
X194070Y24070D01*
X192540Y25377D01*
X190823Y26429D01*
X188964Y27199D01*
X187007Y27669D01*
X185000Y27827D01*
X182993Y27669D01*
X181036Y27199D01*
X179177Y26429D01*
X177461Y25377D01*
X175930Y24070D01*
X174623Y22539D01*
X173571Y20823D01*
X172801Y18964D01*
X172331Y17007D01*
X172173Y15000D01*
X172331Y12993D01*
X172801Y11036D01*
X173571Y9177D01*
X174623Y7461D01*
X175930Y5930D01*
X177461Y4623D01*
X179177Y3571D01*
X180555Y3000D01*
X180456Y2500D01*
X166423D01*
X166324Y3000D01*
X166886Y3233D01*
X167667Y3833D01*
X168267Y4614D01*
X168644Y5524D01*
X168772Y6500D01*
X168644Y7476D01*
X168267Y8386D01*
X167667Y9167D01*
X166886Y9767D01*
X165976Y10144D01*
X165000Y10272D01*
X164024Y10144D01*
X163114Y9767D01*
X162332Y9167D01*
X161733Y8386D01*
X161356Y7476D01*
X161228Y6500D01*
X161356Y5524D01*
X161733Y4614D01*
X162332Y3833D01*
X163114Y3233D01*
X163676Y3000D01*
X163577Y2500D01*
X54646D01*
X54368Y2916D01*
X54498Y3229D01*
X54627Y4205D01*
X54498Y5180D01*
X54122Y6089D01*
X53523Y6869D01*
X52742Y7468D01*
X51834Y7845D01*
X50858Y7973D01*
X49883Y7845D01*
X48974Y7468D01*
X48194Y6869D01*
X47595Y6089D01*
X47218Y5180D01*
X47090Y4205D01*
X47218Y3229D01*
X47348Y2916D01*
X47070Y2500D01*
X37160D01*
X36882Y2916D01*
X36989Y3174D01*
X36993Y3205D01*
X33142D01*
X29291D01*
X29294Y3174D01*
X29401Y2916D01*
X29124Y2500D01*
X19544D01*
X19444Y3000D01*
X20823Y3571D01*
X22539Y4623D01*
X24070Y5930D01*
X25377Y7461D01*
X26429Y9177D01*
X27199Y11036D01*
X27669Y12993D01*
X27827Y15000D01*
X27669Y17007D01*
X27199Y18964D01*
X26429Y20823D01*
X25377Y22539D01*
X24070Y24070D01*
X22539Y25377D01*
X20823Y26429D01*
X18964Y27199D01*
X17007Y27669D01*
X15000Y27827D01*
X12993Y27669D01*
X11036Y27199D01*
X9177Y26429D01*
X7461Y25377D01*
X5930Y24070D01*
X4623Y22539D01*
X3571Y20823D01*
X3000Y19444D01*
X2500Y19544D01*
X2500Y280456D01*
X3000Y280556D01*
X3571Y279177D01*
X4623Y277461D01*
X5930Y275930D01*
X7461Y274623D01*
X9177Y273571D01*
X11036Y272801D01*
X12993Y272331D01*
X15000Y272173D01*
X17007Y272331D01*
X18964Y272801D01*
X20823Y273571D01*
X22539Y274623D01*
X24070Y275930D01*
X25377Y277461D01*
X26429Y279177D01*
X27199Y281036D01*
X27669Y282993D01*
X27827Y285000D01*
X27669Y287007D01*
X27199Y288964D01*
X26429Y290823D01*
X25377Y292540D01*
X24070Y294070D01*
X22539Y295377D01*
X20823Y296429D01*
X19444Y297000D01*
X19544Y297500D01*
X180456D01*
X180555Y297000D01*
D02*
G37*
%LPC*%
G36*
X106000Y288954D02*
Y286000D01*
X108955D01*
X108947Y286058D01*
X108539Y287043D01*
X107889Y287889D01*
X107043Y288539D01*
X106058Y288947D01*
X106000Y288954D01*
D02*
G37*
G36*
X104000D02*
X103942Y288947D01*
X102957Y288539D01*
X102111Y287889D01*
X101461Y287043D01*
X101053Y286058D01*
X101046Y286000D01*
X104000D01*
Y288954D01*
D02*
G37*
G36*
X96000D02*
Y286000D01*
X98954D01*
X98947Y286058D01*
X98539Y287043D01*
X97889Y287889D01*
X97043Y288539D01*
X96058Y288947D01*
X96000Y288954D01*
D02*
G37*
G36*
X94000D02*
X93942Y288947D01*
X92957Y288539D01*
X92111Y287889D01*
X91461Y287043D01*
X91053Y286058D01*
X91045Y286000D01*
X94000D01*
Y288954D01*
D02*
G37*
G36*
X86000D02*
Y286000D01*
X88955D01*
X88947Y286058D01*
X88539Y287043D01*
X87889Y287889D01*
X87043Y288539D01*
X86058Y288947D01*
X86000Y288954D01*
D02*
G37*
G36*
X84000D02*
X83942Y288947D01*
X82957Y288539D01*
X82111Y287889D01*
X81461Y287043D01*
X81053Y286058D01*
X81046Y286000D01*
X84000D01*
Y288954D01*
D02*
G37*
G36*
X76000D02*
Y286000D01*
X78954D01*
X78947Y286058D01*
X78539Y287043D01*
X77889Y287889D01*
X77043Y288539D01*
X76058Y288947D01*
X76000Y288954D01*
D02*
G37*
G36*
X74000D02*
X73942Y288947D01*
X72957Y288539D01*
X72111Y287889D01*
X71461Y287043D01*
X71053Y286058D01*
X71046Y286000D01*
X74000D01*
Y288954D01*
D02*
G37*
G36*
X66000D02*
Y286000D01*
X68954D01*
X68947Y286058D01*
X68539Y287043D01*
X67889Y287889D01*
X67043Y288539D01*
X66058Y288947D01*
X66000Y288954D01*
D02*
G37*
G36*
X64000D02*
X63942Y288947D01*
X62957Y288539D01*
X62111Y287889D01*
X61461Y287043D01*
X61053Y286058D01*
X61045Y286000D01*
X64000D01*
Y288954D01*
D02*
G37*
G36*
X56000D02*
Y286000D01*
X58955D01*
X58947Y286058D01*
X58539Y287043D01*
X57889Y287889D01*
X57043Y288539D01*
X56058Y288947D01*
X56000Y288954D01*
D02*
G37*
G36*
X54000D02*
X53942Y288947D01*
X52957Y288539D01*
X52111Y287889D01*
X51461Y287043D01*
X51053Y286058D01*
X51046Y286000D01*
X54000D01*
Y288954D01*
D02*
G37*
G36*
X161748Y288748D02*
X158500D01*
Y285500D01*
X161748D01*
Y288748D01*
D02*
G37*
G36*
X156500D02*
X153252D01*
Y285500D01*
X156500D01*
Y288748D01*
D02*
G37*
G36*
X45000Y288872D02*
X43998Y288740D01*
X43064Y288353D01*
X42262Y287738D01*
X41647Y286936D01*
X41260Y286002D01*
X41128Y285000D01*
X41260Y283998D01*
X41647Y283064D01*
X42262Y282262D01*
X43064Y281647D01*
X43998Y281260D01*
X45000Y281128D01*
X46002Y281260D01*
X46936Y281647D01*
X47738Y282262D01*
X48353Y283064D01*
X48740Y283998D01*
X48872Y285000D01*
X48740Y286002D01*
X48353Y286936D01*
X47738Y287738D01*
X46936Y288353D01*
X46002Y288740D01*
X45000Y288872D01*
D02*
G37*
G36*
X35000D02*
X33998Y288740D01*
X33064Y288353D01*
X32262Y287738D01*
X31647Y286936D01*
X31260Y286002D01*
X31128Y285000D01*
X31260Y283998D01*
X31647Y283064D01*
X32262Y282262D01*
X33064Y281647D01*
X33998Y281260D01*
X35000Y281128D01*
X36002Y281260D01*
X36936Y281647D01*
X37738Y282262D01*
X38353Y283064D01*
X38740Y283998D01*
X38872Y285000D01*
X38740Y286002D01*
X38353Y286936D01*
X37738Y287738D01*
X36936Y288353D01*
X36002Y288740D01*
X35000Y288872D01*
D02*
G37*
G36*
X108955Y284000D02*
X106000D01*
Y281046D01*
X106058Y281053D01*
X107043Y281461D01*
X107889Y282111D01*
X108539Y282957D01*
X108947Y283942D01*
X108955Y284000D01*
D02*
G37*
G36*
X104000D02*
X101046D01*
X101053Y283942D01*
X101461Y282957D01*
X102111Y282111D01*
X102957Y281461D01*
X103942Y281053D01*
X104000Y281046D01*
Y284000D01*
D02*
G37*
G36*
X98954D02*
X96000D01*
Y281046D01*
X96058Y281053D01*
X97043Y281461D01*
X97889Y282111D01*
X98539Y282957D01*
X98947Y283942D01*
X98954Y284000D01*
D02*
G37*
G36*
X94000D02*
X91045D01*
X91053Y283942D01*
X91461Y282957D01*
X92111Y282111D01*
X92957Y281461D01*
X93942Y281053D01*
X94000Y281046D01*
Y284000D01*
D02*
G37*
G36*
X88955D02*
X86000D01*
Y281046D01*
X86058Y281053D01*
X87043Y281461D01*
X87889Y282111D01*
X88539Y282957D01*
X88947Y283942D01*
X88955Y284000D01*
D02*
G37*
G36*
X84000D02*
X81046D01*
X81053Y283942D01*
X81461Y282957D01*
X82111Y282111D01*
X82957Y281461D01*
X83942Y281053D01*
X84000Y281046D01*
Y284000D01*
D02*
G37*
G36*
X78954D02*
X76000D01*
Y281046D01*
X76058Y281053D01*
X77043Y281461D01*
X77889Y282111D01*
X78539Y282957D01*
X78947Y283942D01*
X78954Y284000D01*
D02*
G37*
G36*
X74000D02*
X71046D01*
X71053Y283942D01*
X71461Y282957D01*
X72111Y282111D01*
X72957Y281461D01*
X73942Y281053D01*
X74000Y281046D01*
Y284000D01*
D02*
G37*
G36*
X68954D02*
X66000D01*
Y281046D01*
X66058Y281053D01*
X67043Y281461D01*
X67889Y282111D01*
X68539Y282957D01*
X68947Y283942D01*
X68954Y284000D01*
D02*
G37*
G36*
X64000D02*
X61045D01*
X61053Y283942D01*
X61461Y282957D01*
X62111Y282111D01*
X62957Y281461D01*
X63942Y281053D01*
X64000Y281046D01*
Y284000D01*
D02*
G37*
G36*
X58955D02*
X56000D01*
Y281046D01*
X56058Y281053D01*
X57043Y281461D01*
X57889Y282111D01*
X58539Y282957D01*
X58947Y283942D01*
X58955Y284000D01*
D02*
G37*
G36*
X54000D02*
X51046D01*
X51053Y283942D01*
X51461Y282957D01*
X52111Y282111D01*
X52957Y281461D01*
X53942Y281053D01*
X54000Y281046D01*
Y284000D01*
D02*
G37*
G36*
X142500Y288570D02*
X141446Y288432D01*
X140465Y288025D01*
X139622Y287378D01*
X138975Y286535D01*
X138568Y285554D01*
X138430Y284500D01*
X138568Y283447D01*
X138975Y282465D01*
X139622Y281622D01*
X140465Y280975D01*
X141446Y280568D01*
X142500Y280430D01*
X143553Y280568D01*
X144535Y280975D01*
X145378Y281622D01*
X146025Y282465D01*
X146432Y283447D01*
X146570Y284500D01*
X146432Y285554D01*
X146025Y286535D01*
X145378Y287378D01*
X144535Y288025D01*
X143553Y288432D01*
X142500Y288570D01*
D02*
G37*
G36*
X127500D02*
X126446Y288432D01*
X125465Y288025D01*
X124622Y287378D01*
X123975Y286535D01*
X123568Y285554D01*
X123430Y284500D01*
X123568Y283447D01*
X123975Y282465D01*
X124622Y281622D01*
X125465Y280975D01*
X126446Y280568D01*
X127500Y280430D01*
X128553Y280568D01*
X129535Y280975D01*
X130378Y281622D01*
X131025Y282465D01*
X131432Y283447D01*
X131570Y284500D01*
X131432Y285554D01*
X131025Y286535D01*
X130378Y287378D01*
X129535Y288025D01*
X128553Y288432D01*
X127500Y288570D01*
D02*
G37*
G36*
X161748Y283500D02*
X158500D01*
Y280252D01*
X161748D01*
Y283500D01*
D02*
G37*
G36*
X156500D02*
X153252D01*
Y280252D01*
X156500D01*
Y283500D01*
D02*
G37*
G36*
X38839Y278839D02*
X31161D01*
Y271161D01*
X38839D01*
Y278839D01*
D02*
G37*
G36*
X105000Y278872D02*
X103998Y278740D01*
X103064Y278353D01*
X102262Y277738D01*
X101647Y276936D01*
X101260Y276002D01*
X101128Y275000D01*
X101260Y273998D01*
X101647Y273064D01*
X102262Y272262D01*
X103064Y271647D01*
X103998Y271260D01*
X105000Y271128D01*
X106002Y271260D01*
X106936Y271647D01*
X107738Y272262D01*
X108353Y273064D01*
X108740Y273998D01*
X108872Y275000D01*
X108740Y276002D01*
X108353Y276936D01*
X107738Y277738D01*
X106936Y278353D01*
X106002Y278740D01*
X105000Y278872D01*
D02*
G37*
G36*
X95000D02*
X93998Y278740D01*
X93064Y278353D01*
X92262Y277738D01*
X91647Y276936D01*
X91260Y276002D01*
X91128Y275000D01*
X91260Y273998D01*
X91647Y273064D01*
X92262Y272262D01*
X93064Y271647D01*
X93998Y271260D01*
X95000Y271128D01*
X96002Y271260D01*
X96936Y271647D01*
X97738Y272262D01*
X98353Y273064D01*
X98740Y273998D01*
X98872Y275000D01*
X98740Y276002D01*
X98353Y276936D01*
X97738Y277738D01*
X96936Y278353D01*
X96002Y278740D01*
X95000Y278872D01*
D02*
G37*
G36*
X85000D02*
X83998Y278740D01*
X83064Y278353D01*
X82262Y277738D01*
X81647Y276936D01*
X81260Y276002D01*
X81128Y275000D01*
X81260Y273998D01*
X81647Y273064D01*
X82262Y272262D01*
X83064Y271647D01*
X83998Y271260D01*
X85000Y271128D01*
X86002Y271260D01*
X86936Y271647D01*
X87738Y272262D01*
X88353Y273064D01*
X88740Y273998D01*
X88872Y275000D01*
X88740Y276002D01*
X88353Y276936D01*
X87738Y277738D01*
X86936Y278353D01*
X86002Y278740D01*
X85000Y278872D01*
D02*
G37*
G36*
X75000D02*
X73998Y278740D01*
X73064Y278353D01*
X72262Y277738D01*
X71647Y276936D01*
X71260Y276002D01*
X71128Y275000D01*
X71260Y273998D01*
X71647Y273064D01*
X72262Y272262D01*
X73064Y271647D01*
X73998Y271260D01*
X75000Y271128D01*
X76002Y271260D01*
X76936Y271647D01*
X77738Y272262D01*
X78353Y273064D01*
X78740Y273998D01*
X78872Y275000D01*
X78740Y276002D01*
X78353Y276936D01*
X77738Y277738D01*
X76936Y278353D01*
X76002Y278740D01*
X75000Y278872D01*
D02*
G37*
G36*
X65000D02*
X63998Y278740D01*
X63064Y278353D01*
X62262Y277738D01*
X61647Y276936D01*
X61260Y276002D01*
X61128Y275000D01*
X61260Y273998D01*
X61647Y273064D01*
X62262Y272262D01*
X63064Y271647D01*
X63998Y271260D01*
X65000Y271128D01*
X66002Y271260D01*
X66936Y271647D01*
X67738Y272262D01*
X68353Y273064D01*
X68740Y273998D01*
X68872Y275000D01*
X68740Y276002D01*
X68353Y276936D01*
X67738Y277738D01*
X66936Y278353D01*
X66002Y278740D01*
X65000Y278872D01*
D02*
G37*
G36*
X55000D02*
X53998Y278740D01*
X53064Y278353D01*
X52262Y277738D01*
X51647Y276936D01*
X51260Y276002D01*
X51128Y275000D01*
X51260Y273998D01*
X51647Y273064D01*
X52262Y272262D01*
X53064Y271647D01*
X53998Y271260D01*
X55000Y271128D01*
X56002Y271260D01*
X56936Y271647D01*
X57738Y272262D01*
X58353Y273064D01*
X58740Y273998D01*
X58872Y275000D01*
X58740Y276002D01*
X58353Y276936D01*
X57738Y277738D01*
X56936Y278353D01*
X56002Y278740D01*
X55000Y278872D01*
D02*
G37*
G36*
X45000D02*
X43998Y278740D01*
X43064Y278353D01*
X42262Y277738D01*
X41647Y276936D01*
X41260Y276002D01*
X41128Y275000D01*
X41260Y273998D01*
X41647Y273064D01*
X42262Y272262D01*
X43064Y271647D01*
X43998Y271260D01*
X45000Y271128D01*
X46002Y271260D01*
X46936Y271647D01*
X47738Y272262D01*
X48353Y273064D01*
X48740Y273998D01*
X48872Y275000D01*
X48740Y276002D01*
X48353Y276936D01*
X47738Y277738D01*
X46936Y278353D01*
X46002Y278740D01*
X45000Y278872D01*
D02*
G37*
G36*
X83000Y265280D02*
X82281Y265185D01*
X81610Y264907D01*
X81034Y264465D01*
X80593Y263890D01*
X80315Y263219D01*
X80220Y262500D01*
X80315Y261781D01*
X80593Y261110D01*
X81034Y260535D01*
X81610Y260093D01*
X82281Y259815D01*
X83000Y259720D01*
X83719Y259815D01*
X84390Y260093D01*
X84965Y260535D01*
X85407Y261110D01*
X85685Y261781D01*
X85780Y262500D01*
X85685Y263219D01*
X85407Y263890D01*
X84965Y264465D01*
X84390Y264907D01*
X83719Y265185D01*
X83000Y265280D01*
D02*
G37*
G36*
X101000Y253903D02*
Y251000D01*
X103903D01*
X103897Y251044D01*
X103494Y252017D01*
X102853Y252853D01*
X102017Y253494D01*
X101044Y253897D01*
X101000Y253903D01*
D02*
G37*
G36*
X99000D02*
X98956Y253897D01*
X97983Y253494D01*
X97147Y252853D01*
X96506Y252017D01*
X96103Y251044D01*
X96097Y251000D01*
X99000D01*
Y253903D01*
D02*
G37*
G36*
X91000D02*
Y251000D01*
X93903D01*
X93897Y251044D01*
X93494Y252017D01*
X92853Y252853D01*
X92017Y253494D01*
X91044Y253897D01*
X91000Y253903D01*
D02*
G37*
G36*
X89000D02*
X88956Y253897D01*
X87983Y253494D01*
X87147Y252853D01*
X86506Y252017D01*
X86103Y251044D01*
X86097Y251000D01*
X89000D01*
Y253903D01*
D02*
G37*
G36*
X81000D02*
Y251000D01*
X83903D01*
X83897Y251044D01*
X83494Y252017D01*
X82853Y252853D01*
X82017Y253494D01*
X81044Y253897D01*
X81000Y253903D01*
D02*
G37*
G36*
X79000D02*
X78956Y253897D01*
X77983Y253494D01*
X77147Y252853D01*
X76506Y252017D01*
X76103Y251044D01*
X76097Y251000D01*
X79000D01*
Y253903D01*
D02*
G37*
G36*
X48012Y257386D02*
X46981Y257251D01*
X46021Y256853D01*
X45197Y256220D01*
X44564Y255396D01*
X44167Y254436D01*
X44031Y253405D01*
X44167Y252375D01*
X44564Y251415D01*
X45197Y250591D01*
X46021Y249958D01*
X46981Y249560D01*
X48012Y249425D01*
X49042Y249560D01*
X50002Y249958D01*
X50827Y250591D01*
X51459Y251415D01*
X51857Y252375D01*
X51993Y253405D01*
X51857Y254436D01*
X51459Y255396D01*
X50827Y256220D01*
X50002Y256853D01*
X49042Y257251D01*
X48012Y257386D01*
D02*
G37*
G36*
X36201D02*
X35170Y257251D01*
X34210Y256853D01*
X33386Y256220D01*
X32753Y255396D01*
X32355Y254436D01*
X32220Y253405D01*
X32355Y252375D01*
X32753Y251415D01*
X33386Y250591D01*
X34210Y249958D01*
X35170Y249560D01*
X36201Y249425D01*
X37231Y249560D01*
X38191Y249958D01*
X39016Y250591D01*
X39648Y251415D01*
X40046Y252375D01*
X40182Y253405D01*
X40046Y254436D01*
X39648Y255396D01*
X39016Y256220D01*
X38191Y256853D01*
X37231Y257251D01*
X36201Y257386D01*
D02*
G37*
G36*
X140000Y253820D02*
X139011Y253690D01*
X138090Y253308D01*
X137299Y252701D01*
X136692Y251910D01*
X136310Y250989D01*
X136180Y250000D01*
X136310Y249011D01*
X136692Y248090D01*
X137299Y247299D01*
X138090Y246692D01*
X139011Y246310D01*
X140000Y246180D01*
X140989Y246310D01*
X141910Y246692D01*
X142701Y247299D01*
X143308Y248090D01*
X143690Y249011D01*
X143820Y250000D01*
X143690Y250989D01*
X143308Y251910D01*
X142701Y252701D01*
X141910Y253308D01*
X140989Y253690D01*
X140000Y253820D01*
D02*
G37*
G36*
X130000D02*
X129011Y253690D01*
X128090Y253308D01*
X127299Y252701D01*
X126692Y251910D01*
X126310Y250989D01*
X126180Y250000D01*
X126310Y249011D01*
X126692Y248090D01*
X127299Y247299D01*
X128090Y246692D01*
X129011Y246310D01*
X130000Y246180D01*
X130989Y246310D01*
X131910Y246692D01*
X132701Y247299D01*
X133308Y248090D01*
X133690Y249011D01*
X133820Y250000D01*
X133690Y250989D01*
X133308Y251910D01*
X132701Y252701D01*
X131910Y253308D01*
X130989Y253690D01*
X130000Y253820D01*
D02*
G37*
G36*
X120000D02*
X119011Y253690D01*
X118090Y253308D01*
X117299Y252701D01*
X116692Y251910D01*
X116310Y250989D01*
X116180Y250000D01*
X116310Y249011D01*
X116692Y248090D01*
X117299Y247299D01*
X118090Y246692D01*
X119011Y246310D01*
X120000Y246180D01*
X120989Y246310D01*
X121910Y246692D01*
X122701Y247299D01*
X123308Y248090D01*
X123690Y249011D01*
X123820Y250000D01*
X123690Y250989D01*
X123308Y251910D01*
X122701Y252701D01*
X121910Y253308D01*
X120989Y253690D01*
X120000Y253820D01*
D02*
G37*
G36*
X110000D02*
X109011Y253690D01*
X108090Y253308D01*
X107299Y252701D01*
X106692Y251910D01*
X106310Y250989D01*
X106180Y250000D01*
X106310Y249011D01*
X106692Y248090D01*
X107299Y247299D01*
X108090Y246692D01*
X109011Y246310D01*
X110000Y246180D01*
X110989Y246310D01*
X111910Y246692D01*
X112701Y247299D01*
X113308Y248090D01*
X113690Y249011D01*
X113820Y250000D01*
X113690Y250989D01*
X113308Y251910D01*
X112701Y252701D01*
X111910Y253308D01*
X110989Y253690D01*
X110000Y253820D01*
D02*
G37*
G36*
X70000D02*
X69011Y253690D01*
X68090Y253308D01*
X67299Y252701D01*
X66692Y251910D01*
X66310Y250989D01*
X66180Y250000D01*
X66310Y249011D01*
X66692Y248090D01*
X67299Y247299D01*
X68090Y246692D01*
X69011Y246310D01*
X70000Y246180D01*
X70989Y246310D01*
X71910Y246692D01*
X72701Y247299D01*
X73308Y248090D01*
X73690Y249011D01*
X73820Y250000D01*
X73690Y250989D01*
X73308Y251910D01*
X72701Y252701D01*
X71910Y253308D01*
X70989Y253690D01*
X70000Y253820D01*
D02*
G37*
G36*
X60000D02*
X59011Y253690D01*
X58090Y253308D01*
X57299Y252701D01*
X56692Y251910D01*
X56310Y250989D01*
X56180Y250000D01*
X56310Y249011D01*
X56692Y248090D01*
X57299Y247299D01*
X58090Y246692D01*
X59011Y246310D01*
X60000Y246180D01*
X60989Y246310D01*
X61910Y246692D01*
X62701Y247299D01*
X63308Y248090D01*
X63690Y249011D01*
X63820Y250000D01*
X63690Y250989D01*
X63308Y251910D01*
X62701Y252701D01*
X61910Y253308D01*
X60989Y253690D01*
X60000Y253820D01*
D02*
G37*
G36*
X103903Y249000D02*
X101000D01*
Y246097D01*
X101044Y246103D01*
X102017Y246506D01*
X102853Y247147D01*
X103494Y247983D01*
X103897Y248956D01*
X103903Y249000D01*
D02*
G37*
G36*
X99000D02*
X96097D01*
X96103Y248956D01*
X96506Y247983D01*
X97147Y247147D01*
X97983Y246506D01*
X98956Y246103D01*
X99000Y246097D01*
Y249000D01*
D02*
G37*
G36*
X93903D02*
X91000D01*
Y246097D01*
X91044Y246103D01*
X92017Y246506D01*
X92853Y247147D01*
X93494Y247983D01*
X93897Y248956D01*
X93903Y249000D01*
D02*
G37*
G36*
X89000D02*
X86097D01*
X86103Y248956D01*
X86506Y247983D01*
X87147Y247147D01*
X87983Y246506D01*
X88956Y246103D01*
X89000Y246097D01*
Y249000D01*
D02*
G37*
G36*
X83903D02*
X81000D01*
Y246097D01*
X81044Y246103D01*
X82017Y246506D01*
X82853Y247147D01*
X83494Y247983D01*
X83897Y248956D01*
X83903Y249000D01*
D02*
G37*
G36*
X79000D02*
X76097D01*
X76103Y248956D01*
X76506Y247983D01*
X77147Y247147D01*
X77983Y246506D01*
X78956Y246103D01*
X79000Y246097D01*
Y249000D01*
D02*
G37*
G36*
X40360Y245754D02*
X37201D01*
Y242595D01*
X40360D01*
Y245754D01*
D02*
G37*
G36*
X35201D02*
X32041D01*
Y242595D01*
X35201D01*
Y245754D01*
D02*
G37*
G36*
X19193Y254324D02*
X17862Y254193D01*
X16581Y253805D01*
X15402Y253174D01*
X14367Y252325D01*
X13519Y251291D01*
X12888Y250112D01*
X12500Y248831D01*
X12369Y247500D01*
X12500Y246169D01*
X12888Y244888D01*
X13519Y243709D01*
X14367Y242675D01*
X15402Y241826D01*
X16581Y241195D01*
X17862Y240807D01*
X19193Y240676D01*
X20524Y240807D01*
X21804Y241195D01*
X22984Y241826D01*
X24018Y242675D01*
X24867Y243709D01*
X25498Y244888D01*
X25886Y246169D01*
X26017Y247500D01*
X25886Y248831D01*
X25498Y250112D01*
X24867Y251291D01*
X24018Y252325D01*
X22984Y253174D01*
X21804Y253805D01*
X20524Y254193D01*
X19193Y254324D01*
D02*
G37*
G36*
X167652Y243065D02*
X164492D01*
Y239906D01*
X167652D01*
Y243065D01*
D02*
G37*
G36*
X162492D02*
X159333D01*
Y239906D01*
X162492D01*
Y243065D01*
D02*
G37*
G36*
X48012Y245575D02*
X46981Y245440D01*
X46021Y245042D01*
X45197Y244409D01*
X44564Y243585D01*
X44167Y242625D01*
X44031Y241595D01*
X44167Y240564D01*
X44564Y239604D01*
X45197Y238780D01*
X46021Y238147D01*
X46981Y237749D01*
X48012Y237614D01*
X49042Y237749D01*
X50002Y238147D01*
X50827Y238780D01*
X51459Y239604D01*
X51857Y240564D01*
X51993Y241595D01*
X51857Y242625D01*
X51459Y243585D01*
X50827Y244409D01*
X50002Y245042D01*
X49042Y245440D01*
X48012Y245575D01*
D02*
G37*
G36*
X40360Y240595D02*
X37201D01*
Y237435D01*
X40360D01*
Y240595D01*
D02*
G37*
G36*
X35201D02*
X32041D01*
Y237435D01*
X35201D01*
Y240595D01*
D02*
G37*
G36*
X140000Y243820D02*
X139011Y243690D01*
X138090Y243308D01*
X137299Y242701D01*
X136692Y241910D01*
X136310Y240989D01*
X136180Y240000D01*
X136310Y239011D01*
X136692Y238090D01*
X137299Y237299D01*
X138090Y236692D01*
X139011Y236310D01*
X140000Y236180D01*
X140989Y236310D01*
X141910Y236692D01*
X142701Y237299D01*
X143308Y238090D01*
X143690Y239011D01*
X143820Y240000D01*
X143690Y240989D01*
X143308Y241910D01*
X142701Y242701D01*
X141910Y243308D01*
X140989Y243690D01*
X140000Y243820D01*
D02*
G37*
G36*
X130000D02*
X129011Y243690D01*
X128090Y243308D01*
X127299Y242701D01*
X126692Y241910D01*
X126310Y240989D01*
X126180Y240000D01*
X126310Y239011D01*
X126692Y238090D01*
X127299Y237299D01*
X128090Y236692D01*
X129011Y236310D01*
X130000Y236180D01*
X130989Y236310D01*
X131910Y236692D01*
X132701Y237299D01*
X133308Y238090D01*
X133690Y239011D01*
X133820Y240000D01*
X133690Y240989D01*
X133308Y241910D01*
X132701Y242701D01*
X131910Y243308D01*
X130989Y243690D01*
X130000Y243820D01*
D02*
G37*
G36*
X120000D02*
X119011Y243690D01*
X118090Y243308D01*
X117299Y242701D01*
X116692Y241910D01*
X116310Y240989D01*
X116180Y240000D01*
X116310Y239011D01*
X116692Y238090D01*
X117299Y237299D01*
X118090Y236692D01*
X119011Y236310D01*
X120000Y236180D01*
X120989Y236310D01*
X121910Y236692D01*
X122701Y237299D01*
X123308Y238090D01*
X123690Y239011D01*
X123820Y240000D01*
X123690Y240989D01*
X123308Y241910D01*
X122701Y242701D01*
X121910Y243308D01*
X120989Y243690D01*
X120000Y243820D01*
D02*
G37*
G36*
X110000D02*
X109011Y243690D01*
X108090Y243308D01*
X107299Y242701D01*
X106692Y241910D01*
X106310Y240989D01*
X106180Y240000D01*
X106310Y239011D01*
X106692Y238090D01*
X107299Y237299D01*
X108090Y236692D01*
X109011Y236310D01*
X110000Y236180D01*
X110989Y236310D01*
X111910Y236692D01*
X112701Y237299D01*
X113308Y238090D01*
X113690Y239011D01*
X113820Y240000D01*
X113690Y240989D01*
X113308Y241910D01*
X112701Y242701D01*
X111910Y243308D01*
X110989Y243690D01*
X110000Y243820D01*
D02*
G37*
G36*
X100000D02*
X99011Y243690D01*
X98090Y243308D01*
X97299Y242701D01*
X96692Y241910D01*
X96310Y240989D01*
X96180Y240000D01*
X96310Y239011D01*
X96692Y238090D01*
X97299Y237299D01*
X98090Y236692D01*
X99011Y236310D01*
X100000Y236180D01*
X100989Y236310D01*
X101910Y236692D01*
X102701Y237299D01*
X103308Y238090D01*
X103690Y239011D01*
X103820Y240000D01*
X103690Y240989D01*
X103308Y241910D01*
X102701Y242701D01*
X101910Y243308D01*
X100989Y243690D01*
X100000Y243820D01*
D02*
G37*
G36*
X90000D02*
X89011Y243690D01*
X88090Y243308D01*
X87299Y242701D01*
X86692Y241910D01*
X86310Y240989D01*
X86180Y240000D01*
X86310Y239011D01*
X86692Y238090D01*
X87299Y237299D01*
X88090Y236692D01*
X89011Y236310D01*
X90000Y236180D01*
X90989Y236310D01*
X91910Y236692D01*
X92701Y237299D01*
X93308Y238090D01*
X93690Y239011D01*
X93820Y240000D01*
X93690Y240989D01*
X93308Y241910D01*
X92701Y242701D01*
X91910Y243308D01*
X90989Y243690D01*
X90000Y243820D01*
D02*
G37*
G36*
X80000D02*
X79011Y243690D01*
X78090Y243308D01*
X77299Y242701D01*
X76692Y241910D01*
X76310Y240989D01*
X76180Y240000D01*
X76310Y239011D01*
X76692Y238090D01*
X77299Y237299D01*
X78090Y236692D01*
X79011Y236310D01*
X80000Y236180D01*
X80989Y236310D01*
X81910Y236692D01*
X82701Y237299D01*
X83308Y238090D01*
X83690Y239011D01*
X83820Y240000D01*
X83690Y240989D01*
X83308Y241910D01*
X82701Y242701D01*
X81910Y243308D01*
X80989Y243690D01*
X80000Y243820D01*
D02*
G37*
G36*
X70000D02*
X69011Y243690D01*
X68090Y243308D01*
X67299Y242701D01*
X66692Y241910D01*
X66310Y240989D01*
X66180Y240000D01*
X66310Y239011D01*
X66692Y238090D01*
X67299Y237299D01*
X68090Y236692D01*
X69011Y236310D01*
X70000Y236180D01*
X70989Y236310D01*
X71910Y236692D01*
X72701Y237299D01*
X73308Y238090D01*
X73690Y239011D01*
X73820Y240000D01*
X73690Y240989D01*
X73308Y241910D01*
X72701Y242701D01*
X71910Y243308D01*
X70989Y243690D01*
X70000Y243820D01*
D02*
G37*
G36*
X60000D02*
X59011Y243690D01*
X58090Y243308D01*
X57299Y242701D01*
X56692Y241910D01*
X56310Y240989D01*
X56180Y240000D01*
X56310Y239011D01*
X56692Y238090D01*
X57299Y237299D01*
X58090Y236692D01*
X59011Y236310D01*
X60000Y236180D01*
X60989Y236310D01*
X61910Y236692D01*
X62701Y237299D01*
X63308Y238090D01*
X63690Y239011D01*
X63820Y240000D01*
X63690Y240989D01*
X63308Y241910D01*
X62701Y242701D01*
X61910Y243308D01*
X60989Y243690D01*
X60000Y243820D01*
D02*
G37*
G36*
X151681Y242886D02*
X150651Y242751D01*
X149691Y242353D01*
X148866Y241720D01*
X148233Y240896D01*
X147836Y239936D01*
X147700Y238906D01*
X147836Y237875D01*
X148233Y236915D01*
X148866Y236091D01*
X149691Y235458D01*
X150651Y235060D01*
X151681Y234925D01*
X152711Y235060D01*
X153672Y235458D01*
X154496Y236091D01*
X155129Y236915D01*
X155526Y237875D01*
X155662Y238906D01*
X155526Y239936D01*
X155129Y240896D01*
X154496Y241720D01*
X153672Y242353D01*
X152711Y242751D01*
X151681Y242886D01*
D02*
G37*
G36*
X167652Y237906D02*
X164492D01*
Y234746D01*
X167652D01*
Y237906D01*
D02*
G37*
G36*
X162492D02*
X159333D01*
Y234746D01*
X162492D01*
Y237906D01*
D02*
G37*
G36*
X140000Y233820D02*
X139011Y233690D01*
X138090Y233308D01*
X137299Y232701D01*
X136692Y231910D01*
X136310Y230989D01*
X136180Y230000D01*
X136310Y229011D01*
X136692Y228090D01*
X137299Y227299D01*
X138090Y226692D01*
X139011Y226310D01*
X140000Y226180D01*
X140989Y226310D01*
X141910Y226692D01*
X142701Y227299D01*
X143308Y228090D01*
X143690Y229011D01*
X143820Y230000D01*
X143690Y230989D01*
X143308Y231910D01*
X142701Y232701D01*
X141910Y233308D01*
X140989Y233690D01*
X140000Y233820D01*
D02*
G37*
G36*
X130000D02*
X129011Y233690D01*
X128090Y233308D01*
X127299Y232701D01*
X126692Y231910D01*
X126310Y230989D01*
X126180Y230000D01*
X126310Y229011D01*
X126692Y228090D01*
X127299Y227299D01*
X128090Y226692D01*
X129011Y226310D01*
X130000Y226180D01*
X130989Y226310D01*
X131910Y226692D01*
X132701Y227299D01*
X133308Y228090D01*
X133690Y229011D01*
X133820Y230000D01*
X133690Y230989D01*
X133308Y231910D01*
X132701Y232701D01*
X131910Y233308D01*
X130989Y233690D01*
X130000Y233820D01*
D02*
G37*
G36*
X120000D02*
X119011Y233690D01*
X118090Y233308D01*
X117299Y232701D01*
X116692Y231910D01*
X116310Y230989D01*
X116180Y230000D01*
X116310Y229011D01*
X116692Y228090D01*
X117299Y227299D01*
X118090Y226692D01*
X119011Y226310D01*
X120000Y226180D01*
X120989Y226310D01*
X121910Y226692D01*
X122701Y227299D01*
X123308Y228090D01*
X123690Y229011D01*
X123820Y230000D01*
X123690Y230989D01*
X123308Y231910D01*
X122701Y232701D01*
X121910Y233308D01*
X120989Y233690D01*
X120000Y233820D01*
D02*
G37*
G36*
X110000D02*
X109011Y233690D01*
X108090Y233308D01*
X107299Y232701D01*
X106692Y231910D01*
X106310Y230989D01*
X106180Y230000D01*
X106310Y229011D01*
X106692Y228090D01*
X107299Y227299D01*
X108090Y226692D01*
X109011Y226310D01*
X110000Y226180D01*
X110989Y226310D01*
X111910Y226692D01*
X112701Y227299D01*
X113308Y228090D01*
X113690Y229011D01*
X113820Y230000D01*
X113690Y230989D01*
X113308Y231910D01*
X112701Y232701D01*
X111910Y233308D01*
X110989Y233690D01*
X110000Y233820D01*
D02*
G37*
G36*
X100000D02*
X99011Y233690D01*
X98090Y233308D01*
X97299Y232701D01*
X96692Y231910D01*
X96310Y230989D01*
X96180Y230000D01*
X96310Y229011D01*
X96692Y228090D01*
X97299Y227299D01*
X98090Y226692D01*
X99011Y226310D01*
X100000Y226180D01*
X100989Y226310D01*
X101910Y226692D01*
X102701Y227299D01*
X103308Y228090D01*
X103690Y229011D01*
X103820Y230000D01*
X103690Y230989D01*
X103308Y231910D01*
X102701Y232701D01*
X101910Y233308D01*
X100989Y233690D01*
X100000Y233820D01*
D02*
G37*
G36*
X90000D02*
X89011Y233690D01*
X88090Y233308D01*
X87299Y232701D01*
X86692Y231910D01*
X86310Y230989D01*
X86180Y230000D01*
X86310Y229011D01*
X86692Y228090D01*
X87299Y227299D01*
X88090Y226692D01*
X89011Y226310D01*
X90000Y226180D01*
X90989Y226310D01*
X91910Y226692D01*
X92701Y227299D01*
X93308Y228090D01*
X93690Y229011D01*
X93820Y230000D01*
X93690Y230989D01*
X93308Y231910D01*
X92701Y232701D01*
X91910Y233308D01*
X90989Y233690D01*
X90000Y233820D01*
D02*
G37*
G36*
X80000D02*
X79011Y233690D01*
X78090Y233308D01*
X77299Y232701D01*
X76692Y231910D01*
X76310Y230989D01*
X76180Y230000D01*
X76310Y229011D01*
X76692Y228090D01*
X77299Y227299D01*
X78090Y226692D01*
X79011Y226310D01*
X80000Y226180D01*
X80989Y226310D01*
X81910Y226692D01*
X82701Y227299D01*
X83308Y228090D01*
X83690Y229011D01*
X83820Y230000D01*
X83690Y230989D01*
X83308Y231910D01*
X82701Y232701D01*
X81910Y233308D01*
X80989Y233690D01*
X80000Y233820D01*
D02*
G37*
G36*
X70000D02*
X69011Y233690D01*
X68090Y233308D01*
X67299Y232701D01*
X66692Y231910D01*
X66310Y230989D01*
X66180Y230000D01*
X66310Y229011D01*
X66692Y228090D01*
X67299Y227299D01*
X68090Y226692D01*
X69011Y226310D01*
X70000Y226180D01*
X70989Y226310D01*
X71910Y226692D01*
X72701Y227299D01*
X73308Y228090D01*
X73690Y229011D01*
X73820Y230000D01*
X73690Y230989D01*
X73308Y231910D01*
X72701Y232701D01*
X71910Y233308D01*
X70989Y233690D01*
X70000Y233820D01*
D02*
G37*
G36*
X60000D02*
X59011Y233690D01*
X58090Y233308D01*
X57299Y232701D01*
X56692Y231910D01*
X56310Y230989D01*
X56180Y230000D01*
X56310Y229011D01*
X56692Y228090D01*
X57299Y227299D01*
X58090Y226692D01*
X59011Y226310D01*
X60000Y226180D01*
X60989Y226310D01*
X61910Y226692D01*
X62701Y227299D01*
X63308Y228090D01*
X63690Y229011D01*
X63820Y230000D01*
X63690Y230989D01*
X63308Y231910D01*
X62701Y232701D01*
X61910Y233308D01*
X60989Y233690D01*
X60000Y233820D01*
D02*
G37*
G36*
X180500Y239824D02*
X179169Y239693D01*
X177889Y239305D01*
X176709Y238674D01*
X175675Y237825D01*
X174826Y236791D01*
X174195Y235612D01*
X173807Y234331D01*
X173676Y233000D01*
X173807Y231669D01*
X174195Y230388D01*
X174826Y229209D01*
X175675Y228175D01*
X176709Y227326D01*
X177889Y226695D01*
X179169Y226307D01*
X180500Y226176D01*
X181831Y226307D01*
X183112Y226695D01*
X184291Y227326D01*
X185325Y228175D01*
X186174Y229209D01*
X186805Y230388D01*
X187193Y231669D01*
X187324Y233000D01*
X187193Y234331D01*
X186805Y235612D01*
X186174Y236791D01*
X185325Y237825D01*
X184291Y238674D01*
X183112Y239305D01*
X181831Y239693D01*
X180500Y239824D01*
D02*
G37*
G36*
X163492Y231075D02*
X162462Y230940D01*
X161502Y230542D01*
X160677Y229909D01*
X160045Y229085D01*
X159647Y228125D01*
X159511Y227095D01*
X159647Y226064D01*
X160045Y225104D01*
X160677Y224280D01*
X161502Y223647D01*
X162462Y223249D01*
X163492Y223114D01*
X164523Y223249D01*
X165483Y223647D01*
X166307Y224280D01*
X166940Y225104D01*
X167337Y226064D01*
X167473Y227095D01*
X167337Y228125D01*
X166940Y229085D01*
X166307Y229909D01*
X165483Y230542D01*
X164523Y230940D01*
X163492Y231075D01*
D02*
G37*
G36*
X151681D02*
X150651Y230940D01*
X149691Y230542D01*
X148866Y229909D01*
X148233Y229085D01*
X147836Y228125D01*
X147700Y227095D01*
X147836Y226064D01*
X148233Y225104D01*
X148866Y224280D01*
X149691Y223647D01*
X150651Y223249D01*
X151681Y223114D01*
X152711Y223249D01*
X153672Y223647D01*
X154496Y224280D01*
X155129Y225104D01*
X155526Y226064D01*
X155662Y227095D01*
X155526Y228125D01*
X155129Y229085D01*
X154496Y229909D01*
X153672Y230542D01*
X152711Y230940D01*
X151681Y231075D01*
D02*
G37*
G36*
X140000Y223820D02*
X139011Y223690D01*
X138090Y223308D01*
X137299Y222701D01*
X136692Y221910D01*
X136310Y220989D01*
X136180Y220000D01*
X136310Y219011D01*
X136692Y218090D01*
X137299Y217299D01*
X138090Y216692D01*
X139011Y216310D01*
X140000Y216180D01*
X140989Y216310D01*
X141910Y216692D01*
X142701Y217299D01*
X143308Y218090D01*
X143690Y219011D01*
X143820Y220000D01*
X143690Y220989D01*
X143308Y221910D01*
X142701Y222701D01*
X141910Y223308D01*
X140989Y223690D01*
X140000Y223820D01*
D02*
G37*
G36*
X130000D02*
X129011Y223690D01*
X128090Y223308D01*
X127299Y222701D01*
X126692Y221910D01*
X126310Y220989D01*
X126180Y220000D01*
X126310Y219011D01*
X126692Y218090D01*
X127299Y217299D01*
X128090Y216692D01*
X129011Y216310D01*
X130000Y216180D01*
X130989Y216310D01*
X131910Y216692D01*
X132701Y217299D01*
X133308Y218090D01*
X133690Y219011D01*
X133820Y220000D01*
X133690Y220989D01*
X133308Y221910D01*
X132701Y222701D01*
X131910Y223308D01*
X130989Y223690D01*
X130000Y223820D01*
D02*
G37*
G36*
X120000D02*
X119011Y223690D01*
X118090Y223308D01*
X117299Y222701D01*
X116692Y221910D01*
X116310Y220989D01*
X116180Y220000D01*
X116310Y219011D01*
X116692Y218090D01*
X117299Y217299D01*
X118090Y216692D01*
X119011Y216310D01*
X120000Y216180D01*
X120989Y216310D01*
X121910Y216692D01*
X122701Y217299D01*
X123308Y218090D01*
X123690Y219011D01*
X123820Y220000D01*
X123690Y220989D01*
X123308Y221910D01*
X122701Y222701D01*
X121910Y223308D01*
X120989Y223690D01*
X120000Y223820D01*
D02*
G37*
G36*
X110000D02*
X109011Y223690D01*
X108090Y223308D01*
X107299Y222701D01*
X106692Y221910D01*
X106310Y220989D01*
X106180Y220000D01*
X106310Y219011D01*
X106692Y218090D01*
X107299Y217299D01*
X108090Y216692D01*
X109011Y216310D01*
X110000Y216180D01*
X110989Y216310D01*
X111910Y216692D01*
X112701Y217299D01*
X113308Y218090D01*
X113690Y219011D01*
X113820Y220000D01*
X113690Y220989D01*
X113308Y221910D01*
X112701Y222701D01*
X111910Y223308D01*
X110989Y223690D01*
X110000Y223820D01*
D02*
G37*
G36*
X100000D02*
X99011Y223690D01*
X98090Y223308D01*
X97299Y222701D01*
X96692Y221910D01*
X96310Y220989D01*
X96180Y220000D01*
X96310Y219011D01*
X96692Y218090D01*
X97299Y217299D01*
X98090Y216692D01*
X99011Y216310D01*
X100000Y216180D01*
X100989Y216310D01*
X101910Y216692D01*
X102701Y217299D01*
X103308Y218090D01*
X103690Y219011D01*
X103820Y220000D01*
X103690Y220989D01*
X103308Y221910D01*
X102701Y222701D01*
X101910Y223308D01*
X100989Y223690D01*
X100000Y223820D01*
D02*
G37*
G36*
X90000D02*
X89011Y223690D01*
X88090Y223308D01*
X87299Y222701D01*
X86692Y221910D01*
X86310Y220989D01*
X86180Y220000D01*
X86310Y219011D01*
X86692Y218090D01*
X87299Y217299D01*
X88090Y216692D01*
X89011Y216310D01*
X90000Y216180D01*
X90989Y216310D01*
X91910Y216692D01*
X92701Y217299D01*
X93308Y218090D01*
X93690Y219011D01*
X93820Y220000D01*
X93690Y220989D01*
X93308Y221910D01*
X92701Y222701D01*
X91910Y223308D01*
X90989Y223690D01*
X90000Y223820D01*
D02*
G37*
G36*
X80000D02*
X79011Y223690D01*
X78090Y223308D01*
X77299Y222701D01*
X76692Y221910D01*
X76310Y220989D01*
X76180Y220000D01*
X76310Y219011D01*
X76692Y218090D01*
X77299Y217299D01*
X78090Y216692D01*
X79011Y216310D01*
X80000Y216180D01*
X80989Y216310D01*
X81910Y216692D01*
X82701Y217299D01*
X83308Y218090D01*
X83690Y219011D01*
X83820Y220000D01*
X83690Y220989D01*
X83308Y221910D01*
X82701Y222701D01*
X81910Y223308D01*
X80989Y223690D01*
X80000Y223820D01*
D02*
G37*
G36*
X70000D02*
X69011Y223690D01*
X68090Y223308D01*
X67299Y222701D01*
X66692Y221910D01*
X66310Y220989D01*
X66180Y220000D01*
X66310Y219011D01*
X66692Y218090D01*
X67299Y217299D01*
X68090Y216692D01*
X69011Y216310D01*
X70000Y216180D01*
X70989Y216310D01*
X71910Y216692D01*
X72701Y217299D01*
X73308Y218090D01*
X73690Y219011D01*
X73820Y220000D01*
X73690Y220989D01*
X73308Y221910D01*
X72701Y222701D01*
X71910Y223308D01*
X70989Y223690D01*
X70000Y223820D01*
D02*
G37*
G36*
X60000D02*
X59011Y223690D01*
X58090Y223308D01*
X57299Y222701D01*
X56692Y221910D01*
X56310Y220989D01*
X56180Y220000D01*
X56310Y219011D01*
X56692Y218090D01*
X57299Y217299D01*
X58090Y216692D01*
X59011Y216310D01*
X60000Y216180D01*
X60989Y216310D01*
X61910Y216692D01*
X62701Y217299D01*
X63308Y218090D01*
X63690Y219011D01*
X63820Y220000D01*
X63690Y220989D01*
X63308Y221910D01*
X62701Y222701D01*
X61910Y223308D01*
X60989Y223690D01*
X60000Y223820D01*
D02*
G37*
G36*
X61000Y213903D02*
Y211000D01*
X63903D01*
X63897Y211044D01*
X63494Y212017D01*
X62853Y212853D01*
X62017Y213494D01*
X61044Y213897D01*
X61000Y213903D01*
D02*
G37*
G36*
X59000D02*
X58956Y213897D01*
X57983Y213494D01*
X57147Y212853D01*
X56506Y212017D01*
X56103Y211044D01*
X56097Y211000D01*
X59000D01*
Y213903D01*
D02*
G37*
G36*
X140000Y213820D02*
X139011Y213690D01*
X138090Y213308D01*
X137299Y212701D01*
X136692Y211910D01*
X136310Y210989D01*
X136180Y210000D01*
X136310Y209011D01*
X136692Y208090D01*
X137299Y207299D01*
X138090Y206692D01*
X139011Y206310D01*
X140000Y206180D01*
X140989Y206310D01*
X141910Y206692D01*
X142701Y207299D01*
X143308Y208090D01*
X143690Y209011D01*
X143820Y210000D01*
X143690Y210989D01*
X143308Y211910D01*
X142701Y212701D01*
X141910Y213308D01*
X140989Y213690D01*
X140000Y213820D01*
D02*
G37*
G36*
X130000D02*
X129011Y213690D01*
X128090Y213308D01*
X127299Y212701D01*
X126692Y211910D01*
X126310Y210989D01*
X126180Y210000D01*
X126310Y209011D01*
X126692Y208090D01*
X127299Y207299D01*
X128090Y206692D01*
X129011Y206310D01*
X130000Y206180D01*
X130989Y206310D01*
X131910Y206692D01*
X132701Y207299D01*
X133308Y208090D01*
X133690Y209011D01*
X133820Y210000D01*
X133690Y210989D01*
X133308Y211910D01*
X132701Y212701D01*
X131910Y213308D01*
X130989Y213690D01*
X130000Y213820D01*
D02*
G37*
G36*
X120000D02*
X119011Y213690D01*
X118090Y213308D01*
X117299Y212701D01*
X116692Y211910D01*
X116310Y210989D01*
X116180Y210000D01*
X116310Y209011D01*
X116692Y208090D01*
X117299Y207299D01*
X118090Y206692D01*
X119011Y206310D01*
X120000Y206180D01*
X120989Y206310D01*
X121910Y206692D01*
X122701Y207299D01*
X123308Y208090D01*
X123690Y209011D01*
X123820Y210000D01*
X123690Y210989D01*
X123308Y211910D01*
X122701Y212701D01*
X121910Y213308D01*
X120989Y213690D01*
X120000Y213820D01*
D02*
G37*
G36*
X110000D02*
X109011Y213690D01*
X108090Y213308D01*
X107299Y212701D01*
X106692Y211910D01*
X106310Y210989D01*
X106180Y210000D01*
X106310Y209011D01*
X106692Y208090D01*
X107299Y207299D01*
X108090Y206692D01*
X109011Y206310D01*
X110000Y206180D01*
X110989Y206310D01*
X111910Y206692D01*
X112701Y207299D01*
X113308Y208090D01*
X113690Y209011D01*
X113820Y210000D01*
X113690Y210989D01*
X113308Y211910D01*
X112701Y212701D01*
X111910Y213308D01*
X110989Y213690D01*
X110000Y213820D01*
D02*
G37*
G36*
X100000D02*
X99011Y213690D01*
X98090Y213308D01*
X97299Y212701D01*
X96692Y211910D01*
X96310Y210989D01*
X96180Y210000D01*
X96310Y209011D01*
X96692Y208090D01*
X97299Y207299D01*
X98090Y206692D01*
X99011Y206310D01*
X100000Y206180D01*
X100989Y206310D01*
X101910Y206692D01*
X102701Y207299D01*
X103308Y208090D01*
X103690Y209011D01*
X103820Y210000D01*
X103690Y210989D01*
X103308Y211910D01*
X102701Y212701D01*
X101910Y213308D01*
X100989Y213690D01*
X100000Y213820D01*
D02*
G37*
G36*
X90000D02*
X89011Y213690D01*
X88090Y213308D01*
X87299Y212701D01*
X86692Y211910D01*
X86310Y210989D01*
X86180Y210000D01*
X86310Y209011D01*
X86692Y208090D01*
X87299Y207299D01*
X88090Y206692D01*
X89011Y206310D01*
X90000Y206180D01*
X90989Y206310D01*
X91910Y206692D01*
X92701Y207299D01*
X93308Y208090D01*
X93690Y209011D01*
X93820Y210000D01*
X93690Y210989D01*
X93308Y211910D01*
X92701Y212701D01*
X91910Y213308D01*
X90989Y213690D01*
X90000Y213820D01*
D02*
G37*
G36*
X80000D02*
X79011Y213690D01*
X78090Y213308D01*
X77299Y212701D01*
X76692Y211910D01*
X76310Y210989D01*
X76180Y210000D01*
X76310Y209011D01*
X76692Y208090D01*
X77299Y207299D01*
X78090Y206692D01*
X79011Y206310D01*
X80000Y206180D01*
X80989Y206310D01*
X81910Y206692D01*
X82701Y207299D01*
X83308Y208090D01*
X83690Y209011D01*
X83820Y210000D01*
X83690Y210989D01*
X83308Y211910D01*
X82701Y212701D01*
X81910Y213308D01*
X80989Y213690D01*
X80000Y213820D01*
D02*
G37*
G36*
X70000D02*
X69011Y213690D01*
X68090Y213308D01*
X67299Y212701D01*
X66692Y211910D01*
X66310Y210989D01*
X66180Y210000D01*
X66310Y209011D01*
X66692Y208090D01*
X67299Y207299D01*
X68090Y206692D01*
X69011Y206310D01*
X70000Y206180D01*
X70989Y206310D01*
X71910Y206692D01*
X72701Y207299D01*
X73308Y208090D01*
X73690Y209011D01*
X73820Y210000D01*
X73690Y210989D01*
X73308Y211910D01*
X72701Y212701D01*
X71910Y213308D01*
X70989Y213690D01*
X70000Y213820D01*
D02*
G37*
G36*
X63903Y209000D02*
X61000D01*
Y206097D01*
X61044Y206103D01*
X62017Y206506D01*
X62853Y207147D01*
X63494Y207983D01*
X63897Y208956D01*
X63903Y209000D01*
D02*
G37*
G36*
X59000D02*
X56097D01*
X56103Y208956D01*
X56506Y207983D01*
X57147Y207147D01*
X57983Y206506D01*
X58956Y206103D01*
X59000Y206097D01*
Y209000D01*
D02*
G37*
G36*
X48012Y211886D02*
X46981Y211751D01*
X46021Y211353D01*
X45197Y210720D01*
X44564Y209896D01*
X44167Y208936D01*
X44031Y207906D01*
X44167Y206875D01*
X44564Y205915D01*
X45197Y205091D01*
X46021Y204458D01*
X46981Y204060D01*
X48012Y203925D01*
X49042Y204060D01*
X50002Y204458D01*
X50827Y205091D01*
X51459Y205915D01*
X51857Y206875D01*
X51993Y207906D01*
X51857Y208936D01*
X51459Y209896D01*
X50827Y210720D01*
X50002Y211353D01*
X49042Y211751D01*
X48012Y211886D01*
D02*
G37*
G36*
X36201D02*
X35170Y211751D01*
X34210Y211353D01*
X33386Y210720D01*
X32753Y209896D01*
X32355Y208936D01*
X32220Y207906D01*
X32355Y206875D01*
X32753Y205915D01*
X33386Y205091D01*
X34210Y204458D01*
X35170Y204060D01*
X36201Y203925D01*
X37231Y204060D01*
X38191Y204458D01*
X39016Y205091D01*
X39648Y205915D01*
X40046Y206875D01*
X40182Y207906D01*
X40046Y208936D01*
X39648Y209896D01*
X39016Y210720D01*
X38191Y211353D01*
X37231Y211751D01*
X36201Y211886D01*
D02*
G37*
G36*
X40360Y200254D02*
X37201D01*
Y197095D01*
X40360D01*
Y200254D01*
D02*
G37*
G36*
X35201D02*
X32041D01*
Y197095D01*
X35201D01*
Y200254D01*
D02*
G37*
G36*
X140000Y203820D02*
X139011Y203690D01*
X138090Y203308D01*
X137299Y202701D01*
X136692Y201910D01*
X136310Y200989D01*
X136180Y200000D01*
X136310Y199011D01*
X136692Y198090D01*
X137299Y197299D01*
X138090Y196692D01*
X139011Y196310D01*
X140000Y196180D01*
X140989Y196310D01*
X141910Y196692D01*
X142701Y197299D01*
X143308Y198090D01*
X143690Y199011D01*
X143820Y200000D01*
X143690Y200989D01*
X143308Y201910D01*
X142701Y202701D01*
X141910Y203308D01*
X140989Y203690D01*
X140000Y203820D01*
D02*
G37*
G36*
X130000D02*
X129011Y203690D01*
X128090Y203308D01*
X127299Y202701D01*
X126692Y201910D01*
X126310Y200989D01*
X126180Y200000D01*
X126310Y199011D01*
X126692Y198090D01*
X127299Y197299D01*
X128090Y196692D01*
X129011Y196310D01*
X130000Y196180D01*
X130989Y196310D01*
X131910Y196692D01*
X132701Y197299D01*
X133308Y198090D01*
X133690Y199011D01*
X133820Y200000D01*
X133690Y200989D01*
X133308Y201910D01*
X132701Y202701D01*
X131910Y203308D01*
X130989Y203690D01*
X130000Y203820D01*
D02*
G37*
G36*
X120000D02*
X119011Y203690D01*
X118090Y203308D01*
X117299Y202701D01*
X116692Y201910D01*
X116310Y200989D01*
X116180Y200000D01*
X116310Y199011D01*
X116692Y198090D01*
X117299Y197299D01*
X118090Y196692D01*
X119011Y196310D01*
X120000Y196180D01*
X120989Y196310D01*
X121910Y196692D01*
X122701Y197299D01*
X123308Y198090D01*
X123690Y199011D01*
X123820Y200000D01*
X123690Y200989D01*
X123308Y201910D01*
X122701Y202701D01*
X121910Y203308D01*
X120989Y203690D01*
X120000Y203820D01*
D02*
G37*
G36*
X110000D02*
X109011Y203690D01*
X108090Y203308D01*
X107299Y202701D01*
X106692Y201910D01*
X106310Y200989D01*
X106180Y200000D01*
X106310Y199011D01*
X106692Y198090D01*
X107299Y197299D01*
X108090Y196692D01*
X109011Y196310D01*
X110000Y196180D01*
X110989Y196310D01*
X111910Y196692D01*
X112701Y197299D01*
X113308Y198090D01*
X113690Y199011D01*
X113820Y200000D01*
X113690Y200989D01*
X113308Y201910D01*
X112701Y202701D01*
X111910Y203308D01*
X110989Y203690D01*
X110000Y203820D01*
D02*
G37*
G36*
X100000D02*
X99011Y203690D01*
X98090Y203308D01*
X97299Y202701D01*
X96692Y201910D01*
X96310Y200989D01*
X96180Y200000D01*
X96310Y199011D01*
X96692Y198090D01*
X97299Y197299D01*
X98090Y196692D01*
X99011Y196310D01*
X100000Y196180D01*
X100989Y196310D01*
X101910Y196692D01*
X102701Y197299D01*
X103308Y198090D01*
X103690Y199011D01*
X103820Y200000D01*
X103690Y200989D01*
X103308Y201910D01*
X102701Y202701D01*
X101910Y203308D01*
X100989Y203690D01*
X100000Y203820D01*
D02*
G37*
G36*
X90000D02*
X89011Y203690D01*
X88090Y203308D01*
X87299Y202701D01*
X86692Y201910D01*
X86310Y200989D01*
X86180Y200000D01*
X86310Y199011D01*
X86692Y198090D01*
X87299Y197299D01*
X88090Y196692D01*
X89011Y196310D01*
X90000Y196180D01*
X90989Y196310D01*
X91910Y196692D01*
X92701Y197299D01*
X93308Y198090D01*
X93690Y199011D01*
X93820Y200000D01*
X93690Y200989D01*
X93308Y201910D01*
X92701Y202701D01*
X91910Y203308D01*
X90989Y203690D01*
X90000Y203820D01*
D02*
G37*
G36*
X80000D02*
X79011Y203690D01*
X78090Y203308D01*
X77299Y202701D01*
X76692Y201910D01*
X76310Y200989D01*
X76180Y200000D01*
X76310Y199011D01*
X76692Y198090D01*
X77299Y197299D01*
X78090Y196692D01*
X79011Y196310D01*
X80000Y196180D01*
X80989Y196310D01*
X81910Y196692D01*
X82701Y197299D01*
X83308Y198090D01*
X83690Y199011D01*
X83820Y200000D01*
X83690Y200989D01*
X83308Y201910D01*
X82701Y202701D01*
X81910Y203308D01*
X80989Y203690D01*
X80000Y203820D01*
D02*
G37*
G36*
X70000D02*
X69011Y203690D01*
X68090Y203308D01*
X67299Y202701D01*
X66692Y201910D01*
X66310Y200989D01*
X66180Y200000D01*
X66310Y199011D01*
X66692Y198090D01*
X67299Y197299D01*
X68090Y196692D01*
X69011Y196310D01*
X70000Y196180D01*
X70989Y196310D01*
X71910Y196692D01*
X72701Y197299D01*
X73308Y198090D01*
X73690Y199011D01*
X73820Y200000D01*
X73690Y200989D01*
X73308Y201910D01*
X72701Y202701D01*
X71910Y203308D01*
X70989Y203690D01*
X70000Y203820D01*
D02*
G37*
G36*
X60000D02*
X59011Y203690D01*
X58090Y203308D01*
X57299Y202701D01*
X56692Y201910D01*
X56310Y200989D01*
X56180Y200000D01*
X56310Y199011D01*
X56692Y198090D01*
X57299Y197299D01*
X58090Y196692D01*
X59011Y196310D01*
X60000Y196180D01*
X60989Y196310D01*
X61910Y196692D01*
X62701Y197299D01*
X63308Y198090D01*
X63690Y199011D01*
X63820Y200000D01*
X63690Y200989D01*
X63308Y201910D01*
X62701Y202701D01*
X61910Y203308D01*
X60989Y203690D01*
X60000Y203820D01*
D02*
G37*
G36*
X19193Y208824D02*
X17862Y208693D01*
X16581Y208305D01*
X15402Y207674D01*
X14367Y206825D01*
X13519Y205791D01*
X12888Y204611D01*
X12500Y203331D01*
X12369Y202000D01*
X12500Y200669D01*
X12888Y199389D01*
X13519Y198209D01*
X14367Y197175D01*
X15402Y196326D01*
X16581Y195695D01*
X17862Y195307D01*
X19193Y195176D01*
X20524Y195307D01*
X21804Y195695D01*
X22984Y196326D01*
X24018Y197175D01*
X24867Y198209D01*
X25498Y199389D01*
X25886Y200669D01*
X26017Y202000D01*
X25886Y203331D01*
X25498Y204611D01*
X24867Y205791D01*
X24018Y206825D01*
X22984Y207674D01*
X21804Y208305D01*
X20524Y208693D01*
X19193Y208824D01*
D02*
G37*
G36*
X48012Y200075D02*
X46981Y199940D01*
X46021Y199542D01*
X45197Y198909D01*
X44564Y198085D01*
X44167Y197125D01*
X44031Y196095D01*
X44167Y195064D01*
X44564Y194104D01*
X45197Y193280D01*
X46021Y192647D01*
X46981Y192249D01*
X48012Y192114D01*
X49042Y192249D01*
X50002Y192647D01*
X50827Y193280D01*
X51459Y194104D01*
X51857Y195064D01*
X51993Y196095D01*
X51857Y197125D01*
X51459Y198085D01*
X50827Y198909D01*
X50002Y199542D01*
X49042Y199940D01*
X48012Y200075D01*
D02*
G37*
G36*
X40360Y195095D02*
X37201D01*
Y191935D01*
X40360D01*
Y195095D01*
D02*
G37*
G36*
X35201D02*
X32041D01*
Y191935D01*
X35201D01*
Y195095D01*
D02*
G37*
G36*
X167652Y190565D02*
X164492D01*
Y187406D01*
X167652D01*
Y190565D01*
D02*
G37*
G36*
X162492D02*
X159333D01*
Y187406D01*
X162492D01*
Y190565D01*
D02*
G37*
G36*
X140000Y193820D02*
X139011Y193690D01*
X138090Y193308D01*
X137299Y192701D01*
X136692Y191910D01*
X136310Y190989D01*
X136180Y190000D01*
X136310Y189011D01*
X136692Y188090D01*
X137299Y187299D01*
X138090Y186692D01*
X139011Y186310D01*
X140000Y186180D01*
X140989Y186310D01*
X141910Y186692D01*
X142701Y187299D01*
X143308Y188090D01*
X143690Y189011D01*
X143820Y190000D01*
X143690Y190989D01*
X143308Y191910D01*
X142701Y192701D01*
X141910Y193308D01*
X140989Y193690D01*
X140000Y193820D01*
D02*
G37*
G36*
X130000D02*
X129011Y193690D01*
X128090Y193308D01*
X127299Y192701D01*
X126692Y191910D01*
X126310Y190989D01*
X126180Y190000D01*
X126310Y189011D01*
X126692Y188090D01*
X127299Y187299D01*
X128090Y186692D01*
X129011Y186310D01*
X130000Y186180D01*
X130989Y186310D01*
X131910Y186692D01*
X132701Y187299D01*
X133308Y188090D01*
X133690Y189011D01*
X133820Y190000D01*
X133690Y190989D01*
X133308Y191910D01*
X132701Y192701D01*
X131910Y193308D01*
X130989Y193690D01*
X130000Y193820D01*
D02*
G37*
G36*
X120000D02*
X119011Y193690D01*
X118090Y193308D01*
X117299Y192701D01*
X116692Y191910D01*
X116310Y190989D01*
X116180Y190000D01*
X116310Y189011D01*
X116692Y188090D01*
X117299Y187299D01*
X118090Y186692D01*
X119011Y186310D01*
X120000Y186180D01*
X120989Y186310D01*
X121910Y186692D01*
X122701Y187299D01*
X123308Y188090D01*
X123690Y189011D01*
X123820Y190000D01*
X123690Y190989D01*
X123308Y191910D01*
X122701Y192701D01*
X121910Y193308D01*
X120989Y193690D01*
X120000Y193820D01*
D02*
G37*
G36*
X110000D02*
X109011Y193690D01*
X108090Y193308D01*
X107299Y192701D01*
X106692Y191910D01*
X106310Y190989D01*
X106180Y190000D01*
X106310Y189011D01*
X106692Y188090D01*
X107299Y187299D01*
X108090Y186692D01*
X109011Y186310D01*
X110000Y186180D01*
X110989Y186310D01*
X111910Y186692D01*
X112701Y187299D01*
X113308Y188090D01*
X113690Y189011D01*
X113820Y190000D01*
X113690Y190989D01*
X113308Y191910D01*
X112701Y192701D01*
X111910Y193308D01*
X110989Y193690D01*
X110000Y193820D01*
D02*
G37*
G36*
X100000D02*
X99011Y193690D01*
X98090Y193308D01*
X97299Y192701D01*
X96692Y191910D01*
X96310Y190989D01*
X96180Y190000D01*
X96310Y189011D01*
X96692Y188090D01*
X97299Y187299D01*
X98090Y186692D01*
X99011Y186310D01*
X100000Y186180D01*
X100989Y186310D01*
X101910Y186692D01*
X102701Y187299D01*
X103308Y188090D01*
X103690Y189011D01*
X103820Y190000D01*
X103690Y190989D01*
X103308Y191910D01*
X102701Y192701D01*
X101910Y193308D01*
X100989Y193690D01*
X100000Y193820D01*
D02*
G37*
G36*
X90000D02*
X89011Y193690D01*
X88090Y193308D01*
X87299Y192701D01*
X86692Y191910D01*
X86310Y190989D01*
X86180Y190000D01*
X86310Y189011D01*
X86692Y188090D01*
X87299Y187299D01*
X88090Y186692D01*
X89011Y186310D01*
X90000Y186180D01*
X90989Y186310D01*
X91910Y186692D01*
X92701Y187299D01*
X93308Y188090D01*
X93690Y189011D01*
X93820Y190000D01*
X93690Y190989D01*
X93308Y191910D01*
X92701Y192701D01*
X91910Y193308D01*
X90989Y193690D01*
X90000Y193820D01*
D02*
G37*
G36*
X80000D02*
X79011Y193690D01*
X78090Y193308D01*
X77299Y192701D01*
X76692Y191910D01*
X76310Y190989D01*
X76180Y190000D01*
X76310Y189011D01*
X76692Y188090D01*
X77299Y187299D01*
X78090Y186692D01*
X79011Y186310D01*
X80000Y186180D01*
X80989Y186310D01*
X81910Y186692D01*
X82701Y187299D01*
X83308Y188090D01*
X83690Y189011D01*
X83820Y190000D01*
X83690Y190989D01*
X83308Y191910D01*
X82701Y192701D01*
X81910Y193308D01*
X80989Y193690D01*
X80000Y193820D01*
D02*
G37*
G36*
X70000D02*
X69011Y193690D01*
X68090Y193308D01*
X67299Y192701D01*
X66692Y191910D01*
X66310Y190989D01*
X66180Y190000D01*
X66310Y189011D01*
X66692Y188090D01*
X67299Y187299D01*
X68090Y186692D01*
X69011Y186310D01*
X70000Y186180D01*
X70989Y186310D01*
X71910Y186692D01*
X72701Y187299D01*
X73308Y188090D01*
X73690Y189011D01*
X73820Y190000D01*
X73690Y190989D01*
X73308Y191910D01*
X72701Y192701D01*
X71910Y193308D01*
X70989Y193690D01*
X70000Y193820D01*
D02*
G37*
G36*
X60000D02*
X59011Y193690D01*
X58090Y193308D01*
X57299Y192701D01*
X56692Y191910D01*
X56310Y190989D01*
X56180Y190000D01*
X56310Y189011D01*
X56692Y188090D01*
X57299Y187299D01*
X58090Y186692D01*
X59011Y186310D01*
X60000Y186180D01*
X60989Y186310D01*
X61910Y186692D01*
X62701Y187299D01*
X63308Y188090D01*
X63690Y189011D01*
X63820Y190000D01*
X63690Y190989D01*
X63308Y191910D01*
X62701Y192701D01*
X61910Y193308D01*
X60989Y193690D01*
X60000Y193820D01*
D02*
G37*
G36*
X151681Y190386D02*
X150651Y190251D01*
X149691Y189853D01*
X148866Y189220D01*
X148233Y188396D01*
X147836Y187436D01*
X147700Y186406D01*
X147836Y185375D01*
X148233Y184415D01*
X148866Y183591D01*
X149691Y182958D01*
X150651Y182560D01*
X151681Y182425D01*
X152711Y182560D01*
X153672Y182958D01*
X154496Y183591D01*
X155129Y184415D01*
X155526Y185375D01*
X155662Y186406D01*
X155526Y187436D01*
X155129Y188396D01*
X154496Y189220D01*
X153672Y189853D01*
X152711Y190251D01*
X151681Y190386D01*
D02*
G37*
G36*
X167652Y185406D02*
X164492D01*
Y182246D01*
X167652D01*
Y185406D01*
D02*
G37*
G36*
X162492D02*
X159333D01*
Y182246D01*
X162492D01*
Y185406D01*
D02*
G37*
G36*
X140000Y183820D02*
X139011Y183690D01*
X138090Y183308D01*
X137299Y182701D01*
X136692Y181910D01*
X136310Y180989D01*
X136180Y180000D01*
X136310Y179011D01*
X136692Y178090D01*
X137299Y177299D01*
X138090Y176692D01*
X139011Y176310D01*
X140000Y176180D01*
X140989Y176310D01*
X141910Y176692D01*
X142701Y177299D01*
X143308Y178090D01*
X143690Y179011D01*
X143820Y180000D01*
X143690Y180989D01*
X143308Y181910D01*
X142701Y182701D01*
X141910Y183308D01*
X140989Y183690D01*
X140000Y183820D01*
D02*
G37*
G36*
X130000D02*
X129011Y183690D01*
X128090Y183308D01*
X127299Y182701D01*
X126692Y181910D01*
X126310Y180989D01*
X126180Y180000D01*
X126310Y179011D01*
X126692Y178090D01*
X127299Y177299D01*
X128090Y176692D01*
X129011Y176310D01*
X130000Y176180D01*
X130989Y176310D01*
X131910Y176692D01*
X132701Y177299D01*
X133308Y178090D01*
X133690Y179011D01*
X133820Y180000D01*
X133690Y180989D01*
X133308Y181910D01*
X132701Y182701D01*
X131910Y183308D01*
X130989Y183690D01*
X130000Y183820D01*
D02*
G37*
G36*
X120000D02*
X119011Y183690D01*
X118090Y183308D01*
X117299Y182701D01*
X116692Y181910D01*
X116310Y180989D01*
X116180Y180000D01*
X116310Y179011D01*
X116692Y178090D01*
X117299Y177299D01*
X118090Y176692D01*
X119011Y176310D01*
X120000Y176180D01*
X120989Y176310D01*
X121910Y176692D01*
X122701Y177299D01*
X123308Y178090D01*
X123690Y179011D01*
X123820Y180000D01*
X123690Y180989D01*
X123308Y181910D01*
X122701Y182701D01*
X121910Y183308D01*
X120989Y183690D01*
X120000Y183820D01*
D02*
G37*
G36*
X110000D02*
X109011Y183690D01*
X108090Y183308D01*
X107299Y182701D01*
X106692Y181910D01*
X106310Y180989D01*
X106180Y180000D01*
X106310Y179011D01*
X106692Y178090D01*
X107299Y177299D01*
X108090Y176692D01*
X109011Y176310D01*
X110000Y176180D01*
X110989Y176310D01*
X111910Y176692D01*
X112701Y177299D01*
X113308Y178090D01*
X113690Y179011D01*
X113820Y180000D01*
X113690Y180989D01*
X113308Y181910D01*
X112701Y182701D01*
X111910Y183308D01*
X110989Y183690D01*
X110000Y183820D01*
D02*
G37*
G36*
X100000D02*
X99011Y183690D01*
X98090Y183308D01*
X97299Y182701D01*
X96692Y181910D01*
X96310Y180989D01*
X96180Y180000D01*
X96310Y179011D01*
X96692Y178090D01*
X97299Y177299D01*
X98090Y176692D01*
X99011Y176310D01*
X100000Y176180D01*
X100989Y176310D01*
X101910Y176692D01*
X102701Y177299D01*
X103308Y178090D01*
X103690Y179011D01*
X103820Y180000D01*
X103690Y180989D01*
X103308Y181910D01*
X102701Y182701D01*
X101910Y183308D01*
X100989Y183690D01*
X100000Y183820D01*
D02*
G37*
G36*
X90000D02*
X89011Y183690D01*
X88090Y183308D01*
X87299Y182701D01*
X86692Y181910D01*
X86310Y180989D01*
X86180Y180000D01*
X86310Y179011D01*
X86692Y178090D01*
X87299Y177299D01*
X88090Y176692D01*
X89011Y176310D01*
X90000Y176180D01*
X90989Y176310D01*
X91910Y176692D01*
X92701Y177299D01*
X93308Y178090D01*
X93690Y179011D01*
X93820Y180000D01*
X93690Y180989D01*
X93308Y181910D01*
X92701Y182701D01*
X91910Y183308D01*
X90989Y183690D01*
X90000Y183820D01*
D02*
G37*
G36*
X80000D02*
X79011Y183690D01*
X78090Y183308D01*
X77299Y182701D01*
X76692Y181910D01*
X76310Y180989D01*
X76180Y180000D01*
X76310Y179011D01*
X76692Y178090D01*
X77299Y177299D01*
X78090Y176692D01*
X79011Y176310D01*
X80000Y176180D01*
X80989Y176310D01*
X81910Y176692D01*
X82701Y177299D01*
X83308Y178090D01*
X83690Y179011D01*
X83820Y180000D01*
X83690Y180989D01*
X83308Y181910D01*
X82701Y182701D01*
X81910Y183308D01*
X80989Y183690D01*
X80000Y183820D01*
D02*
G37*
G36*
X70000D02*
X69011Y183690D01*
X68090Y183308D01*
X67299Y182701D01*
X66692Y181910D01*
X66310Y180989D01*
X66180Y180000D01*
X66310Y179011D01*
X66692Y178090D01*
X67299Y177299D01*
X68090Y176692D01*
X69011Y176310D01*
X70000Y176180D01*
X70989Y176310D01*
X71910Y176692D01*
X72701Y177299D01*
X73308Y178090D01*
X73690Y179011D01*
X73820Y180000D01*
X73690Y180989D01*
X73308Y181910D01*
X72701Y182701D01*
X71910Y183308D01*
X70989Y183690D01*
X70000Y183820D01*
D02*
G37*
G36*
X60000D02*
X59011Y183690D01*
X58090Y183308D01*
X57299Y182701D01*
X56692Y181910D01*
X56310Y180989D01*
X56180Y180000D01*
X56310Y179011D01*
X56692Y178090D01*
X57299Y177299D01*
X58090Y176692D01*
X59011Y176310D01*
X60000Y176180D01*
X60989Y176310D01*
X61910Y176692D01*
X62701Y177299D01*
X63308Y178090D01*
X63690Y179011D01*
X63820Y180000D01*
X63690Y180989D01*
X63308Y181910D01*
X62701Y182701D01*
X61910Y183308D01*
X60989Y183690D01*
X60000Y183820D01*
D02*
G37*
G36*
X180500Y187324D02*
X179169Y187193D01*
X177889Y186805D01*
X176709Y186174D01*
X175675Y185325D01*
X174826Y184291D01*
X174195Y183112D01*
X173807Y181831D01*
X173676Y180500D01*
X173807Y179169D01*
X174195Y177889D01*
X174826Y176709D01*
X175675Y175675D01*
X176709Y174826D01*
X177889Y174195D01*
X179169Y173807D01*
X180500Y173676D01*
X181831Y173807D01*
X183112Y174195D01*
X184291Y174826D01*
X185325Y175675D01*
X186174Y176709D01*
X186805Y177889D01*
X187193Y179169D01*
X187324Y180500D01*
X187193Y181831D01*
X186805Y183112D01*
X186174Y184291D01*
X185325Y185325D01*
X184291Y186174D01*
X183112Y186805D01*
X181831Y187193D01*
X180500Y187324D01*
D02*
G37*
G36*
X163492Y178575D02*
X162462Y178440D01*
X161502Y178042D01*
X160677Y177409D01*
X160045Y176585D01*
X159647Y175625D01*
X159511Y174594D01*
X159647Y173564D01*
X160045Y172604D01*
X160677Y171780D01*
X161502Y171147D01*
X162462Y170749D01*
X163492Y170614D01*
X164523Y170749D01*
X165483Y171147D01*
X166307Y171780D01*
X166940Y172604D01*
X167337Y173564D01*
X167473Y174594D01*
X167337Y175625D01*
X166940Y176585D01*
X166307Y177409D01*
X165483Y178042D01*
X164523Y178440D01*
X163492Y178575D01*
D02*
G37*
G36*
X151681D02*
X150651Y178440D01*
X149691Y178042D01*
X148866Y177409D01*
X148233Y176585D01*
X147836Y175625D01*
X147700Y174594D01*
X147836Y173564D01*
X148233Y172604D01*
X148866Y171780D01*
X149691Y171147D01*
X150651Y170749D01*
X151681Y170614D01*
X152711Y170749D01*
X153672Y171147D01*
X154496Y171780D01*
X155129Y172604D01*
X155526Y173564D01*
X155662Y174594D01*
X155526Y175625D01*
X155129Y176585D01*
X154496Y177409D01*
X153672Y178042D01*
X152711Y178440D01*
X151681Y178575D01*
D02*
G37*
G36*
X140000Y173820D02*
X139011Y173690D01*
X138090Y173308D01*
X137299Y172701D01*
X136692Y171910D01*
X136310Y170989D01*
X136180Y170000D01*
X136310Y169011D01*
X136692Y168090D01*
X137299Y167299D01*
X138090Y166692D01*
X139011Y166310D01*
X140000Y166180D01*
X140989Y166310D01*
X141910Y166692D01*
X142701Y167299D01*
X143308Y168090D01*
X143690Y169011D01*
X143820Y170000D01*
X143690Y170989D01*
X143308Y171910D01*
X142701Y172701D01*
X141910Y173308D01*
X140989Y173690D01*
X140000Y173820D01*
D02*
G37*
G36*
X130000D02*
X129011Y173690D01*
X128090Y173308D01*
X127299Y172701D01*
X126692Y171910D01*
X126310Y170989D01*
X126180Y170000D01*
X126310Y169011D01*
X126692Y168090D01*
X127299Y167299D01*
X128090Y166692D01*
X129011Y166310D01*
X130000Y166180D01*
X130989Y166310D01*
X131910Y166692D01*
X132701Y167299D01*
X133308Y168090D01*
X133690Y169011D01*
X133820Y170000D01*
X133690Y170989D01*
X133308Y171910D01*
X132701Y172701D01*
X131910Y173308D01*
X130989Y173690D01*
X130000Y173820D01*
D02*
G37*
G36*
X120000D02*
X119011Y173690D01*
X118090Y173308D01*
X117299Y172701D01*
X116692Y171910D01*
X116310Y170989D01*
X116180Y170000D01*
X116310Y169011D01*
X116692Y168090D01*
X117299Y167299D01*
X118090Y166692D01*
X119011Y166310D01*
X120000Y166180D01*
X120989Y166310D01*
X121910Y166692D01*
X122701Y167299D01*
X123308Y168090D01*
X123690Y169011D01*
X123820Y170000D01*
X123690Y170989D01*
X123308Y171910D01*
X122701Y172701D01*
X121910Y173308D01*
X120989Y173690D01*
X120000Y173820D01*
D02*
G37*
G36*
X110000D02*
X109011Y173690D01*
X108090Y173308D01*
X107299Y172701D01*
X106692Y171910D01*
X106310Y170989D01*
X106180Y170000D01*
X106310Y169011D01*
X106692Y168090D01*
X107299Y167299D01*
X108090Y166692D01*
X109011Y166310D01*
X110000Y166180D01*
X110989Y166310D01*
X111910Y166692D01*
X112701Y167299D01*
X113308Y168090D01*
X113690Y169011D01*
X113820Y170000D01*
X113690Y170989D01*
X113308Y171910D01*
X112701Y172701D01*
X111910Y173308D01*
X110989Y173690D01*
X110000Y173820D01*
D02*
G37*
G36*
X100000D02*
X99011Y173690D01*
X98090Y173308D01*
X97299Y172701D01*
X96692Y171910D01*
X96310Y170989D01*
X96180Y170000D01*
X96310Y169011D01*
X96692Y168090D01*
X97299Y167299D01*
X98090Y166692D01*
X99011Y166310D01*
X100000Y166180D01*
X100989Y166310D01*
X101910Y166692D01*
X102701Y167299D01*
X103308Y168090D01*
X103690Y169011D01*
X103820Y170000D01*
X103690Y170989D01*
X103308Y171910D01*
X102701Y172701D01*
X101910Y173308D01*
X100989Y173690D01*
X100000Y173820D01*
D02*
G37*
G36*
X90000D02*
X89011Y173690D01*
X88090Y173308D01*
X87299Y172701D01*
X86692Y171910D01*
X86310Y170989D01*
X86180Y170000D01*
X86310Y169011D01*
X86692Y168090D01*
X87299Y167299D01*
X88090Y166692D01*
X89011Y166310D01*
X90000Y166180D01*
X90989Y166310D01*
X91910Y166692D01*
X92701Y167299D01*
X93308Y168090D01*
X93690Y169011D01*
X93820Y170000D01*
X93690Y170989D01*
X93308Y171910D01*
X92701Y172701D01*
X91910Y173308D01*
X90989Y173690D01*
X90000Y173820D01*
D02*
G37*
G36*
X80000D02*
X79011Y173690D01*
X78090Y173308D01*
X77299Y172701D01*
X76692Y171910D01*
X76310Y170989D01*
X76180Y170000D01*
X76310Y169011D01*
X76692Y168090D01*
X77299Y167299D01*
X78090Y166692D01*
X79011Y166310D01*
X80000Y166180D01*
X80989Y166310D01*
X81910Y166692D01*
X82701Y167299D01*
X83308Y168090D01*
X83690Y169011D01*
X83820Y170000D01*
X83690Y170989D01*
X83308Y171910D01*
X82701Y172701D01*
X81910Y173308D01*
X80989Y173690D01*
X80000Y173820D01*
D02*
G37*
G36*
X70000D02*
X69011Y173690D01*
X68090Y173308D01*
X67299Y172701D01*
X66692Y171910D01*
X66310Y170989D01*
X66180Y170000D01*
X66310Y169011D01*
X66692Y168090D01*
X67299Y167299D01*
X68090Y166692D01*
X69011Y166310D01*
X70000Y166180D01*
X70989Y166310D01*
X71910Y166692D01*
X72701Y167299D01*
X73308Y168090D01*
X73690Y169011D01*
X73820Y170000D01*
X73690Y170989D01*
X73308Y171910D01*
X72701Y172701D01*
X71910Y173308D01*
X70989Y173690D01*
X70000Y173820D01*
D02*
G37*
G36*
X60000D02*
X59011Y173690D01*
X58090Y173308D01*
X57299Y172701D01*
X56692Y171910D01*
X56310Y170989D01*
X56180Y170000D01*
X56310Y169011D01*
X56692Y168090D01*
X57299Y167299D01*
X58090Y166692D01*
X59011Y166310D01*
X60000Y166180D01*
X60989Y166310D01*
X61910Y166692D01*
X62701Y167299D01*
X63308Y168090D01*
X63690Y169011D01*
X63820Y170000D01*
X63690Y170989D01*
X63308Y171910D01*
X62701Y172701D01*
X61910Y173308D01*
X60989Y173690D01*
X60000Y173820D01*
D02*
G37*
G36*
X48012Y164981D02*
X46981Y164845D01*
X46021Y164448D01*
X45197Y163815D01*
X44564Y162990D01*
X44167Y162030D01*
X44031Y161000D01*
X44167Y159970D01*
X44564Y159010D01*
X45197Y158185D01*
X46021Y157552D01*
X46981Y157155D01*
X48012Y157019D01*
X49042Y157155D01*
X50002Y157552D01*
X50827Y158185D01*
X51459Y159010D01*
X51857Y159970D01*
X51993Y161000D01*
X51857Y162030D01*
X51459Y162990D01*
X50827Y163815D01*
X50002Y164448D01*
X49042Y164845D01*
X48012Y164981D01*
D02*
G37*
G36*
X36201D02*
X35170Y164845D01*
X34210Y164448D01*
X33386Y163815D01*
X32753Y162990D01*
X32355Y162030D01*
X32220Y161000D01*
X32355Y159970D01*
X32753Y159010D01*
X33386Y158185D01*
X34210Y157552D01*
X35170Y157155D01*
X36201Y157019D01*
X37231Y157155D01*
X38191Y157552D01*
X39016Y158185D01*
X39648Y159010D01*
X40046Y159970D01*
X40182Y161000D01*
X40046Y162030D01*
X39648Y162990D01*
X39016Y163815D01*
X38191Y164448D01*
X37231Y164845D01*
X36201Y164981D01*
D02*
G37*
G36*
X40360Y153348D02*
X37201D01*
Y150189D01*
X40360D01*
Y153348D01*
D02*
G37*
G36*
X35201D02*
X32041D01*
Y150189D01*
X35201D01*
Y153348D01*
D02*
G37*
G36*
X19193Y161919D02*
X17862Y161788D01*
X16581Y161399D01*
X15402Y160769D01*
X14367Y159920D01*
X13519Y158886D01*
X12888Y157706D01*
X12500Y156426D01*
X12369Y155095D01*
X12500Y153763D01*
X12888Y152483D01*
X13519Y151303D01*
X14367Y150269D01*
X15402Y149420D01*
X16581Y148790D01*
X17862Y148401D01*
X19193Y148270D01*
X20524Y148401D01*
X21804Y148790D01*
X22984Y149420D01*
X24018Y150269D01*
X24867Y151303D01*
X25498Y152483D01*
X25886Y153763D01*
X26017Y155095D01*
X25886Y156426D01*
X25498Y157706D01*
X24867Y158886D01*
X24018Y159920D01*
X22984Y160769D01*
X21804Y161399D01*
X20524Y161788D01*
X19193Y161919D01*
D02*
G37*
G36*
X48012Y153170D02*
X46981Y153034D01*
X46021Y152637D01*
X45197Y152004D01*
X44564Y151179D01*
X44167Y150219D01*
X44031Y149189D01*
X44167Y148159D01*
X44564Y147198D01*
X45197Y146374D01*
X46021Y145741D01*
X46981Y145344D01*
X48012Y145208D01*
X49042Y145344D01*
X50002Y145741D01*
X50827Y146374D01*
X51459Y147198D01*
X51857Y148159D01*
X51993Y149189D01*
X51857Y150219D01*
X51459Y151179D01*
X50827Y152004D01*
X50002Y152637D01*
X49042Y153034D01*
X48012Y153170D01*
D02*
G37*
G36*
X40360Y148189D02*
X37201D01*
Y145029D01*
X40360D01*
Y148189D01*
D02*
G37*
G36*
X35201D02*
X32041D01*
Y145029D01*
X35201D01*
Y148189D01*
D02*
G37*
G36*
X56500Y145780D02*
X55781Y145685D01*
X55110Y145407D01*
X54535Y144966D01*
X54093Y144390D01*
X53815Y143719D01*
X53720Y143000D01*
X53815Y142281D01*
X54093Y141610D01*
X54535Y141034D01*
X55110Y140593D01*
X55781Y140315D01*
X56500Y140220D01*
X57219Y140315D01*
X57890Y140593D01*
X58465Y141034D01*
X58907Y141610D01*
X59185Y142281D01*
X59280Y143000D01*
X59185Y143719D01*
X58907Y144390D01*
X58465Y144966D01*
X57890Y145407D01*
X57219Y145685D01*
X56500Y145780D01*
D02*
G37*
G36*
X167652Y137565D02*
X164492D01*
Y134406D01*
X167652D01*
Y137565D01*
D02*
G37*
G36*
X162492D02*
X159333D01*
Y134406D01*
X162492D01*
Y137565D01*
D02*
G37*
G36*
X56500Y138280D02*
X55781Y138185D01*
X55110Y137907D01*
X54535Y137466D01*
X54093Y136890D01*
X53815Y136219D01*
X53720Y135500D01*
X53815Y134781D01*
X54093Y134110D01*
X54535Y133535D01*
X55110Y133093D01*
X55781Y132815D01*
X56500Y132720D01*
X57219Y132815D01*
X57890Y133093D01*
X58465Y133535D01*
X58907Y134110D01*
X59185Y134781D01*
X59280Y135500D01*
X59185Y136219D01*
X58907Y136890D01*
X58465Y137466D01*
X57890Y137907D01*
X57219Y138185D01*
X56500Y138280D01*
D02*
G37*
G36*
X151681Y137386D02*
X150651Y137251D01*
X149691Y136853D01*
X148866Y136220D01*
X148233Y135396D01*
X147836Y134436D01*
X147700Y133405D01*
X147836Y132375D01*
X148233Y131415D01*
X148866Y130591D01*
X149691Y129958D01*
X150651Y129560D01*
X151681Y129425D01*
X152711Y129560D01*
X153672Y129958D01*
X154496Y130591D01*
X155129Y131415D01*
X155526Y132375D01*
X155662Y133405D01*
X155526Y134436D01*
X155129Y135396D01*
X154496Y136220D01*
X153672Y136853D01*
X152711Y137251D01*
X151681Y137386D01*
D02*
G37*
G36*
X167652Y132405D02*
X164492D01*
Y129246D01*
X167652D01*
Y132405D01*
D02*
G37*
G36*
X162492D02*
X159333D01*
Y129246D01*
X162492D01*
Y132405D01*
D02*
G37*
G36*
X102000Y133780D02*
X101281Y133685D01*
X100610Y133407D01*
X100034Y132966D01*
X99593Y132390D01*
X99315Y131719D01*
X99220Y131000D01*
X99315Y130281D01*
X99593Y129610D01*
X100034Y129034D01*
X100610Y128593D01*
X101281Y128315D01*
X102000Y128220D01*
X102719Y128315D01*
X103390Y128593D01*
X103965Y129034D01*
X104407Y129610D01*
X104685Y130281D01*
X104780Y131000D01*
X104685Y131719D01*
X104407Y132390D01*
X103965Y132966D01*
X103390Y133407D01*
X102719Y133685D01*
X102000Y133780D01*
D02*
G37*
G36*
X56500Y131280D02*
X55781Y131185D01*
X55110Y130907D01*
X54535Y130465D01*
X54093Y129890D01*
X53815Y129219D01*
X53720Y128500D01*
X53815Y127781D01*
X54093Y127110D01*
X54535Y126534D01*
X55110Y126093D01*
X55781Y125815D01*
X56500Y125720D01*
X57219Y125815D01*
X57890Y126093D01*
X58465Y126534D01*
X58907Y127110D01*
X59185Y127781D01*
X59280Y128500D01*
X59185Y129219D01*
X58907Y129890D01*
X58465Y130465D01*
X57890Y130907D01*
X57219Y131185D01*
X56500Y131280D01*
D02*
G37*
G36*
X90500Y128280D02*
X89781Y128185D01*
X89110Y127907D01*
X88534Y127465D01*
X88093Y126890D01*
X87815Y126219D01*
X87720Y125500D01*
X87815Y124781D01*
X88093Y124110D01*
X88534Y123535D01*
X89110Y123093D01*
X89781Y122815D01*
X90500Y122720D01*
X91219Y122815D01*
X91890Y123093D01*
X92466Y123535D01*
X92907Y124110D01*
X93185Y124781D01*
X93280Y125500D01*
X93185Y126219D01*
X92907Y126890D01*
X92466Y127465D01*
X91890Y127907D01*
X91219Y128185D01*
X90500Y128280D01*
D02*
G37*
G36*
X76000Y127780D02*
X75281Y127685D01*
X74610Y127407D01*
X74035Y126965D01*
X73593Y126390D01*
X73315Y125719D01*
X73220Y125000D01*
X73315Y124281D01*
X73593Y123610D01*
X74035Y123035D01*
X74610Y122593D01*
X75281Y122315D01*
X76000Y122220D01*
X76719Y122315D01*
X77390Y122593D01*
X77965Y123035D01*
X78407Y123610D01*
X78685Y124281D01*
X78780Y125000D01*
X78685Y125719D01*
X78407Y126390D01*
X77965Y126965D01*
X77390Y127407D01*
X76719Y127685D01*
X76000Y127780D01*
D02*
G37*
G36*
X138000Y126780D02*
X137281Y126685D01*
X136610Y126407D01*
X136035Y125965D01*
X135593Y125390D01*
X135315Y124719D01*
X135220Y124000D01*
X135315Y123281D01*
X135593Y122610D01*
X136035Y122035D01*
X136610Y121593D01*
X137281Y121315D01*
X138000Y121220D01*
X138719Y121315D01*
X139390Y121593D01*
X139965Y122035D01*
X140407Y122610D01*
X140685Y123281D01*
X140780Y124000D01*
X140685Y124719D01*
X140407Y125390D01*
X139965Y125965D01*
X139390Y126407D01*
X138719Y126685D01*
X138000Y126780D01*
D02*
G37*
G36*
X180500Y134324D02*
X179169Y134193D01*
X177889Y133805D01*
X176709Y133174D01*
X175675Y132325D01*
X174826Y131291D01*
X174195Y130112D01*
X173807Y128831D01*
X173676Y127500D01*
X173807Y126169D01*
X174195Y124889D01*
X174826Y123709D01*
X175675Y122675D01*
X176709Y121826D01*
X177889Y121195D01*
X179169Y120807D01*
X180500Y120676D01*
X181831Y120807D01*
X183112Y121195D01*
X184291Y121826D01*
X185325Y122675D01*
X186174Y123709D01*
X186805Y124889D01*
X187193Y126169D01*
X187324Y127500D01*
X187193Y128831D01*
X186805Y130112D01*
X186174Y131291D01*
X185325Y132325D01*
X184291Y133174D01*
X183112Y133805D01*
X181831Y134193D01*
X180500Y134324D01*
D02*
G37*
G36*
X119500Y125280D02*
X118781Y125185D01*
X118110Y124907D01*
X117534Y124466D01*
X117093Y123890D01*
X116815Y123219D01*
X116720Y122500D01*
X116815Y121781D01*
X117093Y121110D01*
X117534Y120535D01*
X118110Y120093D01*
X118781Y119815D01*
X119500Y119720D01*
X120219Y119815D01*
X120890Y120093D01*
X121466Y120535D01*
X121907Y121110D01*
X122185Y121781D01*
X122280Y122500D01*
X122185Y123219D01*
X121907Y123890D01*
X121466Y124466D01*
X120890Y124907D01*
X120219Y125185D01*
X119500Y125280D01*
D02*
G37*
G36*
X103000Y124780D02*
X102281Y124685D01*
X101610Y124407D01*
X101034Y123966D01*
X100593Y123390D01*
X100315Y122719D01*
X100220Y122000D01*
X100315Y121281D01*
X100593Y120610D01*
X101034Y120035D01*
X101610Y119593D01*
X102281Y119315D01*
X103000Y119220D01*
X103719Y119315D01*
X104390Y119593D01*
X104965Y120035D01*
X105407Y120610D01*
X105685Y121281D01*
X105780Y122000D01*
X105685Y122719D01*
X105407Y123390D01*
X104965Y123966D01*
X104390Y124407D01*
X103719Y124685D01*
X103000Y124780D01*
D02*
G37*
G36*
X163492Y125575D02*
X162462Y125440D01*
X161502Y125042D01*
X160677Y124409D01*
X160045Y123585D01*
X159647Y122625D01*
X159511Y121595D01*
X159647Y120564D01*
X160045Y119604D01*
X160677Y118780D01*
X161502Y118147D01*
X162462Y117749D01*
X163492Y117614D01*
X164523Y117749D01*
X165483Y118147D01*
X166307Y118780D01*
X166940Y119604D01*
X167337Y120564D01*
X167473Y121595D01*
X167337Y122625D01*
X166940Y123585D01*
X166307Y124409D01*
X165483Y125042D01*
X164523Y125440D01*
X163492Y125575D01*
D02*
G37*
G36*
X151681D02*
X150651Y125440D01*
X149691Y125042D01*
X148866Y124409D01*
X148233Y123585D01*
X147836Y122625D01*
X147700Y121595D01*
X147836Y120564D01*
X148233Y119604D01*
X148866Y118780D01*
X149691Y118147D01*
X150651Y117749D01*
X151681Y117614D01*
X152711Y117749D01*
X153672Y118147D01*
X154496Y118780D01*
X155129Y119604D01*
X155526Y120564D01*
X155662Y121595D01*
X155526Y122625D01*
X155129Y123585D01*
X154496Y124409D01*
X153672Y125042D01*
X152711Y125440D01*
X151681Y125575D01*
D02*
G37*
G36*
X142290Y121490D02*
X141570Y121395D01*
X140900Y121118D01*
X140324Y120676D01*
X139882Y120100D01*
X139605Y119430D01*
X139510Y118710D01*
X139605Y117991D01*
X139882Y117321D01*
X140324Y116745D01*
X140900Y116303D01*
X141570Y116025D01*
X142290Y115931D01*
X143009Y116025D01*
X143679Y116303D01*
X144255Y116745D01*
X144697Y117321D01*
X144975Y117991D01*
X145069Y118710D01*
X144975Y119430D01*
X144697Y120100D01*
X144255Y120676D01*
X143679Y121118D01*
X143009Y121395D01*
X142290Y121490D01*
D02*
G37*
G36*
X115977Y120280D02*
X115257Y120185D01*
X114587Y119907D01*
X114011Y119465D01*
X113569Y118890D01*
X113292Y118219D01*
X113197Y117500D01*
X113292Y116781D01*
X113569Y116110D01*
X114011Y115534D01*
X114587Y115093D01*
X115257Y114815D01*
X115977Y114720D01*
X116696Y114815D01*
X117367Y115093D01*
X117942Y115534D01*
X118384Y116110D01*
X118662Y116781D01*
X118756Y117500D01*
X118662Y118219D01*
X118384Y118890D01*
X117942Y119465D01*
X117367Y119907D01*
X116696Y120185D01*
X115977Y120280D01*
D02*
G37*
G36*
X48012Y120886D02*
X46981Y120751D01*
X46021Y120353D01*
X45197Y119720D01*
X44564Y118896D01*
X44167Y117936D01*
X44031Y116905D01*
X44167Y115875D01*
X44564Y114915D01*
X45197Y114091D01*
X46021Y113458D01*
X46981Y113060D01*
X48012Y112925D01*
X49042Y113060D01*
X50002Y113458D01*
X50827Y114091D01*
X51459Y114915D01*
X51857Y115875D01*
X51993Y116905D01*
X51857Y117936D01*
X51459Y118896D01*
X50827Y119720D01*
X50002Y120353D01*
X49042Y120751D01*
X48012Y120886D01*
D02*
G37*
G36*
X36201D02*
X35170Y120751D01*
X34210Y120353D01*
X33386Y119720D01*
X32753Y118896D01*
X32355Y117936D01*
X32220Y116905D01*
X32355Y115875D01*
X32753Y114915D01*
X33386Y114091D01*
X34210Y113458D01*
X35170Y113060D01*
X36201Y112925D01*
X37231Y113060D01*
X38191Y113458D01*
X39016Y114091D01*
X39648Y114915D01*
X40046Y115875D01*
X40182Y116905D01*
X40046Y117936D01*
X39648Y118896D01*
X39016Y119720D01*
X38191Y120353D01*
X37231Y120751D01*
X36201Y120886D01*
D02*
G37*
G36*
X72000Y118295D02*
X71281Y118201D01*
X70610Y117923D01*
X70034Y117481D01*
X69593Y116906D01*
X69315Y116235D01*
X69220Y115516D01*
X69315Y114796D01*
X69593Y114126D01*
X70034Y113550D01*
X70610Y113109D01*
X71281Y112831D01*
X72000Y112736D01*
X72719Y112831D01*
X73390Y113109D01*
X73966Y113550D01*
X74407Y114126D01*
X74685Y114796D01*
X74780Y115516D01*
X74685Y116235D01*
X74407Y116906D01*
X73966Y117481D01*
X73390Y117923D01*
X72719Y118201D01*
X72000Y118295D01*
D02*
G37*
G36*
X112500Y115280D02*
X111781Y115185D01*
X111110Y114907D01*
X110535Y114465D01*
X110093Y113890D01*
X109815Y113219D01*
X109720Y112500D01*
X109815Y111781D01*
X110093Y111110D01*
X110136Y111054D01*
X109821Y110643D01*
X109719Y110685D01*
X109000Y110780D01*
X108281Y110685D01*
X107610Y110407D01*
X107035Y109966D01*
X106593Y109390D01*
X106315Y108719D01*
X106220Y108000D01*
X106315Y107281D01*
X106593Y106610D01*
X106636Y106553D01*
X106321Y106143D01*
X106219Y106185D01*
X105500Y106280D01*
X104781Y106185D01*
X104110Y105907D01*
X103534Y105465D01*
X103093Y104890D01*
X102815Y104219D01*
X102720Y103500D01*
X102815Y102781D01*
X103093Y102110D01*
X103534Y101534D01*
X104110Y101093D01*
X104781Y100815D01*
X105500Y100720D01*
X106219Y100815D01*
X106890Y101093D01*
X107466Y101534D01*
X107907Y102110D01*
X108185Y102781D01*
X108280Y103500D01*
X108185Y104219D01*
X107907Y104890D01*
X107864Y104946D01*
X108179Y105357D01*
X108281Y105315D01*
X109000Y105220D01*
X109719Y105315D01*
X110390Y105593D01*
X110966Y106035D01*
X111407Y106610D01*
X111685Y107281D01*
X111780Y108000D01*
X111685Y108719D01*
X111407Y109390D01*
X111364Y109447D01*
X111679Y109857D01*
X111781Y109815D01*
X112500Y109720D01*
X113219Y109815D01*
X113890Y110093D01*
X114465Y110535D01*
X114907Y111110D01*
X115185Y111781D01*
X115280Y112500D01*
X115185Y113219D01*
X114907Y113890D01*
X114465Y114465D01*
X113890Y114907D01*
X113219Y115185D01*
X112500Y115280D01*
D02*
G37*
G36*
X40360Y109254D02*
X37201D01*
Y106095D01*
X40360D01*
Y109254D01*
D02*
G37*
G36*
X35201D02*
X32041D01*
Y106095D01*
X35201D01*
Y109254D01*
D02*
G37*
G36*
X19193Y117824D02*
X17862Y117693D01*
X16581Y117305D01*
X15402Y116674D01*
X14367Y115825D01*
X13519Y114791D01*
X12888Y113611D01*
X12500Y112331D01*
X12369Y111000D01*
X12500Y109669D01*
X12888Y108388D01*
X13519Y107209D01*
X14367Y106175D01*
X15402Y105326D01*
X16581Y104695D01*
X17862Y104307D01*
X19193Y104176D01*
X20524Y104307D01*
X21804Y104695D01*
X22984Y105326D01*
X24018Y106175D01*
X24867Y107209D01*
X25498Y108388D01*
X25886Y109669D01*
X26017Y111000D01*
X25886Y112331D01*
X25498Y113611D01*
X24867Y114791D01*
X24018Y115825D01*
X22984Y116674D01*
X21804Y117305D01*
X20524Y117693D01*
X19193Y117824D01*
D02*
G37*
G36*
X97500Y115320D02*
X96511Y115190D01*
X95590Y114808D01*
X94799Y114201D01*
X94192Y113410D01*
X93810Y112489D01*
X93680Y111500D01*
X93810Y110511D01*
X94192Y109590D01*
X94799Y108799D01*
X95590Y108192D01*
X96511Y107810D01*
X96951Y107752D01*
Y107248D01*
X96511Y107190D01*
X95590Y106808D01*
X94799Y106201D01*
X94192Y105410D01*
X93810Y104489D01*
X93765Y104145D01*
X93261D01*
X93185Y104719D01*
X92907Y105390D01*
X92466Y105965D01*
X91890Y106407D01*
X91219Y106685D01*
X90500Y106780D01*
X89781Y106685D01*
X89110Y106407D01*
X88534Y105965D01*
X88093Y105390D01*
X87815Y104719D01*
X87720Y104000D01*
X87815Y103281D01*
X88093Y102610D01*
X88534Y102034D01*
X89110Y101593D01*
X89781Y101315D01*
X90500Y101220D01*
X91219Y101315D01*
X91890Y101593D01*
X92466Y102034D01*
X92907Y102610D01*
X93185Y103281D01*
X93195Y103355D01*
X93699D01*
X93810Y102511D01*
X94192Y101590D01*
X94799Y100799D01*
X95590Y100192D01*
X96511Y99810D01*
X97500Y99680D01*
X98489Y99810D01*
X99410Y100192D01*
X100201Y100799D01*
X100808Y101590D01*
X101190Y102511D01*
X101320Y103500D01*
X101190Y104489D01*
X100808Y105410D01*
X100201Y106201D01*
X99410Y106808D01*
X98489Y107190D01*
X98049Y107248D01*
Y107752D01*
X98489Y107810D01*
X99410Y108192D01*
X100201Y108799D01*
X100808Y109590D01*
X101190Y110511D01*
X101320Y111500D01*
X101190Y112489D01*
X100808Y113410D01*
X100201Y114201D01*
X99410Y114808D01*
X98489Y115190D01*
X97500Y115320D01*
D02*
G37*
G36*
X77122Y107834D02*
X76402Y107740D01*
X75732Y107462D01*
X75156Y107020D01*
X74714Y106445D01*
X74437Y105774D01*
X74342Y105055D01*
X74437Y104335D01*
X74714Y103665D01*
X75156Y103089D01*
X75732Y102647D01*
X76402Y102370D01*
X77122Y102275D01*
X77841Y102370D01*
X78512Y102647D01*
X79087Y103089D01*
X79529Y103665D01*
X79807Y104335D01*
X79901Y105055D01*
X79807Y105774D01*
X79529Y106445D01*
X79087Y107020D01*
X78512Y107462D01*
X77841Y107740D01*
X77122Y107834D01*
D02*
G37*
G36*
X48012Y109075D02*
X46981Y108940D01*
X46021Y108542D01*
X45197Y107909D01*
X44564Y107085D01*
X44167Y106125D01*
X44031Y105095D01*
X44167Y104064D01*
X44564Y103104D01*
X45197Y102280D01*
X46021Y101647D01*
X46981Y101249D01*
X48012Y101114D01*
X49042Y101249D01*
X50002Y101647D01*
X50827Y102280D01*
X51459Y103104D01*
X51857Y104064D01*
X51993Y105095D01*
X51857Y106125D01*
X51459Y107085D01*
X50827Y107909D01*
X50002Y108542D01*
X49042Y108940D01*
X48012Y109075D01*
D02*
G37*
G36*
X40360Y104095D02*
X37201D01*
Y100935D01*
X40360D01*
Y104095D01*
D02*
G37*
G36*
X35201D02*
X32041D01*
Y100935D01*
X35201D01*
Y104095D01*
D02*
G37*
G36*
X131500Y99780D02*
X130781Y99685D01*
X130110Y99407D01*
X129534Y98966D01*
X129093Y98390D01*
X128815Y97719D01*
X128720Y97000D01*
X128815Y96281D01*
X129093Y95610D01*
X129534Y95034D01*
X130110Y94593D01*
X130781Y94315D01*
X131137Y94268D01*
X131357Y93735D01*
X131093Y93390D01*
X130815Y92719D01*
X130720Y92000D01*
X130815Y91281D01*
X131093Y90610D01*
X131535Y90035D01*
X132110Y89593D01*
X132781Y89315D01*
X133500Y89220D01*
X134219Y89315D01*
X134890Y89593D01*
X135466Y90035D01*
X135907Y90610D01*
X136185Y91281D01*
X136280Y92000D01*
X136185Y92719D01*
X135907Y93390D01*
X135466Y93966D01*
X134890Y94407D01*
X134219Y94685D01*
X133863Y94732D01*
X133643Y95265D01*
X133907Y95610D01*
X134185Y96281D01*
X134280Y97000D01*
X134185Y97719D01*
X133907Y98390D01*
X133466Y98966D01*
X132890Y99407D01*
X132219Y99685D01*
X131500Y99780D01*
D02*
G37*
G36*
X164492Y86562D02*
Y83469D01*
X167586D01*
X167573Y83562D01*
X167151Y84581D01*
X166480Y85456D01*
X165605Y86128D01*
X164586Y86550D01*
X164492Y86562D01*
D02*
G37*
G36*
X162492Y86562D02*
X162399Y86550D01*
X161380Y86128D01*
X160504Y85456D01*
X159833Y84581D01*
X159411Y83562D01*
X159399Y83469D01*
X162492D01*
Y86562D01*
D02*
G37*
G36*
X73265Y86780D02*
X72545Y86685D01*
X71875Y86407D01*
X71299Y85966D01*
X70857Y85390D01*
X70580Y84719D01*
X70485Y84000D01*
X70580Y83281D01*
X70857Y82610D01*
X71299Y82034D01*
X71875Y81593D01*
X72545Y81315D01*
X73265Y81220D01*
X73984Y81315D01*
X74654Y81593D01*
X75230Y82034D01*
X75672Y82610D01*
X75950Y83281D01*
X76044Y84000D01*
X75950Y84719D01*
X75672Y85390D01*
X75230Y85966D01*
X74654Y86407D01*
X73984Y86685D01*
X73265Y86780D01*
D02*
G37*
G36*
X151681Y86479D02*
X150643Y86343D01*
X149676Y85942D01*
X148845Y85304D01*
X148208Y84474D01*
X147807Y83507D01*
X147670Y82468D01*
X147807Y81431D01*
X148208Y80463D01*
X148845Y79633D01*
X149676Y78995D01*
X150643Y78594D01*
X151681Y78458D01*
X152719Y78594D01*
X153686Y78995D01*
X154517Y79633D01*
X155154Y80463D01*
X155555Y81431D01*
X155692Y82468D01*
X155555Y83507D01*
X155154Y84474D01*
X154517Y85304D01*
X153686Y85942D01*
X152719Y86343D01*
X151681Y86479D01*
D02*
G37*
G36*
X167586Y81468D02*
X164492D01*
Y78375D01*
X164586Y78387D01*
X165605Y78809D01*
X166480Y79481D01*
X167151Y80356D01*
X167573Y81375D01*
X167586Y81468D01*
D02*
G37*
G36*
X162492D02*
X159399D01*
X159411Y81375D01*
X159833Y80356D01*
X160504Y79481D01*
X161380Y78809D01*
X162399Y78387D01*
X162492Y78375D01*
Y81468D01*
D02*
G37*
G36*
X37508Y76424D02*
Y73311D01*
X40621D01*
X40608Y73410D01*
X40184Y74433D01*
X39509Y75313D01*
X38630Y75987D01*
X37606Y76411D01*
X37508Y76424D01*
D02*
G37*
G36*
X35508D02*
X35409Y76411D01*
X34385Y75987D01*
X33506Y75313D01*
X32832Y74433D01*
X32408Y73410D01*
X32394Y73311D01*
X35508D01*
Y76424D01*
D02*
G37*
G36*
X111000Y82280D02*
X110281Y82185D01*
X109610Y81907D01*
X109035Y81466D01*
X108593Y80890D01*
X108315Y80219D01*
X108220Y79500D01*
X108315Y78781D01*
X108593Y78110D01*
X109035Y77535D01*
X109610Y77093D01*
X110065Y76904D01*
Y76363D01*
X109610Y76175D01*
X109035Y75733D01*
X108593Y75158D01*
X108315Y74487D01*
X108220Y73768D01*
X108315Y73048D01*
X108593Y72378D01*
X109035Y71802D01*
X109610Y71360D01*
X110281Y71083D01*
X111000Y70988D01*
X111719Y71083D01*
X112390Y71360D01*
X112966Y71802D01*
X113407Y72378D01*
X113685Y73048D01*
X113780Y73768D01*
X113685Y74487D01*
X113407Y75158D01*
X112966Y75733D01*
X112390Y76175D01*
X111935Y76363D01*
Y76904D01*
X112390Y77093D01*
X112966Y77535D01*
X113407Y78110D01*
X113685Y78781D01*
X113780Y79500D01*
X113685Y80219D01*
X113407Y80890D01*
X112966Y81466D01*
X112390Y81907D01*
X111719Y82185D01*
X111000Y82280D01*
D02*
G37*
G36*
X48319Y76342D02*
X47276Y76204D01*
X46304Y75802D01*
X45469Y75161D01*
X44828Y74326D01*
X44426Y73354D01*
X44288Y72311D01*
X44426Y71268D01*
X44828Y70296D01*
X45469Y69461D01*
X46304Y68821D01*
X47276Y68418D01*
X48319Y68281D01*
X49362Y68418D01*
X50334Y68821D01*
X51169Y69461D01*
X51810Y70296D01*
X52212Y71268D01*
X52349Y72311D01*
X52212Y73354D01*
X51810Y74326D01*
X51169Y75161D01*
X50334Y75802D01*
X49362Y76204D01*
X48319Y76342D01*
D02*
G37*
G36*
X40621Y71311D02*
X37508D01*
Y68198D01*
X37606Y68211D01*
X38630Y68635D01*
X39509Y69309D01*
X40184Y70188D01*
X40608Y71212D01*
X40621Y71311D01*
D02*
G37*
G36*
X35508D02*
X32394D01*
X32408Y71212D01*
X32832Y70188D01*
X33506Y69309D01*
X34385Y68635D01*
X35409Y68211D01*
X35508Y68198D01*
Y71311D01*
D02*
G37*
G36*
X180500Y80828D02*
X179169Y80697D01*
X177889Y80309D01*
X176709Y79678D01*
X175675Y78829D01*
X174826Y77795D01*
X174195Y76615D01*
X173807Y75335D01*
X173676Y74004D01*
X173807Y72673D01*
X174195Y71392D01*
X174826Y70213D01*
X175675Y69178D01*
X176709Y68330D01*
X177889Y67699D01*
X179169Y67311D01*
X180500Y67180D01*
X181831Y67311D01*
X183112Y67699D01*
X184291Y68330D01*
X185325Y69178D01*
X186174Y70213D01*
X186805Y71392D01*
X187193Y72673D01*
X187324Y74004D01*
X187193Y75335D01*
X186805Y76615D01*
X186174Y77795D01*
X185325Y78829D01*
X184291Y79678D01*
X183112Y80309D01*
X181831Y80697D01*
X180500Y80828D01*
D02*
G37*
G36*
X163492Y74668D02*
X162454Y74532D01*
X161487Y74131D01*
X160656Y73493D01*
X160019Y72663D01*
X159618Y71696D01*
X159481Y70657D01*
X159618Y69619D01*
X160019Y68652D01*
X160656Y67822D01*
X161487Y67184D01*
X162454Y66783D01*
X163492Y66647D01*
X164530Y66783D01*
X165498Y67184D01*
X166328Y67822D01*
X166965Y68652D01*
X167366Y69619D01*
X167503Y70657D01*
X167366Y71696D01*
X166965Y72663D01*
X166328Y73493D01*
X165498Y74131D01*
X164530Y74532D01*
X163492Y74668D01*
D02*
G37*
G36*
X151681D02*
X150643Y74532D01*
X149676Y74131D01*
X148845Y73493D01*
X148208Y72663D01*
X147807Y71696D01*
X147670Y70657D01*
X147807Y69619D01*
X148208Y68652D01*
X148845Y67822D01*
X149676Y67184D01*
X150643Y66783D01*
X151681Y66647D01*
X152719Y66783D01*
X153686Y67184D01*
X154517Y67822D01*
X155154Y68652D01*
X155555Y69619D01*
X155692Y70657D01*
X155555Y71696D01*
X155154Y72663D01*
X154517Y73493D01*
X153686Y74131D01*
X152719Y74532D01*
X151681Y74668D01*
D02*
G37*
G36*
X130000Y69780D02*
X129281Y69685D01*
X128610Y69407D01*
X128034Y68966D01*
X127593Y68390D01*
X127315Y67719D01*
X127220Y67000D01*
X127315Y66281D01*
X127593Y65610D01*
X128034Y65035D01*
X128610Y64593D01*
X129281Y64315D01*
X130000Y64220D01*
X130719Y64315D01*
X131390Y64593D01*
X131965Y65035D01*
X132407Y65610D01*
X132685Y66281D01*
X132780Y67000D01*
X132685Y67719D01*
X132407Y68390D01*
X131965Y68966D01*
X131390Y69407D01*
X130719Y69685D01*
X130000Y69780D01*
D02*
G37*
G36*
X48319Y64530D02*
X47276Y64393D01*
X46304Y63990D01*
X45469Y63350D01*
X44828Y62515D01*
X44426Y61543D01*
X44288Y60500D01*
X44426Y59457D01*
X44828Y58485D01*
X45469Y57650D01*
X46304Y57010D01*
X47276Y56607D01*
X48319Y56470D01*
X49362Y56607D01*
X50334Y57010D01*
X51169Y57650D01*
X51810Y58485D01*
X52212Y59457D01*
X52349Y60500D01*
X52212Y61543D01*
X51810Y62515D01*
X51169Y63350D01*
X50334Y63990D01*
X49362Y64393D01*
X48319Y64530D01*
D02*
G37*
G36*
X36508D02*
X35465Y64393D01*
X34493Y63990D01*
X33658Y63350D01*
X33017Y62515D01*
X32615Y61543D01*
X32477Y60500D01*
X32615Y59457D01*
X33017Y58485D01*
X33658Y57650D01*
X34493Y57010D01*
X35465Y56607D01*
X36508Y56470D01*
X37551Y56607D01*
X38523Y57010D01*
X39358Y57650D01*
X39998Y58485D01*
X40401Y59457D01*
X40538Y60500D01*
X40401Y61543D01*
X39998Y62515D01*
X39358Y63350D01*
X38523Y63990D01*
X37551Y64393D01*
X36508Y64530D01*
D02*
G37*
G36*
X163492Y62857D02*
X162454Y62721D01*
X161487Y62320D01*
X160656Y61682D01*
X160019Y60852D01*
X159618Y59885D01*
X159481Y58846D01*
X159618Y57808D01*
X160019Y56841D01*
X160656Y56011D01*
X161487Y55373D01*
X162454Y54972D01*
X163492Y54836D01*
X164530Y54972D01*
X165498Y55373D01*
X166328Y56011D01*
X166965Y56841D01*
X167366Y57808D01*
X167503Y58846D01*
X167366Y59885D01*
X166965Y60852D01*
X166328Y61682D01*
X165498Y62320D01*
X164530Y62721D01*
X163492Y62857D01*
D02*
G37*
G36*
X151681D02*
X150643Y62721D01*
X149676Y62320D01*
X148845Y61682D01*
X148208Y60852D01*
X147807Y59885D01*
X147670Y58846D01*
X147807Y57808D01*
X148208Y56841D01*
X148845Y56011D01*
X149676Y55373D01*
X150643Y54972D01*
X151681Y54836D01*
X152719Y54972D01*
X153686Y55373D01*
X154517Y56011D01*
X155154Y56841D01*
X155555Y57808D01*
X155692Y58846D01*
X155555Y59885D01*
X155154Y60852D01*
X154517Y61682D01*
X153686Y62320D01*
X152719Y62721D01*
X151681Y62857D01*
D02*
G37*
G36*
X19500Y67225D02*
X18188Y67096D01*
X16926Y66713D01*
X15764Y66092D01*
X14744Y65255D01*
X13908Y64236D01*
X13287Y63074D01*
X12904Y61812D01*
X12775Y60500D01*
X12904Y59188D01*
X13287Y57926D01*
X13908Y56764D01*
X14744Y55744D01*
X15764Y54908D01*
X16926Y54287D01*
X18188Y53904D01*
X19500Y53775D01*
X20812Y53904D01*
X22074Y54287D01*
X23236Y54908D01*
X24256Y55744D01*
X25092Y56764D01*
X25713Y57926D01*
X26096Y59188D01*
X26225Y60500D01*
X26096Y61812D01*
X25713Y63074D01*
X25092Y64236D01*
X24256Y65255D01*
X23236Y66092D01*
X22074Y66713D01*
X20812Y67096D01*
X19500Y67225D01*
D02*
G37*
G36*
X180500Y62324D02*
X179169Y62193D01*
X177889Y61805D01*
X176709Y61174D01*
X175675Y60325D01*
X174826Y59291D01*
X174195Y58112D01*
X173807Y56831D01*
X173676Y55500D01*
X173807Y54169D01*
X174195Y52889D01*
X174826Y51709D01*
X175675Y50675D01*
X176709Y49826D01*
X177889Y49195D01*
X179169Y48807D01*
X180500Y48676D01*
X181831Y48807D01*
X183112Y49195D01*
X184291Y49826D01*
X185325Y50675D01*
X186174Y51709D01*
X186805Y52889D01*
X187193Y54169D01*
X187324Y55500D01*
X187193Y56831D01*
X186805Y58112D01*
X186174Y59291D01*
X185325Y60325D01*
X184291Y61174D01*
X183112Y61805D01*
X181831Y62193D01*
X180500Y62324D01*
D02*
G37*
G36*
X136500Y52780D02*
X135781Y52685D01*
X135110Y52407D01*
X134535Y51965D01*
X134093Y51390D01*
X133815Y50719D01*
X133720Y50000D01*
X133815Y49281D01*
X134093Y48610D01*
X134535Y48035D01*
X135110Y47593D01*
X135781Y47315D01*
X136500Y47220D01*
X137219Y47315D01*
X137890Y47593D01*
X138465Y48035D01*
X138907Y48610D01*
X139185Y49281D01*
X139280Y50000D01*
X139185Y50719D01*
X138907Y51390D01*
X138465Y51965D01*
X137890Y52407D01*
X137219Y52685D01*
X136500Y52780D01*
D02*
G37*
G36*
X124000D02*
X123281Y52685D01*
X122610Y52407D01*
X122035Y51965D01*
X121593Y51390D01*
X121315Y50719D01*
X121220Y50000D01*
X121315Y49281D01*
X121593Y48610D01*
X122035Y48035D01*
X122610Y47593D01*
X123281Y47315D01*
X124000Y47220D01*
X124719Y47315D01*
X125390Y47593D01*
X125965Y48035D01*
X126407Y48610D01*
X126685Y49281D01*
X126780Y50000D01*
X126685Y50719D01*
X126407Y51390D01*
X125965Y51965D01*
X125390Y52407D01*
X124719Y52685D01*
X124000Y52780D01*
D02*
G37*
G36*
X112000D02*
X111281Y52685D01*
X110610Y52407D01*
X110035Y51965D01*
X109593Y51390D01*
X109315Y50719D01*
X109220Y50000D01*
X109315Y49281D01*
X109593Y48610D01*
X110035Y48035D01*
X110610Y47593D01*
X111281Y47315D01*
X112000Y47220D01*
X112719Y47315D01*
X113390Y47593D01*
X113965Y48035D01*
X114407Y48610D01*
X114685Y49281D01*
X114780Y50000D01*
X114685Y50719D01*
X114407Y51390D01*
X113965Y51965D01*
X113390Y52407D01*
X112719Y52685D01*
X112000Y52780D01*
D02*
G37*
G36*
X101000D02*
X100281Y52685D01*
X99610Y52407D01*
X99035Y51965D01*
X98593Y51390D01*
X98315Y50719D01*
X98220Y50000D01*
X98315Y49281D01*
X98593Y48610D01*
X99035Y48035D01*
X99610Y47593D01*
X100281Y47315D01*
X101000Y47220D01*
X101719Y47315D01*
X102390Y47593D01*
X102965Y48035D01*
X103407Y48610D01*
X103685Y49281D01*
X103780Y50000D01*
X103685Y50719D01*
X103407Y51390D01*
X102965Y51965D01*
X102390Y52407D01*
X101719Y52685D01*
X101000Y52780D01*
D02*
G37*
G36*
X48319Y52719D02*
X47276Y52582D01*
X46304Y52179D01*
X45469Y51539D01*
X44828Y50704D01*
X44426Y49732D01*
X44288Y48689D01*
X44426Y47646D01*
X44828Y46674D01*
X45469Y45839D01*
X46304Y45198D01*
X47276Y44796D01*
X48319Y44658D01*
X49362Y44796D01*
X50334Y45198D01*
X51169Y45839D01*
X51810Y46674D01*
X52212Y47646D01*
X52349Y48689D01*
X52212Y49732D01*
X51810Y50704D01*
X51169Y51539D01*
X50334Y52179D01*
X49362Y52582D01*
X48319Y52719D01*
D02*
G37*
G36*
X36508D02*
X35465Y52582D01*
X34493Y52179D01*
X33658Y51539D01*
X33017Y50704D01*
X32615Y49732D01*
X32477Y48689D01*
X32615Y47646D01*
X33017Y46674D01*
X33658Y45839D01*
X34493Y45198D01*
X35465Y44796D01*
X36508Y44658D01*
X37551Y44796D01*
X38523Y45198D01*
X39358Y45839D01*
X39998Y46674D01*
X40401Y47646D01*
X40538Y48689D01*
X40401Y49732D01*
X39998Y50704D01*
X39358Y51539D01*
X38523Y52179D01*
X37551Y52582D01*
X36508Y52719D01*
D02*
G37*
G36*
X93000Y49600D02*
X92281Y49506D01*
X91610Y49228D01*
X91035Y48786D01*
X90593Y48211D01*
X90315Y47540D01*
X90220Y46821D01*
X90315Y46101D01*
X90593Y45431D01*
X91035Y44855D01*
X91610Y44414D01*
X92281Y44136D01*
X93000Y44041D01*
X93719Y44136D01*
X94390Y44414D01*
X94965Y44855D01*
X95407Y45431D01*
X95685Y46101D01*
X95780Y46821D01*
X95685Y47540D01*
X95407Y48211D01*
X94965Y48786D01*
X94390Y49228D01*
X93719Y49506D01*
X93000Y49600D01*
D02*
G37*
G36*
X82906Y51993D02*
X81875Y51857D01*
X80915Y51459D01*
X80091Y50827D01*
X79458Y50002D01*
X79060Y49042D01*
X78925Y48012D01*
X79060Y46981D01*
X79458Y46021D01*
X80091Y45197D01*
X80915Y44564D01*
X81875Y44167D01*
X82906Y44031D01*
X83936Y44167D01*
X84896Y44564D01*
X85720Y45197D01*
X86353Y46021D01*
X86751Y46981D01*
X86886Y48012D01*
X86751Y49042D01*
X86353Y50002D01*
X85720Y50827D01*
X84896Y51459D01*
X83936Y51857D01*
X82906Y51993D01*
D02*
G37*
G36*
X71095D02*
X70064Y51857D01*
X69104Y51459D01*
X68280Y50827D01*
X67647Y50002D01*
X67249Y49042D01*
X67114Y48012D01*
X67249Y46981D01*
X67647Y46021D01*
X68280Y45197D01*
X69104Y44564D01*
X70064Y44167D01*
X71095Y44031D01*
X72125Y44167D01*
X73085Y44564D01*
X73909Y45197D01*
X74542Y46021D01*
X74940Y46981D01*
X75075Y48012D01*
X74940Y49042D01*
X74542Y50002D01*
X73909Y50827D01*
X73085Y51459D01*
X72125Y51857D01*
X71095Y51993D01*
D02*
G37*
G36*
X163492Y51046D02*
X162454Y50909D01*
X161487Y50509D01*
X160656Y49871D01*
X160019Y49041D01*
X159618Y48074D01*
X159481Y47035D01*
X159618Y45997D01*
X160019Y45030D01*
X160656Y44199D01*
X161487Y43562D01*
X162454Y43161D01*
X163492Y43025D01*
X164530Y43161D01*
X165498Y43562D01*
X166328Y44199D01*
X166965Y45030D01*
X167366Y45997D01*
X167503Y47035D01*
X167366Y48074D01*
X166965Y49041D01*
X166328Y49871D01*
X165498Y50509D01*
X164530Y50909D01*
X163492Y51046D01*
D02*
G37*
G36*
X151681D02*
X150643Y50909D01*
X149676Y50509D01*
X148845Y49871D01*
X148208Y49041D01*
X147807Y48074D01*
X147670Y47035D01*
X147807Y45997D01*
X148208Y45030D01*
X148845Y44199D01*
X149676Y43562D01*
X150643Y43161D01*
X151681Y43025D01*
X152719Y43161D01*
X153686Y43562D01*
X154517Y44199D01*
X155154Y45030D01*
X155555Y45997D01*
X155692Y47035D01*
X155555Y48074D01*
X155154Y49041D01*
X154517Y49871D01*
X153686Y50509D01*
X152719Y50909D01*
X151681Y51046D01*
D02*
G37*
G36*
X130500Y47780D02*
X129781Y47685D01*
X129110Y47407D01*
X128534Y46966D01*
X128093Y46390D01*
X127815Y45719D01*
X127720Y45000D01*
X127815Y44281D01*
X128093Y43610D01*
X128534Y43034D01*
X129110Y42593D01*
X129781Y42315D01*
X130500Y42220D01*
X131219Y42315D01*
X131890Y42593D01*
X132466Y43034D01*
X132907Y43610D01*
X133185Y44281D01*
X133280Y45000D01*
X133185Y45719D01*
X132907Y46390D01*
X132466Y46966D01*
X131890Y47407D01*
X131219Y47685D01*
X130500Y47780D01*
D02*
G37*
G36*
X118000D02*
X117281Y47685D01*
X116610Y47407D01*
X116034Y46966D01*
X115593Y46390D01*
X115315Y45719D01*
X115220Y45000D01*
X115315Y44281D01*
X115593Y43610D01*
X116034Y43034D01*
X116610Y42593D01*
X117281Y42315D01*
X118000Y42220D01*
X118719Y42315D01*
X119390Y42593D01*
X119966Y43034D01*
X120407Y43610D01*
X120685Y44281D01*
X120780Y45000D01*
X120685Y45719D01*
X120407Y46390D01*
X119966Y46966D01*
X119390Y47407D01*
X118719Y47685D01*
X118000Y47780D01*
D02*
G37*
G36*
X87065Y40360D02*
X83906D01*
Y37201D01*
X87065D01*
Y40360D01*
D02*
G37*
G36*
X81906D02*
X78746D01*
Y37201D01*
X81906D01*
Y40360D01*
D02*
G37*
G36*
X71095Y40182D02*
X70064Y40046D01*
X69104Y39648D01*
X68280Y39016D01*
X67647Y38191D01*
X67249Y37231D01*
X67114Y36201D01*
X67249Y35170D01*
X67647Y34210D01*
X68280Y33386D01*
X69104Y32753D01*
X70064Y32355D01*
X71095Y32220D01*
X72125Y32355D01*
X73085Y32753D01*
X73909Y33386D01*
X74542Y34210D01*
X74940Y35170D01*
X75075Y36201D01*
X74940Y37231D01*
X74542Y38191D01*
X73909Y39016D01*
X73085Y39648D01*
X72125Y40046D01*
X71095Y40182D01*
D02*
G37*
G36*
X87065Y35201D02*
X83906D01*
Y32041D01*
X87065D01*
Y35201D01*
D02*
G37*
G36*
X81906D02*
X78746D01*
Y32041D01*
X81906D01*
Y35201D01*
D02*
G37*
G36*
X144500Y36780D02*
X143781Y36685D01*
X143110Y36407D01*
X142534Y35965D01*
X142093Y35390D01*
X141815Y34719D01*
X141720Y34000D01*
X141815Y33281D01*
X142093Y32610D01*
X142534Y32035D01*
X143110Y31593D01*
X143781Y31315D01*
X144500Y31220D01*
X145219Y31315D01*
X145890Y31593D01*
X146466Y32035D01*
X146907Y32610D01*
X147185Y33281D01*
X147280Y34000D01*
X147185Y34719D01*
X146907Y35390D01*
X146466Y35965D01*
X145890Y36407D01*
X145219Y36685D01*
X144500Y36780D01*
D02*
G37*
G36*
X34142Y33647D02*
Y30795D01*
X36993D01*
X36989Y30826D01*
X36591Y31787D01*
X35958Y32612D01*
X35133Y33245D01*
X34173Y33643D01*
X34142Y33647D01*
D02*
G37*
G36*
X32142D02*
X32111Y33643D01*
X31150Y33245D01*
X30325Y32612D01*
X29693Y31787D01*
X29294Y30826D01*
X29291Y30795D01*
X32142D01*
Y33647D01*
D02*
G37*
G36*
X50858Y33564D02*
X49883Y33435D01*
X48974Y33059D01*
X48194Y32460D01*
X47595Y31679D01*
X47218Y30771D01*
X47090Y29795D01*
X47218Y28820D01*
X47595Y27911D01*
X48194Y27131D01*
X48974Y26532D01*
X49883Y26155D01*
X50858Y26027D01*
X51834Y26155D01*
X52742Y26532D01*
X53523Y27131D01*
X54122Y27911D01*
X54498Y28820D01*
X54627Y29795D01*
X54498Y30771D01*
X54122Y31679D01*
X53523Y32460D01*
X52742Y33059D01*
X51834Y33435D01*
X50858Y33564D01*
D02*
G37*
G36*
X36993Y28795D02*
X34142D01*
Y25944D01*
X34173Y25948D01*
X35133Y26346D01*
X35958Y26979D01*
X36591Y27804D01*
X36989Y28764D01*
X36993Y28795D01*
D02*
G37*
G36*
X32142D02*
X29291D01*
X29294Y28764D01*
X29693Y27804D01*
X30325Y26979D01*
X31150Y26346D01*
X32111Y25948D01*
X32142Y25944D01*
Y28795D01*
D02*
G37*
G36*
X168740Y30240D02*
X161260D01*
Y22760D01*
X168740D01*
Y30240D01*
D02*
G37*
G36*
X132000Y23811D02*
X131272Y23716D01*
X130594Y23435D01*
X130012Y22988D01*
X129815Y22731D01*
X129185D01*
X128988Y22988D01*
X128406Y23435D01*
X127728Y23716D01*
X127000Y23811D01*
X126272Y23716D01*
X125594Y23435D01*
X125012Y22988D01*
X124815Y22731D01*
X124185D01*
X123988Y22988D01*
X123406Y23435D01*
X122728Y23716D01*
X122000Y23811D01*
X121272Y23716D01*
X120594Y23435D01*
X120012Y22988D01*
X119815Y22731D01*
X119185D01*
X118988Y22988D01*
X118406Y23435D01*
X117728Y23716D01*
X117000Y23811D01*
X116272Y23716D01*
X115594Y23435D01*
X115012Y22988D01*
X114815Y22731D01*
X114185D01*
X113988Y22988D01*
X113406Y23435D01*
X112728Y23716D01*
X112000Y23811D01*
X111272Y23716D01*
X110594Y23435D01*
X110012Y22988D01*
X109565Y22406D01*
X109284Y21728D01*
X109189Y21000D01*
X109284Y20272D01*
X109565Y19594D01*
X109801Y19287D01*
X109554Y18787D01*
X109213D01*
Y13213D01*
X114787D01*
Y13286D01*
X115287Y13533D01*
X115487Y13379D01*
X116000Y13167D01*
Y16000D01*
X118000D01*
Y13167D01*
X118513Y13379D01*
X119140Y13860D01*
X119250Y14004D01*
X119750D01*
X119860Y13860D01*
X120487Y13379D01*
X121000Y13167D01*
Y16000D01*
X123000D01*
Y13167D01*
X123513Y13379D01*
X124140Y13860D01*
X124319Y14094D01*
X124949D01*
X125012Y14012D01*
X125594Y13565D01*
X126272Y13284D01*
X127000Y13189D01*
X127728Y13284D01*
X128406Y13565D01*
X128988Y14012D01*
X129051Y14094D01*
X129681D01*
X129860Y13860D01*
X130487Y13379D01*
X131000Y13167D01*
Y16000D01*
X132000D01*
Y17000D01*
X134833D01*
X134620Y17513D01*
X134140Y18140D01*
X133906Y18319D01*
Y18949D01*
X133988Y19012D01*
X134435Y19594D01*
X134716Y20272D01*
X134811Y21000D01*
X134716Y21728D01*
X134435Y22406D01*
X133988Y22988D01*
X133406Y23435D01*
X132728Y23716D01*
X132000Y23811D01*
D02*
G37*
G36*
X144500Y22780D02*
X143781Y22685D01*
X143110Y22407D01*
X142534Y21966D01*
X142093Y21390D01*
X141815Y20719D01*
X141720Y20000D01*
X141815Y19281D01*
X142093Y18610D01*
X142534Y18034D01*
X143110Y17593D01*
X143781Y17315D01*
X144500Y17220D01*
X145219Y17315D01*
X145890Y17593D01*
X146466Y18034D01*
X146907Y18610D01*
X147185Y19281D01*
X147280Y20000D01*
X147185Y20719D01*
X146907Y21390D01*
X146466Y21966D01*
X145890Y22407D01*
X145219Y22685D01*
X144500Y22780D01*
D02*
G37*
G36*
X134833Y15000D02*
X133000D01*
Y13167D01*
X133513Y13379D01*
X134140Y13860D01*
X134620Y14487D01*
X134833Y15000D01*
D02*
G37*
G36*
X165000Y20272D02*
X164024Y20144D01*
X163114Y19767D01*
X162332Y19168D01*
X161733Y18386D01*
X161356Y17476D01*
X161228Y16500D01*
X161356Y15524D01*
X161733Y14614D01*
X162332Y13833D01*
X163114Y13233D01*
X164024Y12856D01*
X165000Y12728D01*
X165976Y12856D01*
X166886Y13233D01*
X167667Y13833D01*
X168267Y14614D01*
X168644Y15524D01*
X168772Y16500D01*
X168644Y17476D01*
X168267Y18386D01*
X167667Y19168D01*
X166886Y19767D01*
X165976Y20144D01*
X165000Y20272D01*
D02*
G37*
G36*
X77000Y26017D02*
X75669Y25886D01*
X74388Y25498D01*
X73209Y24867D01*
X72175Y24018D01*
X71326Y22984D01*
X70695Y21804D01*
X70307Y20524D01*
X70176Y19193D01*
X70307Y17862D01*
X70695Y16581D01*
X71326Y15402D01*
X72175Y14367D01*
X73209Y13519D01*
X74388Y12888D01*
X75669Y12500D01*
X77000Y12369D01*
X78331Y12500D01*
X79611Y12888D01*
X80791Y13519D01*
X81825Y14367D01*
X82674Y15402D01*
X83305Y16581D01*
X83693Y17862D01*
X83824Y19193D01*
X83693Y20524D01*
X83305Y21804D01*
X82674Y22984D01*
X81825Y24018D01*
X80791Y24867D01*
X79611Y25498D01*
X78331Y25886D01*
X77000Y26017D01*
D02*
G37*
G36*
X34142Y8056D02*
Y5205D01*
X36993D01*
X36989Y5236D01*
X36591Y6196D01*
X35958Y7021D01*
X35133Y7654D01*
X34173Y8052D01*
X34142Y8056D01*
D02*
G37*
G36*
X32142D02*
X32111Y8052D01*
X31150Y7654D01*
X30325Y7021D01*
X29693Y6196D01*
X29294Y5236D01*
X29291Y5205D01*
X32142D01*
Y8056D01*
D02*
G37*
%LPD*%
D16*
X105000Y285000D02*
D03*
X95000D02*
D03*
X85000D02*
D03*
X75000D02*
D03*
X65000D02*
D03*
X55000D02*
D03*
X45000D02*
D03*
X35000D02*
D03*
X105000Y275000D02*
D03*
X95000D02*
D03*
X85000D02*
D03*
X75000D02*
D03*
X65000D02*
D03*
X55000D02*
D03*
X45000D02*
D03*
D17*
X35000D02*
D03*
D18*
X130000Y250000D02*
D03*
X120000D02*
D03*
X110000D02*
D03*
X60000Y190000D02*
D03*
Y170000D02*
D03*
Y180000D02*
D03*
X97500Y103500D02*
D03*
Y111500D02*
D03*
X140000Y190000D02*
D03*
Y180000D02*
D03*
Y170000D02*
D03*
Y200000D02*
D03*
Y230000D02*
D03*
X120000Y170000D02*
D03*
X130000D02*
D03*
X140000Y210000D02*
D03*
Y220000D02*
D03*
X110000Y170000D02*
D03*
X100000D02*
D03*
X90000D02*
D03*
X80000D02*
D03*
X70000D02*
D03*
X60000Y210000D02*
D03*
X100000Y250000D02*
D03*
X90000D02*
D03*
X80000D02*
D03*
X130000Y240000D02*
D03*
X120000D02*
D03*
X110000D02*
D03*
X100000D02*
D03*
X90000D02*
D03*
X80000D02*
D03*
X110000Y230000D02*
D03*
X100000D02*
D03*
X90000D02*
D03*
X80000D02*
D03*
X70000D02*
D03*
X60000Y220000D02*
D03*
X70000Y190000D02*
D03*
X80000Y220000D02*
D03*
X70000D02*
D03*
X140000Y250000D02*
D03*
X90000Y190000D02*
D03*
X80000Y180000D02*
D03*
X120000Y230000D02*
D03*
X130000D02*
D03*
X140000Y240000D02*
D03*
X90000Y180000D02*
D03*
X70000Y210000D02*
D03*
X130000Y220000D02*
D03*
X120000D02*
D03*
X110000D02*
D03*
X100000D02*
D03*
X90000D02*
D03*
X130000Y210000D02*
D03*
X120000D02*
D03*
X110000D02*
D03*
X100000D02*
D03*
X90000D02*
D03*
X80000D02*
D03*
X120000Y200000D02*
D03*
X110000D02*
D03*
X100000D02*
D03*
X90000D02*
D03*
X80000D02*
D03*
X70000D02*
D03*
Y250000D02*
D03*
X100000Y190000D02*
D03*
X70000Y180000D02*
D03*
X130000D02*
D03*
X120000D02*
D03*
X110000D02*
D03*
X100000D02*
D03*
X70000Y240000D02*
D03*
X80000Y190000D02*
D03*
X60000Y200000D02*
D03*
X130000D02*
D03*
X60000Y230000D02*
D03*
X110000Y190000D02*
D03*
X130000D02*
D03*
X120000D02*
D03*
X60000Y240000D02*
D03*
Y250000D02*
D03*
D19*
X19193Y155095D02*
D03*
X180500Y74004D02*
D03*
Y55500D02*
D03*
Y233000D02*
D03*
Y180500D02*
D03*
Y127500D02*
D03*
X19193Y111000D02*
D03*
Y202000D02*
D03*
Y247500D02*
D03*
X77000Y19193D02*
D03*
D20*
X48012Y161000D02*
D03*
Y149189D02*
D03*
X36201Y161000D02*
D03*
X151681Y227095D02*
D03*
Y238906D02*
D03*
X163492Y227095D02*
D03*
X151681Y174594D02*
D03*
Y186406D02*
D03*
X163492Y174594D02*
D03*
X151681Y121595D02*
D03*
Y133405D02*
D03*
X163492Y121595D02*
D03*
X48012Y116905D02*
D03*
Y105095D02*
D03*
X36201Y116905D02*
D03*
X48012Y207906D02*
D03*
Y196095D02*
D03*
X36201Y207906D02*
D03*
X48012Y253405D02*
D03*
Y241595D02*
D03*
X36201Y253405D02*
D03*
X71095Y48012D02*
D03*
X82906D02*
D03*
X71095Y36201D02*
D03*
D21*
X36201Y149189D02*
D03*
X163492Y238906D02*
D03*
Y186406D02*
D03*
Y133405D02*
D03*
X36201Y105095D02*
D03*
Y196095D02*
D03*
Y241595D02*
D03*
D22*
X151681Y47035D02*
D03*
Y58846D02*
D03*
Y70657D02*
D03*
Y82468D02*
D03*
X163492Y47035D02*
D03*
Y58846D02*
D03*
Y70657D02*
D03*
Y82468D02*
D03*
D23*
X33142Y4205D02*
D03*
Y29795D02*
D03*
X50858D02*
D03*
Y4205D02*
D03*
D24*
X112000Y16000D02*
D03*
D25*
Y21000D02*
D03*
X117000Y16000D02*
D03*
Y21000D02*
D03*
X122000Y16000D02*
D03*
Y21000D02*
D03*
X127000Y16000D02*
D03*
Y21000D02*
D03*
X132000Y16000D02*
D03*
Y21000D02*
D03*
D26*
X82906Y36201D02*
D03*
D27*
X157500Y284500D02*
D03*
D28*
X142500D02*
D03*
X127500D02*
D03*
D29*
X36508Y72311D02*
D03*
Y60500D02*
D03*
Y48689D02*
D03*
X48319D02*
D03*
Y60500D02*
D03*
Y72311D02*
D03*
D30*
X165000Y26500D02*
D03*
D31*
Y16500D02*
D03*
Y6500D02*
D03*
D32*
X83000Y262500D02*
D03*
X73265Y84000D02*
D03*
X103000Y122000D02*
D03*
X102000Y131000D02*
D03*
X90500Y117500D02*
D03*
X142290Y118710D02*
D03*
X131500Y97000D02*
D03*
X76000Y125000D02*
D03*
X119500Y122500D02*
D03*
X111000Y73768D02*
D03*
X90500Y125500D02*
D03*
Y104000D02*
D03*
X138000Y124000D02*
D03*
X112500Y112500D02*
D03*
X109000Y108000D02*
D03*
X111000Y79500D02*
D03*
X136097Y136904D02*
D03*
X105500Y103500D02*
D03*
X97000Y132500D02*
D03*
X77122Y105055D02*
D03*
X133500Y92000D02*
D03*
X115977Y117500D02*
D03*
X73500Y100500D02*
D03*
X72000Y115516D02*
D03*
X87000Y58000D02*
D03*
X101000Y50000D02*
D03*
X93000Y46821D02*
D03*
X144500Y34000D02*
D03*
Y20000D02*
D03*
X136500Y50000D02*
D03*
X118000Y67000D02*
D03*
X130000D02*
D03*
X130500Y45000D02*
D03*
X124000Y50000D02*
D03*
X112000D02*
D03*
X118000Y45000D02*
D03*
X56500Y143000D02*
D03*
Y135500D02*
D03*
Y128500D02*
D03*
D33*
X185000Y285000D02*
D03*
X15000D02*
D03*
X185000Y15000D02*
D03*
X15000D02*
D03*
%TF.MD5,6f270a7f99a58b6716b6b80fe0ac7c94*%
M02*
