%TF.GenerationSoftware,Altium Limited,Altium Designer,20.1.14 (287)*%
G04 Layer_Color=0*
%FSLAX25Y25*%
%MOIN*%
%TF.SameCoordinates,EAB65FBB-9CC0-4E70-8F82-B449C0BBF2B7*%
%TF.FilePolarity,Positive*%
%TF.FileFunction,Other,Mechanical_16*%
%TF.Part,Single*%
G01*
G75*
%TA.AperFunction,NonConductor*%
%ADD45C,0.00197*%
D45*
X41083Y134130D02*
Y144409D01*
X52461D01*
X41083Y165779D02*
Y176059D01*
Y165779D02*
X52461D01*
X98Y134130D02*
X41083D01*
X52461Y144409D02*
Y165779D01*
X98Y134130D02*
Y176059D01*
X41083D01*
X112500Y80815D02*
X134630D01*
Y52075D02*
Y80815D01*
X112500Y52075D02*
X134630D01*
X112500Y60130D02*
Y74500D01*
Y80815D01*
Y54741D02*
Y56594D01*
Y60130D01*
Y52075D02*
Y54741D01*
X29205Y268D02*
Y33732D01*
X54795D01*
Y268D02*
Y33732D01*
X29205Y268D02*
X54795D01*
X158610Y243685D02*
Y253965D01*
X147232Y243685D02*
X158610D01*
Y212035D02*
Y222315D01*
X147232D02*
X158610D01*
Y253965D02*
X199594D01*
X147232Y222315D02*
Y243685D01*
X199594Y212035D02*
Y253965D01*
X158610Y212035D02*
X199594D01*
X158610Y191185D02*
Y201465D01*
X147232Y191185D02*
X158610D01*
Y159535D02*
Y169815D01*
X147232D02*
X158610D01*
Y201465D02*
X199594D01*
X147232Y169815D02*
Y191185D01*
X199594Y159535D02*
Y201465D01*
X158610Y159535D02*
X199594D01*
X158610Y138185D02*
Y148465D01*
X147232Y138185D02*
X158610D01*
Y106535D02*
Y116815D01*
X147232D02*
X158610D01*
Y148465D02*
X199594D01*
X147232Y116815D02*
Y138185D01*
X199594Y106535D02*
Y148465D01*
X158610Y106535D02*
X199594D01*
X41083Y90035D02*
Y100315D01*
X52461D01*
X41083Y121685D02*
Y131965D01*
Y121685D02*
X52461D01*
X98Y90035D02*
X41083D01*
X52461Y100315D02*
Y121685D01*
X98Y90035D02*
Y131965D01*
X41083D01*
Y181035D02*
Y191315D01*
X52461D01*
X41083Y212685D02*
Y222965D01*
Y212685D02*
X52461D01*
X98Y181035D02*
X41083D01*
X52461Y191315D02*
Y212685D01*
X98Y181035D02*
Y222965D01*
X41083D01*
Y226535D02*
Y236815D01*
X52461D01*
X41083Y258185D02*
Y268465D01*
Y258185D02*
X52461D01*
X98Y226535D02*
X41083D01*
X52461Y236815D02*
Y258185D01*
X98Y226535D02*
Y268465D01*
X41083D01*
X87685Y41083D02*
X97965D01*
X87685D02*
Y52461D01*
X56035Y41083D02*
X66315D01*
Y52461D01*
X97965Y98D02*
Y41083D01*
X66315Y52461D02*
X87685D01*
X56035Y98D02*
X97965D01*
X56035D02*
Y41083D01*
%TF.MD5,8de9fe1a744cbe9fca72ce8b74aef7a6*%
M02*
