%TF.GenerationSoftware,Altium Limited,Altium Designer,20.1.14 (287)*%
G04 Layer_Color=128*
%FSLAX25Y25*%
%MOIN*%
%TF.SameCoordinates,66620FBD-E1AE-4FB5-826F-034038840454*%
%TF.FilePolarity,Positive*%
%TF.FileFunction,Paste,Bot*%
%TF.Part,Single*%
G01*
G75*
%TA.AperFunction,SMDPad,CuDef*%
%ADD10R,0.05512X0.04134*%
%ADD34R,0.03937X0.06299*%
%ADD35R,0.01181X0.06496*%
%ADD36R,0.06496X0.01181*%
%ADD37R,0.05118X0.08268*%
%ADD38R,0.02362X0.05906*%
%ADD39R,0.04134X0.05512*%
%ADD40R,0.08500X0.10799*%
D10*
X63000Y40520D02*
D03*
Y48000D02*
D03*
X136500Y33760D02*
D03*
Y41240D02*
D03*
X112000Y33500D02*
D03*
Y40980D02*
D03*
X101000Y33500D02*
D03*
Y40980D02*
D03*
X124000Y33500D02*
D03*
Y40980D02*
D03*
X104500Y21000D02*
D03*
Y13520D02*
D03*
X93000Y33410D02*
D03*
Y40890D02*
D03*
X152500Y114091D02*
D03*
Y106610D02*
D03*
X115500Y157890D02*
D03*
Y150409D02*
D03*
D34*
X103000Y262500D02*
D03*
X91189D02*
D03*
D35*
X91736Y139338D02*
D03*
X93705D02*
D03*
X95673D02*
D03*
X97642D02*
D03*
X99610D02*
D03*
X101579D02*
D03*
X103547D02*
D03*
X105516D02*
D03*
X107484D02*
D03*
X109453D02*
D03*
X111421D02*
D03*
X113390D02*
D03*
X115358D02*
D03*
X117327D02*
D03*
X119295D02*
D03*
X121264D02*
D03*
Y93662D02*
D03*
X119295D02*
D03*
X117327D02*
D03*
X115358D02*
D03*
X113390D02*
D03*
X111421D02*
D03*
X109453D02*
D03*
X107484D02*
D03*
X105516D02*
D03*
X103547D02*
D03*
X101579D02*
D03*
X99610D02*
D03*
X97642D02*
D03*
X95673D02*
D03*
X93705D02*
D03*
X91736D02*
D03*
D36*
X129338Y131264D02*
D03*
Y129295D02*
D03*
Y127327D02*
D03*
Y125358D02*
D03*
Y123390D02*
D03*
Y121421D02*
D03*
Y119453D02*
D03*
Y117484D02*
D03*
Y115516D02*
D03*
Y113547D02*
D03*
Y111579D02*
D03*
Y109610D02*
D03*
Y107642D02*
D03*
Y105673D02*
D03*
Y103705D02*
D03*
Y101736D02*
D03*
X83662D02*
D03*
Y103705D02*
D03*
Y105673D02*
D03*
Y107642D02*
D03*
Y109610D02*
D03*
Y111579D02*
D03*
Y113547D02*
D03*
Y115516D02*
D03*
Y117484D02*
D03*
Y119453D02*
D03*
Y121421D02*
D03*
Y123390D02*
D03*
Y125358D02*
D03*
Y127327D02*
D03*
Y129295D02*
D03*
Y131264D02*
D03*
D37*
X100000Y75555D02*
D03*
X80000D02*
D03*
Y57445D02*
D03*
X100000D02*
D03*
D38*
X116500Y56012D02*
D03*
X121500D02*
D03*
X126500D02*
D03*
X131500D02*
D03*
Y76878D02*
D03*
X126500D02*
D03*
X121500D02*
D03*
X116500D02*
D03*
D39*
X147520Y26500D02*
D03*
X155000D02*
D03*
X63000Y143500D02*
D03*
X70480D02*
D03*
X63000Y135500D02*
D03*
X70480D02*
D03*
X63000Y127500D02*
D03*
X70480D02*
D03*
X80000Y84000D02*
D03*
X87480D02*
D03*
X126091Y84000D02*
D03*
X118610D02*
D03*
X118890Y7500D02*
D03*
X111409D02*
D03*
X68910Y93500D02*
D03*
X76390D02*
D03*
X62090Y115000D02*
D03*
X54610D02*
D03*
X54610Y107000D02*
D03*
X62091D02*
D03*
D40*
X128701Y262500D02*
D03*
X111299D02*
D03*
%TF.MD5,9e2d667e803e3b7c209f5f1f8baa7608*%
M02*
