%TF.GenerationSoftware,Altium Limited,Altium Designer,20.1.14 (287)*%
G04 Layer_Color=32768*
%FSLAX25Y25*%
%MOIN*%
%TF.SameCoordinates,EAB65FBB-9CC0-4E70-8F82-B449C0BBF2B7*%
%TF.FilePolarity,Positive*%
%TF.FileFunction,Other,Mechanical_15*%
%TF.Part,Single*%
G01*
G75*
%TA.AperFunction,NonConductor*%
%ADD44C,0.00787*%
%ADD45C,0.00197*%
%ADD47C,0.00394*%
D44*
X110669Y56657D02*
Y76342D01*
X69331D02*
X110669D01*
X69331Y56657D02*
Y76342D01*
Y56657D02*
X110669D01*
D45*
X112382Y269370D02*
Y290630D01*
X27618Y269370D02*
Y290630D01*
X112382D01*
X27618Y269370D02*
X112382D01*
X88827Y258957D02*
X105362D01*
X88827Y266043D02*
X105362D01*
X88828Y258957D02*
Y266044D01*
X105363Y258957D02*
Y266044D01*
X141760Y2870D02*
X149240D01*
X141760Y16650D02*
X149240D01*
X141760Y2870D02*
Y16650D01*
X149240Y2870D02*
Y16650D01*
X59260Y37370D02*
X66740D01*
X59260Y51150D02*
X66740D01*
Y37370D02*
Y51150D01*
X59260Y37370D02*
Y51150D01*
X79728Y143272D02*
X133272D01*
Y89728D02*
Y143272D01*
X79728Y89728D02*
X133272D01*
X79728D02*
Y143272D01*
X69382Y61106D02*
X94618D01*
Y96894D01*
X69382Y61106D02*
Y96894D01*
X94618D01*
X132760Y30610D02*
X140240D01*
X132760Y44390D02*
X140240D01*
Y30610D02*
Y44390D01*
X132760Y30610D02*
Y44390D01*
X108260Y30350D02*
X115740D01*
X108260Y44130D02*
X115740D01*
Y30350D02*
Y44130D01*
X108260Y30350D02*
Y44130D01*
X97260Y30350D02*
X104740D01*
X97260Y44130D02*
X104740D01*
Y30350D02*
Y44130D01*
X97260Y30350D02*
Y44130D01*
X120260Y30350D02*
X127740D01*
X120260Y44130D02*
X127740D01*
Y30350D02*
Y44130D01*
X120260Y30350D02*
Y44130D01*
X144370Y22760D02*
Y30240D01*
X158150Y22760D02*
Y30240D01*
X144370Y22760D02*
X158150D01*
X144370Y30240D02*
X158150D01*
X100760Y24150D02*
X108240D01*
X100760Y10370D02*
X108240D01*
X100760D02*
Y24150D01*
X108240Y10370D02*
Y24150D01*
X59850Y139760D02*
Y147240D01*
X73630Y139760D02*
Y147240D01*
X59850Y139760D02*
X73630D01*
X59850Y147240D02*
X73630D01*
X59850Y131760D02*
Y139240D01*
X73630Y131760D02*
Y139240D01*
X59850Y131760D02*
X73630D01*
X59850Y139240D02*
X73630D01*
X59850Y123760D02*
Y131240D01*
X73630Y123760D02*
Y131240D01*
X59850Y123760D02*
X73630D01*
X59850Y131240D02*
X73630D01*
X76850Y80260D02*
Y87740D01*
X90630Y80260D02*
Y87740D01*
X76850Y80260D02*
X90630D01*
X76850Y87740D02*
X90630D01*
X165571Y268949D02*
Y299658D01*
X118642Y268949D02*
X165571D01*
X118642D02*
Y299658D01*
X165571D01*
X106656Y270768D02*
X133344D01*
X106656Y254232D02*
X133344D01*
Y270768D01*
X106656Y254232D02*
Y270768D01*
X129240Y80260D02*
Y87740D01*
X115461Y80260D02*
Y87740D01*
X129240D01*
X115461Y80260D02*
X129240D01*
X122039Y3760D02*
Y11240D01*
X108260Y3760D02*
Y11240D01*
X122039D01*
X108260Y3760D02*
X122039D01*
X89260Y30260D02*
X96740D01*
X89260Y44039D02*
X96740D01*
Y30260D02*
Y44039D01*
X89260Y30260D02*
Y44039D01*
X65760Y89760D02*
Y97240D01*
X79539Y89760D02*
Y97240D01*
X65760Y89760D02*
X79539D01*
X65760Y97240D02*
X79539D01*
X65240Y111260D02*
Y118740D01*
X51461Y111260D02*
Y118740D01*
X65240D01*
X51461Y111260D02*
X65240D01*
X51461Y103260D02*
Y110740D01*
X65240Y103260D02*
Y110740D01*
X51461Y103260D02*
X65240D01*
X51461Y110740D02*
X65240D01*
X148760Y117240D02*
X156240D01*
X148760Y103461D02*
X156240D01*
X148760D02*
Y117240D01*
X156240Y103461D02*
Y117240D01*
X111760Y161039D02*
X119240D01*
X111760Y147260D02*
X119240D01*
X111760D02*
Y161039D01*
X119240Y147260D02*
Y161039D01*
X65917Y264272D02*
X68083D01*
X67000Y263189D02*
Y265354D01*
X65228Y260925D02*
Y267618D01*
X68772Y260925D02*
Y267618D01*
X65228Y260925D02*
X68772D01*
X65228Y267618D02*
X68772D01*
X72917Y264272D02*
X75083D01*
X74000Y263189D02*
Y265354D01*
X72228Y260925D02*
Y267618D01*
X75772Y260925D02*
Y267618D01*
X72228Y260925D02*
X75772D01*
X72228Y267618D02*
X75772D01*
D47*
X97096Y260531D02*
Y264469D01*
X95127Y262500D02*
X99064D01*
X145500Y7791D02*
Y11728D01*
X143532Y9760D02*
X147468D01*
X63000Y42291D02*
Y46228D01*
X61032Y44260D02*
X64969D01*
X82000Y77031D02*
Y80968D01*
X80032Y79000D02*
X83969D01*
X136500Y35531D02*
Y39469D01*
X134531Y37500D02*
X138469D01*
X112000Y35272D02*
Y39209D01*
X110031Y37240D02*
X113969D01*
X101000Y35272D02*
Y39209D01*
X99032Y37240D02*
X102969D01*
X124000Y35272D02*
Y39209D01*
X122031Y37240D02*
X125969D01*
X149291Y26500D02*
X153228D01*
X151260Y24532D02*
Y28468D01*
X104500Y15291D02*
Y19228D01*
X102532Y17260D02*
X106468D01*
X64772Y143500D02*
X68709D01*
X66740Y141532D02*
Y145468D01*
X64772Y135500D02*
X68709D01*
X66740Y133531D02*
Y137469D01*
X64772Y127500D02*
X68709D01*
X66740Y125531D02*
Y129469D01*
X81772Y84000D02*
X85709D01*
X83740Y82032D02*
Y85969D01*
X99032Y64134D02*
X102969D01*
X101000Y62165D02*
Y66102D01*
X97654Y57342D02*
Y70925D01*
X104347Y57342D02*
Y70925D01*
X97654Y57342D02*
X104347D01*
X97654Y70925D02*
X104347D01*
X134531Y64134D02*
X138469D01*
X136500Y62165D02*
Y66102D01*
X133153Y57342D02*
Y70925D01*
X139847Y57342D02*
Y70925D01*
X133153Y57342D02*
X139847D01*
X133153Y70925D02*
X139847D01*
X110031Y64134D02*
X113969D01*
X112000Y62165D02*
Y66102D01*
X108653Y57342D02*
Y70925D01*
X115347Y57342D02*
Y70925D01*
X108653Y57342D02*
X115347D01*
X108653Y70925D02*
X115347D01*
X120000Y260531D02*
Y264469D01*
X118032Y262500D02*
X121968D01*
X122031Y64134D02*
X125969D01*
X124000Y62165D02*
Y66102D01*
X120653Y57342D02*
Y70925D01*
X127347Y57342D02*
Y70925D01*
X120653Y57342D02*
X127347D01*
X120653Y70925D02*
X127347D01*
X120382Y84000D02*
X124319D01*
X122350Y82032D02*
Y85969D01*
X113181Y7500D02*
X117118D01*
X115150Y5531D02*
Y9469D01*
X93000Y35181D02*
Y39118D01*
X91031Y37150D02*
X94968D01*
X70681Y93500D02*
X74618D01*
X72650Y91531D02*
Y95468D01*
X56382Y115000D02*
X60319D01*
X58350Y113031D02*
Y116969D01*
X56382Y107000D02*
X60319D01*
X58350Y105032D02*
Y108968D01*
X152500Y108382D02*
Y112319D01*
X150531Y110350D02*
X154469D01*
X115500Y152181D02*
Y156118D01*
X113531Y154150D02*
X117469D01*
%TF.MD5,77b1e7ebd087d575a4ad94239d643d96*%
M02*
